<svg width="34" height="34" viewBox="0 0 34 34" fill="none" xmlns="http://www.w3.org/2000/svg">
<path fill-rule="evenodd" clip-rule="evenodd" d="M17 34C26.3888 34 34 26.3888 34 17C34 7.61116 26.3888 0 17 0C7.61116 0 0 7.61116 0 17C0 26.3888 7.61116 34 17 34Z" fill="#1F8EFA"/>
<path d="M12.0002 19.3066H21.9998C22.3628 19.3066 22.6978 19.1096 22.8748 18.7917C23.0508 18.4737 23.0408 18.0847 22.8478 17.7767L17.848 13.4703C17.665 13.1783 17.345 13.0003 17 13.0003C16.655 13.0003 16.335 13.1783 16.152 13.4703L11.1522 17.7767C10.9592 18.0847 10.9492 18.4737 11.1252 18.7917C11.3022 19.1096 11.6372 19.3066 12.0002 19.3066Z" fill="white"/>
</svg>
