<svg width="47" height="47" viewBox="0 0 47 47" fill="none" xmlns="http://www.w3.org/2000/svg">
<path d="M46.2167 18.8H43.8667V16.45V13.3167V10.1833C43.8667 9.75015 43.5165 9.4 43.0833 9.4H42.3V7.05V3.91667V0.783333C42.3 0.35015 41.9499 0 41.5167 0H27.4167H18.0167H3.91667C3.48348 0 3.13333 0.35015 3.13333 0.783333V3.91667V7.05V10.1833C3.13333 10.6165 3.48348 10.9667 3.91667 10.9667H4.7V13.3167V16.45V18.8H0.783333C0.35015 18.8 0 19.1502 0 19.5833V43.0833C0 45.243 1.75702 47 3.91667 47H43.0833C45.243 47 47 45.243 47 43.0833V19.5833C47 19.1502 46.6499 18.8 46.2167 18.8ZM42.3 10.9667V12.5333H29.7667V10.9667H41.5167H42.3ZM29.7667 15.6667V14.1H42.3V15.6667H29.7667ZM42.3 17.2333V18.8H29.7667V17.2333H42.3ZM28.2 1.56667H40.7333V3.13333H28.2V1.56667ZM28.2 4.7H40.7333V6.26667H28.2V4.7ZM28.2 7.83333H40.7333V9.4H28.9833H28.2V7.83333ZM28.2 10.9667V13.3167V16.45V18.8H20.3667V16.45V13.3167V10.9667H27.4167H28.2ZM18.8 7.05V3.91667V1.56667H26.6333V3.91667V7.05V9.4H19.5833H18.8V7.05ZM18.8 10.9667V12.5333H6.26667V10.9667H18.0167H18.8ZM6.26667 15.6667V14.1H18.8V15.6667H6.26667ZM18.8 17.2333V18.8H6.26667V17.2333H18.8ZM4.7 1.56667H17.2333V3.13333H4.7V1.56667ZM4.7 4.7H17.2333V6.26667H4.7V4.7ZM4.7 7.83333H17.2333V9.4H5.48333H4.7V7.83333ZM45.4333 43.0833C45.4333 44.379 44.379 45.4333 43.0833 45.4333H3.91667C2.62103 45.4333 1.56667 44.379 1.56667 43.0833V42.3H45.4333V43.0833ZM45.4333 40.7333H1.56667V20.3667H5.48333H19.5833H28.9833H43.0833H45.4333V40.7333Z" fill="#7B8AA4"/>
<path d="M23.5 24.2833C19.6123 24.2833 16.45 27.4456 16.45 31.3333C16.45 35.221 19.6123 38.3833 23.5 38.3833C27.3877 38.3833 30.55 35.221 30.55 31.3333C30.55 27.4456 27.3877 24.2833 23.5 24.2833ZM23.5 33.6833C23.0676 33.6833 22.7167 33.3324 22.7167 32.9H21.15C21.15 33.9199 21.8072 34.7816 22.7167 35.1059V36.754C20.0643 36.3717 18.0167 34.0899 18.0167 31.3333C18.0167 28.5768 20.0643 26.2949 22.7167 25.9127V27.5608C21.8072 27.8851 21.15 28.7468 21.15 29.7667C21.15 29.975 21.2323 30.174 21.3795 30.3205L24.234 33.1749C24.122 33.471 23.8353 33.6833 23.5 33.6833ZM24.2833 36.754V35.1059C25.1928 34.7816 25.85 33.9199 25.85 32.9C25.85 32.6916 25.7678 32.4927 25.6205 32.3462L22.766 29.4917C22.878 29.1956 23.1647 28.9833 23.5 28.9833C23.9324 28.9833 24.2833 29.3343 24.2833 29.7667H25.85C25.85 28.7468 25.1928 27.8851 24.2833 27.5608V25.9127C26.9357 26.2949 28.9833 28.5768 28.9833 31.3333C28.9833 34.0899 26.9357 36.3717 24.2833 36.754Z" fill="#7B8AA4"/>
<path d="M36.0334 30.55H32.1167V32.1167H36.0334V30.55Z" fill="#7B8AA4"/>
<path d="M14.8833 30.55H10.9667V32.1167H14.8833V30.55Z" fill="#7B8AA4"/>
<path d="M36.0333 25.85H30.55V27.4166H36.0333V25.85Z" fill="#7B8AA4"/>
<path d="M16.45 25.85H10.9667V27.4166H16.45V25.85Z" fill="#7B8AA4"/>
<path d="M36.0333 35.25H30.55V36.8167H36.0333V35.25Z" fill="#7B8AA4"/>
<path d="M16.45 35.25H10.9667V36.8167H16.45V35.25Z" fill="#7B8AA4"/>
<path d="M41.2871 22.1628C40.9808 21.8565 40.4858 21.8565 40.1795 22.1628L37.0461 25.2962L38.1538 26.4038L39.95 24.6076V32.9H41.5166V24.6076L43.3128 26.4038L44.4204 25.2962L41.2871 22.1628Z" fill="#7B8AA4"/>
<path d="M6.8205 22.1628C6.51421 21.8565 6.01915 21.8565 5.71286 22.1628L2.57953 25.2962L3.68716 26.4038L5.48335 24.6076V32.9H7.05001V24.6076L8.8462 26.4038L9.95383 25.2962L6.8205 22.1628Z" fill="#7B8AA4"/>
<path d="M41.5166 34.4667H39.95V36.0333H41.5166V34.4667Z" fill="#7B8AA4"/>
<path d="M41.5166 37.6H39.95V39.1666H41.5166V37.6Z" fill="#7B8AA4"/>
<path d="M7.05 34.4667H5.48334V36.0333H7.05V34.4667Z" fill="#7B8AA4"/>
<path d="M7.05 37.6H5.48334V39.1666H7.05V37.6Z" fill="#7B8AA4"/>
</svg>
