<svg width="64" height="62" viewBox="0 0 64 62" fill="none" xmlns="http://www.w3.org/2000/svg">
<circle cx="55.2325" cy="30.057" r="2.50504" fill="white"/>
<circle cx="62.7476" cy="30.0571" r="1.25252" fill="white"/>
<circle cx="48.5288" cy="40.0856" r="2.50504" transform="rotate(32.364 48.5288 40.0856)" fill="white"/>
<circle cx="56.9082" cy="44.3142" r="1.25252" transform="rotate(32.364 56.9082 44.3142)" fill="white"/>
<circle cx="32.7235" cy="50.1878" r="2.50504" transform="rotate(87.9759 32.7235 50.1878)" fill="white"/>
<circle cx="32.6779" cy="58.912" r="1.25252" transform="rotate(87.9759 32.6779 58.912)" fill="white"/>
<circle cx="16.8179" cy="41.0515" r="2.50504" transform="rotate(146.139 16.8179 41.0515)" fill="white"/>
<circle cx="9.32197" cy="46.8287" r="1.25252" transform="rotate(146.139 9.32197 46.8287)" fill="white"/>
<circle cx="16.9699" cy="20.6274" r="2.50504" transform="rotate(-153.611 16.9699 20.6274)" fill="white"/>
<circle cx="8.01026" cy="16.709" r="1.25252" transform="rotate(-153.611 8.01026 16.709)" fill="white"/>
<circle cx="32.6462" cy="12.5301" r="2.50504" transform="rotate(-89.784 32.6462 12.5301)" fill="white"/>
<circle cx="32.6391" cy="1.25727" r="1.25252" transform="rotate(-89.784 32.6391 1.25727)" fill="white"/>
<circle cx="48.676" cy="21.3928" r="2.50504" transform="rotate(-37.8183 48.676 21.3928)" fill="white"/>
<circle cx="56.9372" cy="15.5352" r="1.25252" transform="rotate(-37.8183 56.9372 15.5352)" fill="white"/>
<circle cx="43.9083" cy="30.0604" r="5.01009" fill="white"/>
<circle cx="44.8362" cy="51.0303" r="2.50504" transform="rotate(59.1986 44.8362 51.0303)" fill="white"/>
<circle cx="48.6858" cy="57.4853" r="1.25252" transform="rotate(59.1986 48.6858 57.4853)" fill="white"/>
<circle cx="38.2501" cy="40.687" r="5.01009" transform="rotate(59.1986 38.2501 40.687)" fill="white"/>
<circle cx="21.6263" cy="50.991" r="2.50504" transform="rotate(118.405 21.6263 50.991)" fill="white"/>
<circle cx="18.0495" cy="57.6012" r="1.25252" transform="rotate(118.405 18.0495 57.6012)" fill="white"/>
<circle cx="27.1896" cy="40.6084" r="5.01009" transform="rotate(118.405 27.1896 40.6084)" fill="white"/>
<circle cx="8.86156" cy="31.3623" r="2.50504" transform="rotate(178.859 8.86156 31.3623)" fill="white"/>
<circle cx="1.34668" cy="31.5119" r="1.25252" transform="rotate(178.859 1.34668 31.5119)" fill="white"/>
<circle cx="20.2085" cy="31.4117" r="5.01009" transform="rotate(178.859 20.2085 31.4117)" fill="white"/>
<circle cx="19.5909" cy="10.4436" r="2.50504" transform="rotate(-121.174 19.5909 10.4436)" fill="white"/>
<circle cx="15.7011" cy="4.01369" r="1.25252" transform="rotate(-121.174 15.7011 4.01369)" fill="white"/>
<circle cx="26.7415" cy="20.9617" r="5.01009" transform="rotate(-121.174 26.7415 20.9617)" fill="white"/>
<circle cx="44.831" cy="10.2701" r="2.50504" transform="rotate(-59.552 44.831 10.2701)" fill="white"/>
<circle cx="48.6404" cy="3.79145" r="1.25252" transform="rotate(-59.552 48.6404 3.79145)" fill="white"/>
<circle cx="38.2399" cy="20.8126" r="5.01009" transform="rotate(-59.552 38.2399 20.8126)" fill="white"/>
</svg>
