<svg width="58" height="67" viewBox="0 0 58 67" fill="none" xmlns="http://www.w3.org/2000/svg">
<path d="M48.8528 20.3484L40.6201 14.4026L37.8759 3.42572L30.1006 14.4026L9.51904 15.7747L15.0075 29.0384L15.4648 39.1005L14.0927 55.1084L20.9533 47.7905L30.558 52.3642L40.1628 51.9068L47.938 46.8758" stroke="white" stroke-miterlimit="10"/>
<path d="M26.8989 3.88306L30.1005 14.4025" stroke="white" stroke-miterlimit="10"/>
<path d="M40.8486 14.6313L48.1665 6.39862" stroke="white" stroke-miterlimit="10"/>
<path d="M56.3992 13.2592L40.8486 14.1739" stroke="white" stroke-miterlimit="10"/>
<path d="M17.0654 8.68542L30.3291 13.7165" stroke="white" stroke-miterlimit="10"/>
<path d="M20.2671 19.6623L30.3292 13.7165" stroke="white" stroke-miterlimit="10"/>
<path d="M9.74761 16.0034L4.71655 26.5228" stroke="white" stroke-miterlimit="10"/>
<path d="M4.71655 37.4997L15.236 29.2671" stroke="white" stroke-miterlimit="10"/>
<path d="M14.3212 55.3371L7.46069 47.1044" stroke="white" stroke-miterlimit="10"/>
<path d="M22.554 60.8255L30.7866 52.5929" stroke="white" stroke-miterlimit="10"/>
<path d="M32.6161 64.0271L30.7866 52.5929" stroke="white" stroke-miterlimit="10"/>
<path d="M42.6782 62.1976L30.7866 52.5929" stroke="white" stroke-miterlimit="10"/>
<path d="M51.368 57.6239L40.3911 52.1355" stroke="white" stroke-miterlimit="10"/>
<path d="M30.5578 56.9379C33.0838 56.9379 35.1315 54.8902 35.1315 52.3642C35.1315 49.8382 33.0838 47.7905 30.5578 47.7905C28.0318 47.7905 25.9841 49.8382 25.9841 52.3642C25.9841 54.8902 28.0318 56.9379 30.5578 56.9379Z" fill="white"/>
<path d="M15.0073 33.612C17.5333 33.612 19.581 31.5643 19.581 29.0384C19.581 26.5124 17.5333 24.4647 15.0073 24.4647C12.4813 24.4647 10.4336 26.5124 10.4336 29.0384C10.4336 31.5643 12.4813 33.612 15.0073 33.612Z" fill="white"/>
<path d="M40.6199 18.0615C42.6407 18.0615 44.2788 16.4233 44.2788 14.4025C44.2788 12.3818 42.6407 10.7436 40.6199 10.7436C38.5991 10.7436 36.9609 12.3818 36.9609 14.4025C36.9609 16.4233 38.5991 18.0615 40.6199 18.0615Z" fill="white"/>
<path d="M47.938 9.82889C49.9588 9.82889 51.597 8.19072 51.597 6.16994C51.597 4.14915 49.9588 2.51099 47.938 2.51099C45.9172 2.51099 44.2791 4.14915 44.2791 6.16994C44.2791 8.19072 45.9172 9.82889 47.938 9.82889Z" fill="white"/>
<path d="M26.8989 7.54203C28.9197 7.54203 30.5579 5.90386 30.5579 3.88307C30.5579 1.86229 28.9197 0.224121 26.8989 0.224121C24.8782 0.224121 23.24 1.86229 23.24 3.88307C23.24 5.90386 24.8782 7.54203 26.8989 7.54203Z" fill="white"/>
<path d="M9.51882 19.4336C11.5396 19.4336 13.1778 17.7955 13.1778 15.7747C13.1778 13.7539 11.5396 12.1157 9.51882 12.1157C7.49803 12.1157 5.85986 13.7539 5.85986 15.7747C5.85986 17.7955 7.49803 19.4336 9.51882 19.4336Z" fill="white"/>
<path d="M4.48781 40.93C6.50859 40.93 8.14676 39.2918 8.14676 37.271C8.14676 35.2502 6.50859 33.6121 4.48781 33.6121C2.46703 33.6121 0.828857 35.2502 0.828857 37.271C0.828857 39.2918 2.46703 40.93 4.48781 40.93Z" fill="white"/>
<path d="M20.9531 51.4494C22.9739 51.4494 24.6121 49.8113 24.6121 47.7905C24.6121 45.7697 22.9739 44.1315 20.9531 44.1315C18.9324 44.1315 17.2942 45.7697 17.2942 47.7905C17.2942 49.8113 18.9324 51.4494 20.9531 51.4494Z" fill="white"/>
<path d="M15.6932 42.7594C17.5877 42.7594 19.1235 41.2236 19.1235 39.3291C19.1235 37.4346 17.5877 35.8989 15.6932 35.8989C13.7987 35.8989 12.2629 37.4346 12.2629 39.3291C12.2629 41.2236 13.7987 42.7594 15.6932 42.7594Z" fill="white"/>
<path d="M14.0925 58.7674C16.1133 58.7674 17.7515 57.1292 17.7515 55.1084C17.7515 53.0876 16.1133 51.4495 14.0925 51.4495C12.0718 51.4495 10.4336 53.0876 10.4336 55.1084C10.4336 57.1292 12.0718 58.7674 14.0925 58.7674Z" fill="white"/>
<path d="M32.3875 67C34.4083 67 36.0464 65.3619 36.0464 63.3411C36.0464 61.3203 34.4083 59.6821 32.3875 59.6821C30.3667 59.6821 28.7285 61.3203 28.7285 63.3411C28.7285 65.3619 30.3667 67 32.3875 67Z" fill="white"/>
<path d="M42.4495 65.6279C44.4703 65.6279 46.1084 63.9897 46.1084 61.9689C46.1084 59.9482 44.4703 58.31 42.4495 58.31C40.4287 58.31 38.7905 59.9482 38.7905 61.9689C38.7905 63.9897 40.4287 65.6279 42.4495 65.6279Z" fill="white"/>
<path d="M37.8756 5.2552C38.886 5.2552 39.7051 4.43612 39.7051 3.42573C39.7051 2.41534 38.886 1.59625 37.8756 1.59625C36.8652 1.59625 36.0461 2.41534 36.0461 3.42573C36.0461 4.43612 36.8652 5.2552 37.8756 5.2552Z" fill="white"/>
<path d="M56.1705 14.8599C57.1809 14.8599 58 14.0409 58 13.0305C58 12.0201 57.1809 11.201 56.1705 11.201C55.1601 11.201 54.3411 12.0201 54.3411 13.0305C54.3411 14.0409 55.1601 14.8599 56.1705 14.8599Z" fill="white"/>
<path d="M48.8527 22.1778C49.8631 22.1778 50.6821 21.3587 50.6821 20.3483C50.6821 19.3379 49.8631 18.5189 48.8527 18.5189C47.8423 18.5189 47.0232 19.3379 47.0232 20.3483C47.0232 21.3587 47.8423 22.1778 48.8527 22.1778Z" fill="white"/>
<path d="M47.9379 48.7053C48.9483 48.7053 49.7674 47.8862 49.7674 46.8758C49.7674 45.8654 48.9483 45.0463 47.9379 45.0463C46.9275 45.0463 46.1084 45.8654 46.1084 46.8758C46.1084 47.8862 46.9275 48.7053 47.9379 48.7053Z" fill="white"/>
<path d="M51.1394 59.6821C52.4024 59.6821 53.4262 58.6582 53.4262 57.3952C53.4262 56.1323 52.4024 55.1084 51.1394 55.1084C49.8764 55.1084 48.8525 56.1323 48.8525 57.3952C48.8525 58.6582 49.8764 59.6821 51.1394 59.6821Z" fill="white"/>
<path d="M40.1626 54.1937C41.4256 54.1937 42.4494 53.1698 42.4494 51.9068C42.4494 50.6439 41.4256 49.62 40.1626 49.62C38.8996 49.62 37.8757 50.6439 37.8757 51.9068C37.8757 53.1698 38.8996 54.1937 40.1626 54.1937Z" fill="white"/>
<path d="M22.3252 62.8837C23.5882 62.8837 24.612 61.8598 24.612 60.5968C24.612 59.3339 23.5882 58.31 22.3252 58.31C21.0622 58.31 20.0383 59.3339 20.0383 60.5968C20.0383 61.8598 21.0622 62.8837 22.3252 62.8837Z" fill="white"/>
<path d="M7.23216 49.1626C8.49515 49.1626 9.519 48.1388 9.519 46.8758C9.519 45.6128 8.49515 44.5889 7.23216 44.5889C5.96917 44.5889 4.94531 45.6128 4.94531 46.8758C4.94531 48.1388 5.96917 49.1626 7.23216 49.1626Z" fill="white"/>
<path d="M20.0383 21.7204C21.3013 21.7204 22.3252 20.6966 22.3252 19.4336C22.3252 18.1706 21.3013 17.1467 20.0383 17.1467C18.7753 17.1467 17.7515 18.1706 17.7515 19.4336C17.7515 20.6966 18.7753 21.7204 20.0383 21.7204Z" fill="white"/>
<path d="M16.8366 10.7436C18.0996 10.7436 19.1235 9.71976 19.1235 8.45677C19.1235 7.19378 18.0996 6.16992 16.8366 6.16992C15.5737 6.16992 14.5498 7.19378 14.5498 8.45677C14.5498 9.71976 15.5737 10.7436 16.8366 10.7436Z" fill="white"/>
<path d="M29.872 16.6894C31.2613 16.6894 32.3875 15.5632 32.3875 14.1739C32.3875 12.7846 31.2613 11.6584 29.872 11.6584C28.4827 11.6584 27.3564 12.7846 27.3564 14.1739C27.3564 15.5632 28.4827 16.6894 29.872 16.6894Z" fill="white"/>
<path d="M4.48787 29.4958C6.00345 29.4958 7.23208 28.2671 7.23208 26.7515C7.23208 25.236 6.00345 24.0073 4.48787 24.0073C2.97228 24.0073 1.74365 25.236 1.74365 26.7515C1.74365 28.2671 2.97228 29.4958 4.48787 29.4958Z" fill="white"/>
</svg>
