<svg width="68" height="69" viewBox="0 0 68 69" fill="none" xmlns="http://www.w3.org/2000/svg">
<path fill-rule="evenodd" clip-rule="evenodd" d="M31.6356 0.97284C32.142 0.42519 32.7935 0 33.5807 0C34.3679 0 35.0194 0.42519 35.5257 0.97284C36.0332 1.52168 36.4797 2.28015 36.8792 3.17314C37.6807 4.96513 38.3804 7.50144 38.96 10.5651C40.122 16.7073 40.835 25.1541 40.835 34.4578C40.835 43.7614 40.122 52.2083 38.96 58.3505C38.3804 61.4141 37.6807 63.9504 36.8792 65.7424C36.4797 66.6354 36.0332 67.3939 35.5257 67.9427C35.0194 68.4904 34.3679 68.9156 33.5807 68.9156C32.7935 68.9156 32.142 68.4904 31.6356 67.9427C31.1282 67.3939 30.6816 66.6354 30.2822 65.7424C29.4807 63.9504 28.781 61.4141 28.2014 58.3505C27.0393 52.2083 26.3264 43.7614 26.3264 34.4578C26.3264 25.1541 27.0393 16.7073 28.2014 10.5651C28.781 7.50144 29.4807 4.96513 30.2822 3.17314C30.6816 2.28015 31.1282 1.52168 31.6356 0.97284ZM29.9833 10.9022C28.848 16.9031 28.14 25.2317 28.14 34.4578C28.14 43.6838 28.848 52.0125 29.9833 58.0133C30.5524 61.0212 31.2204 63.3984 31.9377 65.0019C32.2977 65.8067 32.6483 66.3665 32.9673 66.7115C33.2874 67.0578 33.4915 67.102 33.5807 67.102C33.6699 67.102 33.874 67.0578 34.1941 66.7115C34.5131 66.3665 34.8637 65.8067 35.2237 65.0019C35.9409 63.3984 36.609 61.0212 37.1781 58.0133C38.3134 52.0125 39.0214 43.6838 39.0214 34.4578C39.0214 25.2317 38.3134 16.9031 37.1781 10.9022C36.609 7.89431 35.9409 5.51719 35.2237 3.91363C34.8637 3.10885 34.5131 2.54902 34.1941 2.204C33.874 1.85779 33.6699 1.81357 33.5807 1.81357C33.4915 1.81357 33.2874 1.85779 32.9673 2.204C32.6483 2.54902 32.2977 3.10885 31.9377 3.91363C31.2204 5.51719 30.5524 7.89431 29.9833 10.9022Z" fill="white"/>
<path fill-rule="evenodd" clip-rule="evenodd" d="M31.6354 0.97284C32.1417 0.42519 32.7932 0 33.5804 0C34.3677 0 35.0192 0.42519 35.5255 0.97284C36.0329 1.52168 36.4795 2.28015 36.8789 3.17314C37.6805 4.96513 38.3802 7.50144 38.9598 10.5651C40.1218 16.7073 40.8347 25.1541 40.8347 34.4578C40.8347 43.7614 40.1218 52.2083 38.9598 58.3505C38.3802 61.4141 37.6805 63.9504 36.8789 65.7424C36.4795 66.6354 36.0329 67.3939 35.5255 67.9427C35.0192 68.4904 34.3677 68.9156 33.5804 68.9156C32.7932 68.9156 32.1417 68.4904 31.6354 67.9427C31.128 67.3939 30.6814 66.6354 30.282 65.7424C29.4804 63.9504 28.7807 61.4141 28.2011 58.3505C27.0391 52.2083 26.3262 43.7614 26.3262 34.4578C26.3262 25.1541 27.0391 16.7073 28.2011 10.5651C28.7807 7.50144 29.4804 4.96513 30.282 3.17314C30.6814 2.28015 31.128 1.52168 31.6354 0.97284ZM29.9831 10.9022C28.8478 16.9031 28.1397 25.2317 28.1397 34.4578C28.1397 43.6838 28.8478 52.0125 29.9831 58.0133C30.5521 61.0212 31.2202 63.3984 31.9375 65.0019C32.2974 65.8067 32.648 66.3665 32.967 66.7115C33.2871 67.0578 33.4913 67.102 33.5804 67.102C33.6696 67.102 33.8738 67.0578 34.1939 66.7115C34.5128 66.3665 34.8634 65.8067 35.2234 65.0019C35.9407 63.3984 36.6088 61.0212 37.1778 58.0133C38.3131 52.0125 39.0211 43.6838 39.0211 34.4578C39.0211 25.2317 38.3131 16.9031 37.1778 10.9022C36.6088 7.89431 35.9407 5.51719 35.2234 3.91363C34.8634 3.10885 34.5128 2.54902 34.1939 2.204C33.8738 1.85779 33.6696 1.81357 33.5804 1.81357C33.4913 1.81357 33.2871 1.85779 32.967 2.204C32.648 2.54902 32.2974 3.10885 31.9375 3.91363C31.2202 5.51719 30.5521 7.89431 29.9831 10.9022Z" fill="white"/>
<path fill-rule="evenodd" clip-rule="evenodd" d="M61.6065 16.0308C62.334 16.1955 63.028 16.5471 63.4216 17.2289C63.8152 17.9106 63.7727 18.6874 63.5516 19.3997C63.33 20.1136 62.8964 20.8796 62.3228 21.672C61.1717 23.2621 59.325 25.1363 56.9616 27.17C52.2233 31.2475 45.2646 36.0883 37.2074 40.7401C29.1502 45.3919 21.4786 48.998 15.5782 51.0627C12.6352 52.0926 10.0889 52.7548 8.13621 52.9566C7.16315 53.0572 6.28301 53.0497 5.55398 52.8847C4.82655 52.72 4.13256 52.3684 3.73895 51.6866C3.34534 51.0049 3.38781 50.2281 3.60892 49.5157C3.83052 48.8019 4.2641 48.0359 4.83773 47.2435C5.98887 45.6533 7.83553 43.7792 10.1989 41.7455C14.9372 37.668 21.8959 32.8272 29.9531 28.1754C38.0103 23.5235 45.682 19.9175 51.5823 17.8528C54.5253 16.8229 57.0716 16.1607 59.0243 15.9589C59.9974 15.8583 60.8775 15.8658 61.6065 16.0308ZM52.1813 19.5645C46.4167 21.5818 38.8499 25.1329 30.8599 29.746C22.8699 34.359 16.0111 39.1365 11.3819 43.1201C9.06147 45.1169 7.33686 46.884 6.30677 48.307C5.78979 49.0211 5.48026 49.6046 5.34096 50.0534C5.20118 50.5037 5.26496 50.7026 5.30955 50.7798C5.35414 50.8571 5.49452 51.0118 5.95438 51.1159C6.41267 51.2196 7.07279 51.2433 7.94975 51.1527C9.6971 50.9721 12.0898 50.3621 14.9792 49.3509C20.7438 47.3337 28.3106 43.7826 36.3006 39.1695C44.2906 34.5565 51.1494 29.779 55.7787 25.7954C58.099 23.7986 59.8237 22.0315 60.8537 20.6085C61.3707 19.8944 61.6803 19.3108 61.8196 18.8621C61.9593 18.4118 61.8956 18.2129 61.851 18.1356C61.8064 18.0584 61.666 17.9037 61.2061 17.7996C60.7479 17.6959 60.0877 17.6722 59.2108 17.7628C57.4634 17.9434 55.0707 18.5534 52.1813 19.5645Z" fill="white"/>
<path fill-rule="evenodd" clip-rule="evenodd" d="M63.4397 49.1188C63.6608 49.8311 63.7032 50.6079 63.3096 51.2896C62.916 51.9714 62.222 52.323 61.4946 52.4877C60.7656 52.6527 59.8854 52.6602 58.9124 52.5596C56.9597 52.3578 54.4133 51.6956 51.4703 50.6657C45.57 48.601 37.8984 44.995 29.8412 40.3431C21.784 35.6913 14.8253 30.8505 10.087 26.773C7.72359 24.7393 5.87694 22.8652 4.7258 21.275C4.15217 20.4826 3.71859 19.7166 3.49699 19.0028C3.27588 18.2904 3.23341 17.5136 3.62702 16.8319C4.02063 16.1501 4.71461 15.7985 5.44205 15.6338C6.17108 15.4688 7.05122 15.4613 8.02428 15.5619C9.97696 15.7637 12.5233 16.4259 15.4663 17.4558C21.3666 19.5205 29.0383 23.1266 37.0955 27.7784C45.1526 32.4302 52.1114 37.271 56.8497 41.3485C59.2131 43.3822 61.0597 45.2564 62.2109 46.8465C62.7845 47.6389 63.2181 48.4049 63.4397 49.1188ZM55.6667 42.7231C51.0375 38.7395 44.1787 33.962 36.1887 29.349C28.1987 24.7359 20.6318 21.1848 14.8673 19.1676C11.9778 18.1564 9.58516 17.5464 7.83781 17.3658C6.96086 17.2752 6.30073 17.2989 5.84245 17.4026C5.38258 17.5067 5.2422 17.6614 5.19761 17.7387C5.15302 17.8159 5.08925 18.0148 5.22903 18.4651C5.36833 18.9139 5.67786 19.4974 6.19484 20.2115C7.22493 21.6345 8.94954 23.4016 11.2699 25.3984C15.8992 29.382 22.758 34.1595 30.748 38.7725C38.738 43.3856 46.3048 46.9367 52.0694 48.954C54.9588 49.9651 57.3515 50.5751 59.0988 50.7557C59.9758 50.8463 60.6359 50.8226 61.0942 50.7189C61.5541 50.6148 61.6944 50.4601 61.739 50.3829C61.7836 50.3056 61.8474 50.1067 61.7076 49.6564C61.5683 49.2076 61.2588 48.6241 60.7418 47.91C59.7117 46.487 57.9871 44.7199 55.6667 42.7231Z" fill="white"/>
<path fill-rule="evenodd" clip-rule="evenodd" d="M49.903 22.065C51.4054 22.065 52.6233 20.8471 52.6233 19.3447C52.6233 17.8423 51.4054 16.6243 49.903 16.6243C48.4006 16.6243 47.1826 17.8423 47.1826 19.3447C47.1826 20.8471 48.4006 22.065 49.903 22.065Z" fill="white"/>
<path fill-rule="evenodd" clip-rule="evenodd" d="M12.4223 30.5284C13.9247 30.5284 15.1426 29.3105 15.1426 27.8081C15.1426 26.3056 13.9247 25.0877 12.4223 25.0877C10.9198 25.0877 9.7019 26.3056 9.7019 27.8081C9.7019 29.3105 10.9198 30.5284 12.4223 30.5284Z" fill="white"/>
<path fill-rule="evenodd" clip-rule="evenodd" d="M28.7445 59.5454C30.2469 59.5454 31.4649 58.3275 31.4649 56.8251C31.4649 55.3227 30.2469 54.1047 28.7445 54.1047C27.2421 54.1047 26.0242 55.3227 26.0242 56.8251C26.0242 58.3275 27.2421 59.5454 28.7445 59.5454Z" fill="white"/>
<path fill-rule="evenodd" clip-rule="evenodd" d="M33.5808 38.3872C35.7509 38.3872 37.5102 36.6279 37.5102 34.4578C37.5102 32.2876 35.7509 30.5284 33.5808 30.5284C31.4106 30.5284 29.6514 32.2876 29.6514 34.4578C29.6514 36.6279 31.4106 38.3872 33.5808 38.3872Z" fill="white"/>
</svg>
