<svg width="44" height="44" viewBox="0 0 44 44" fill="none" xmlns="http://www.w3.org/2000/svg">
<path fill-rule="evenodd" clip-rule="evenodd" d="M22.1718 42.7264C33.7697 42.7264 43.1718 33.3244 43.1718 21.7264C43.1718 10.1285 33.7697 0.72644 22.1718 0.72644C10.5738 0.72644 1.17175 10.1285 1.17175 21.7264C1.17175 33.3244 10.5738 42.7264 22.1718 42.7264Z" fill="white" stroke="#54617A"/>
<path fill-rule="evenodd" clip-rule="evenodd" d="M21.4624 9.10452C21.6592 8.89175 21.9123 8.72656 22.2181 8.72656C22.524 8.72656 22.7771 8.89175 22.9738 9.10452C23.1709 9.31775 23.3444 9.61242 23.4996 9.95935C23.811 10.6556 24.0828 11.6409 24.308 12.8312C24.7595 15.2175 25.0365 18.4991 25.0365 22.1137C25.0365 25.7282 24.7595 29.0099 24.308 31.3962C24.0828 32.5864 23.811 33.5718 23.4996 34.268C23.3444 34.6149 23.1709 34.9096 22.9738 35.1228C22.7771 35.3356 22.524 35.5008 22.2181 35.5008C21.9123 35.5008 21.6592 35.3356 21.4624 35.1228C21.2653 34.9096 21.0918 34.6149 20.9366 34.268C20.6252 33.5718 20.3534 32.5864 20.1282 31.3962C19.6767 29.0099 19.3998 25.7282 19.3998 22.1137C19.3998 18.4991 19.6767 15.2175 20.1282 12.8312C20.3534 11.6409 20.6252 10.6556 20.9366 9.95935C21.0918 9.61242 21.2653 9.31775 21.4624 9.10452ZM20.8205 12.9622C20.3794 15.2935 20.1044 18.5293 20.1044 22.1137C20.1044 25.6981 20.3794 28.9338 20.8205 31.2652C21.0416 32.4338 21.3011 33.3573 21.5798 33.9803C21.7197 34.293 21.8559 34.5105 21.9798 34.6445C22.1042 34.779 22.1835 34.7962 22.2181 34.7962C22.2528 34.7962 22.3321 34.779 22.4564 34.6445C22.5804 34.5105 22.7166 34.293 22.8564 33.9803C23.1351 33.3573 23.3946 32.4338 23.6157 31.2652C24.0568 28.9338 24.3319 25.6981 24.3319 22.1137C24.3319 18.5293 24.0568 15.2935 23.6157 12.9622C23.3946 11.7936 23.1351 10.87 22.8564 10.247C22.7166 9.93437 22.5804 9.71688 22.4564 9.58283C22.3321 9.44833 22.2528 9.43115 22.2181 9.43115C22.1835 9.43115 22.1042 9.44833 21.9798 9.58283C21.8559 9.71688 21.7197 9.93437 21.5798 10.247C21.3011 10.87 21.0416 11.7936 20.8205 12.9622Z" fill="#54617A"/>
<path fill-rule="evenodd" clip-rule="evenodd" d="M21.4624 9.10452C21.6592 8.89175 21.9123 8.72656 22.2181 8.72656C22.524 8.72656 22.7771 8.89175 22.9738 9.10452C23.1709 9.31775 23.3444 9.61242 23.4996 9.95935C23.811 10.6556 24.0828 11.6409 24.308 12.8312C24.7595 15.2175 25.0365 18.4991 25.0365 22.1137C25.0365 25.7282 24.7595 29.0099 24.308 31.3962C24.0828 32.5864 23.811 33.5718 23.4996 34.268C23.3444 34.6149 23.1709 34.9096 22.9738 35.1228C22.7771 35.3356 22.524 35.5008 22.2181 35.5008C21.9123 35.5008 21.6592 35.3356 21.4624 35.1228C21.2653 34.9096 21.0918 34.6149 20.9366 34.268C20.6252 33.5718 20.3534 32.5864 20.1282 31.3962C19.6767 29.0099 19.3998 25.7282 19.3998 22.1137C19.3998 18.4991 19.6767 15.2175 20.1282 12.8312C20.3534 11.6409 20.6252 10.6556 20.9366 9.95935C21.0918 9.61242 21.2653 9.31775 21.4624 9.10452ZM20.8205 12.9622C20.3794 15.2935 20.1044 18.5293 20.1044 22.1137C20.1044 25.6981 20.3794 28.9338 20.8205 31.2652C21.0416 32.4338 21.3011 33.3573 21.5798 33.9803C21.7197 34.293 21.8559 34.5105 21.9798 34.6445C22.1042 34.779 22.1835 34.7962 22.2181 34.7962C22.2528 34.7962 22.3321 34.779 22.4564 34.6445C22.5804 34.5105 22.7166 34.293 22.8564 33.9803C23.1351 33.3573 23.3946 32.4338 23.6157 31.2652C24.0568 28.9338 24.3319 25.6981 24.3319 22.1137C24.3319 18.5293 24.0568 15.2935 23.6157 12.9622C23.3946 11.7936 23.1351 10.87 22.8564 10.247C22.7166 9.93437 22.5804 9.71688 22.4564 9.58283C22.3321 9.44833 22.2528 9.43115 22.2181 9.43115C22.1835 9.43115 22.1042 9.44833 21.9798 9.58283C21.8559 9.71688 21.7197 9.93437 21.5798 10.247C21.3011 10.87 21.0416 11.7936 20.8205 12.9622Z" fill="#54617A"/>
<path fill-rule="evenodd" clip-rule="evenodd" d="M33.1065 14.9547C33.3891 15.0186 33.6587 15.1553 33.8116 15.4201C33.9646 15.685 33.9481 15.9868 33.8622 16.2635C33.7761 16.5409 33.6076 16.8385 33.3848 17.1463C32.9375 17.7641 32.2201 18.4922 31.3019 19.2823C29.461 20.8665 26.7575 22.7472 23.6272 24.5544C20.497 26.3617 17.5165 27.7627 15.2241 28.5648C14.0808 28.9649 13.0915 29.2222 12.3329 29.3006C11.9548 29.3397 11.6129 29.3368 11.3296 29.2727C11.047 29.2087 10.7774 29.0721 10.6245 28.8072C10.4716 28.5424 10.4881 28.2406 10.574 27.9638C10.6601 27.6865 10.8285 27.3889 11.0514 27.081C11.4986 26.4632 12.216 25.7351 13.1342 24.945C14.9751 23.3609 17.6786 21.4802 20.8089 19.6729C23.9392 17.8657 26.9197 16.4647 29.212 15.6625C30.3554 15.2624 31.3446 15.0051 32.1033 14.9267C32.4813 14.8876 32.8232 14.8906 33.1065 14.9547ZM29.4447 16.3276C27.2051 17.1113 24.2654 18.4909 21.1612 20.2831C18.057 22.0753 15.3923 23.9314 13.5938 25.4791C12.6923 26.2548 12.0223 26.9414 11.6221 27.4942C11.4213 27.7717 11.301 27.9984 11.2469 28.1727C11.1926 28.3477 11.2173 28.4249 11.2347 28.4549C11.252 28.4849 11.3065 28.545 11.4852 28.5855C11.6632 28.6258 11.9197 28.635 12.2604 28.5998C12.9393 28.5296 13.8688 28.2926 14.9914 27.8998C17.231 27.1161 20.1708 25.7364 23.2749 23.9442C26.3791 22.152 29.0438 20.296 30.8423 18.7483C31.7438 17.9725 32.4138 17.286 32.814 16.7332C33.0149 16.4557 33.1351 16.229 33.1892 16.0546C33.2435 15.8797 33.2188 15.8024 33.2014 15.7724C33.1841 15.7424 33.1296 15.6823 32.9509 15.6419C32.7729 15.6016 32.5164 15.5924 32.1757 15.6276C31.4969 15.6977 30.5673 15.9347 29.4447 16.3276Z" fill="#54617A"/>
<path fill-rule="evenodd" clip-rule="evenodd" d="M33.8186 27.8095C33.9045 28.0862 33.921 28.388 33.7681 28.6529C33.6152 28.9178 33.3455 29.0544 33.0629 29.1184C32.7797 29.1825 32.4377 29.1854 32.0597 29.1463C31.3011 29.0679 30.3118 28.8106 29.1684 28.4105C26.8761 27.6083 23.8956 26.2074 20.7653 24.4001C17.6351 22.5928 14.9315 20.7121 13.0907 19.128C12.1725 18.3379 11.455 17.6098 11.0078 16.992C10.785 16.6841 10.6165 16.3866 10.5304 16.1092C10.4445 15.8325 10.428 15.5307 10.5809 15.2658C10.7338 15.0009 11.0035 14.8643 11.2861 14.8004C11.5693 14.7362 11.9113 14.7333 12.2893 14.7724C13.0479 14.8508 14.0372 15.1081 15.1806 15.5082C17.4729 16.3104 20.4534 17.7113 23.5837 19.5186C26.714 21.3259 29.4175 23.2066 31.2583 24.7907C32.1765 25.5808 32.894 26.3089 33.3412 26.9267C33.5641 27.2346 33.7325 27.5322 33.8186 27.8095ZM30.7988 25.3248C29.0003 23.7771 26.3356 21.921 23.2314 20.1288C20.1272 18.3366 17.1874 16.9569 14.9479 16.1732C13.8253 15.7804 12.8957 15.5434 12.2169 15.4733C11.8761 15.438 11.6197 15.4472 11.4416 15.4876C11.263 15.528 11.2084 15.5881 11.1911 15.6181C11.1738 15.6481 11.149 15.7254 11.2033 15.9003C11.2574 16.0747 11.3777 16.3014 11.5785 16.5788C11.9787 17.1317 12.6488 17.8182 13.5503 18.594C15.3488 20.1416 18.0135 21.9977 21.1176 23.7899C24.2218 25.5821 27.1616 26.9618 29.4011 27.7455C30.5237 28.1383 31.4533 28.3753 32.1322 28.4455C32.4729 28.4807 32.7293 28.4715 32.9074 28.4312C33.086 28.3907 33.1406 28.3306 33.1579 28.3006C33.1752 28.2706 33.2 28.1933 33.1457 28.0184C33.0916 27.844 32.9713 27.6173 32.7705 27.3399C32.3703 26.7871 31.7002 26.1005 30.7988 25.3248Z" fill="#54617A"/>
<path fill-rule="evenodd" clip-rule="evenodd" d="M28.5593 17.2991C29.143 17.2991 29.6162 16.8259 29.6162 16.2422C29.6162 15.6585 29.143 15.1853 28.5593 15.1853C27.9756 15.1853 27.5024 15.6585 27.5024 16.2422C27.5024 16.8259 27.9756 17.2991 28.5593 17.2991Z" fill="#54617A"/>
<path fill-rule="evenodd" clip-rule="evenodd" d="M13.9979 20.587C14.5816 20.587 15.0548 20.1138 15.0548 19.5301C15.0548 18.9464 14.5816 18.4733 13.9979 18.4733C13.4142 18.4733 12.941 18.9464 12.941 19.5301C12.941 20.1138 13.4142 20.587 13.9979 20.587Z" fill="#54617A"/>
<path fill-rule="evenodd" clip-rule="evenodd" d="M20.3392 31.8605C20.9229 31.8605 21.3961 31.3873 21.3961 30.8036C21.3961 30.2199 20.9229 29.7467 20.3392 29.7467C19.7555 29.7467 19.2823 30.2199 19.2823 30.8036C19.2823 31.3873 19.7555 31.8605 20.3392 31.8605Z" fill="#54617A"/>
<path fill-rule="evenodd" clip-rule="evenodd" d="M22.2181 23.6402C23.0612 23.6402 23.7447 22.9568 23.7447 22.1136C23.7447 21.2705 23.0612 20.587 22.2181 20.587C21.375 20.587 20.6915 21.2705 20.6915 22.1136C20.6915 22.9568 21.375 23.6402 22.2181 23.6402Z" fill="#54617A"/>
</svg>
