<svg width="34" height="35" viewBox="0 0 34 35" fill="none" xmlns="http://www.w3.org/2000/svg">
<path fill-rule="evenodd" clip-rule="evenodd" d="M16.9998 34.9985C26.3886 34.9985 33.9998 27.3874 33.9998 17.9985C33.9998 8.60969 26.3886 0.998535 16.9998 0.998535C7.61092 0.998535 -0.000244141 8.60969 -0.000244141 17.9985C-0.000244141 27.3874 7.61092 34.9985 16.9998 34.9985Z" fill="#1F8EFA"/>
<path d="M21.7277 21.9551L18.2565 18.4838L21.7277 15.0126C21.9592 14.7811 21.9592 14.4726 21.7277 14.2412C21.4963 14.0098 21.1878 14.0098 20.9564 14.2412L17.4851 17.7124L14.0139 14.2412C13.7824 14.0098 13.4739 14.0098 13.2425 14.2412C13.011 14.4726 13.0111 14.7811 13.2425 15.0126L16.7137 18.4838L13.2425 21.9551C13.0111 22.1865 13.011 22.495 13.2425 22.7265C13.4739 22.9579 13.7824 22.9579 14.0139 22.7265L17.4851 19.2552L20.9564 22.7265C21.1878 22.9579 21.4963 22.9579 21.7277 22.7265C21.9592 22.495 21.9592 22.1865 21.7277 21.9551Z" fill="white" stroke="white"/>
</svg>
