<?xml version="1.0" encoding="UTF-8"?>
<svg width="200px" height="152px" viewBox="0 0 200 312" version="1.1" xmlns="http://www.w3.org/2000/svg"
     xmlns:xlink="http://www.w3.org/1999/xlink">
    <!-- Generator: Sketch 52.5 (67469) - http://www.bohemiancoding.com/sketch -->
    <title>ontology copy 7</title>
    <desc>Created with Sketch.</desc>
    <g id="ontology-copy-7" stroke="none" stroke-width="1" fill="none" fill-rule="evenodd">
        <path d="M98.5884,149.2152 L98.5992,149.2368 C100.944202,153.459907 100.944202,158.594093 98.5992,162.8172 C97.4508682,164.819072 95.774684,166.467029 93.7536,167.5812 C91.6425925,168.746387 89.2646046,169.341918 86.8536,169.3092 L54.2244,169.3092 L57.4248,164.4612 L65.3088,164.4612 L57.1692,152.1144 L45.8292,169.2924 L40.0464,169.2924 L53.958,148.2204 L36.6264,148.2204 C37.008,148.6896 37.3596,149.1816 37.6728,149.6976 C40.0544178,153.79678 40.0544178,158.85842 37.6728,162.9576 C36.4841081,164.927303 34.779432,166.534463 32.7432,167.6052 C30.5822196,168.744923 28.1696626,169.323821 25.7268,169.2888 L12,169.2888 L12,154.956 L17.2704,154.956 L17.2704,164.4288 L25.7268,164.4288 C27.9541775,164.507179 30.1194736,163.686381 31.7352,162.1512 C33.3069703,160.62422 34.1629367,158.505866 34.0932,156.3156 C34.1662814,154.125796 33.3097085,152.007249 31.7352,150.4836 C30.1185462,148.950023 27.9537818,148.129859 25.7268,148.2072 L12,148.2072 L12,143.3568 L57.1704,143.3568 L71.082,164.4288 L86.8452,164.4288 C86.9664,164.4312 87.0852,164.4288 87.2064,164.4252 C91.6824,164.2932 95.202,160.5264 95.07,156.0132 C95.0724,155.8692 95.0724,155.7252 95.07,155.5812 C94.9512,150.9972 91.1712,147.3792 86.6292,147.4992 C82.0848,147.6192 78.4968,151.4316 78.6156,156.012 C78.6201015,156.67842 78.692475,157.342648 78.8316,157.9944 L73.4904,157.9944 C73.3956,157.3368 73.3452,156.6744 73.3404,156.012 C73.3057167,153.626102 73.913337,151.274785 75.0996,149.2044 C76.2462855,147.204023 77.9231188,145.559165 79.9452,144.4512 C84.2592488,142.160814 89.4287512,142.160814 93.7428,144.4512 C95.7660494,145.562462 97.4429396,147.211114 98.5884,149.2152 Z M126.3564,158.8476 C127.6596,158.8476 128.7072,159.978 128.7072,161.3268 C128.7072,162.6384 127.6572,163.7688 126.3564,163.7688 L118.1508,163.7688 L118.1508,158.8476 L126.3564,158.8476 Z M128.0916,151.4124 C128.0916,152.724 127.0452,153.7452 125.7072,153.7452 L118.1532,153.7452 L118.1532,148.8984 L125.7072,148.8984 C127.0452,148.8984 128.0916,150.0636 128.0916,151.4124 Z M91.776,138 L187.1964,138 L187.1964,174 L92.0244,174 C93.5117504,173.601597 94.9456832,173.025445 96.2952,172.284 C99.1722235,170.69873 101.558295,168.35334 103.1928,165.504 L103.23,165.4368 C106.4316,159.672 106.4556,152.5212 103.296,146.7384 L103.1844,146.5368 C101.551718,143.679264 99.1608645,141.328694 96.276,139.7448 L96.21,139.71 C94.8055122,138.965149 93.3169267,138.391067 91.776,138 Z M126.4308,169.3104 C130.7676,169.3104 134.2728,165.7752 134.2776,161.4336 C134.2776,159.066 133.194,157.2432 131.5668,156.0756 C132.8304,154.9116 133.698,153.3432 133.698,151.2288 C133.698,146.928 130.1556,143.3544 125.8536,143.3544 L112.5876,143.3544 L112.5876,169.3104 L126.4308,169.3104 Z M179.7732,148.896 L179.7708,148.896 L179.7708,143.3544 L138.1428,143.3544 L138.1428,169.308 L158.7828,169.308 L158.7828,163.7664 L143.7108,163.7664 L143.7108,158.9904 L154.554,158.9904 L154.554,153.5244 L143.7108,153.5244 L143.7108,148.86 L165.3132,148.8972 L165.3132,169.3116 L170.8452,169.3116 L170.8452,148.896 L179.7732,148.896 Z" id="Combined-Shape" fill="#FFFFFF"></path>
    </g>
</svg>
