<svg width="80" height="22" viewBox="0 0 80 22" fill="none" xmlns="http://www.w3.org/2000/svg">
<path d="M3.99936 21.0875L4.72651 16.7245L15.6338 16.361C15.6338 16.361 19.815 15.5974 20.3603 10.5437C20.7239 7.27154 19.9967 5.81723 19.9967 5.81723C19.9967 5.81723 18.5424 4.36292 14.1795 4.36292C9.81659 4.36292 6.90797 4.36292 6.90797 4.36292L7.63513 0H19.6332C19.6332 0 25.4504 0.363577 25.814 6.18081C26.1412 11.6708 25.1959 16.5427 19.9967 19.9967C17.8153 21.451 3.99936 21.0875 3.99936 21.0875Z" fill="white"/>
<path d="M0 12.7252H10.5437C10.5437 12.7252 12.7252 12.3616 13.4523 8.36224C11.998 8.36224 2.18146 8.36224 2.18146 8.36224C2.18146 8.36224 0.363577 8.72582 0 12.3616" fill="white"/>
<path d="M30.1769 7.63514C30.1769 7.63514 26.9047 10.5438 27.2683 15.6338C27.6319 20.7239 31.6312 21.0875 31.6312 21.0875H42.9021L45.4471 5.45367C45.4108 5.45367 44.829 5.45367 38.5392 5.45367C31.2676 5.45367 30.1769 7.63514 30.1769 7.63514ZM38.5392 17.0881C38.5392 17.0881 37.0849 17.0881 34.9034 17.0881C32.7219 17.0881 32.7219 15.2702 32.7219 15.2702C32.7219 15.2702 32.3584 13.4524 33.0855 11.6345C33.8127 9.8166 35.9941 9.45302 35.9941 9.45302H39.6299L38.5392 17.0881Z" fill="white"/>
<path d="M46.1743 21.0875L46.9014 17.0881H55.2637C55.2637 17.0881 56.3544 17.0881 56.3544 16.361C56.3544 15.6338 55.9908 15.2702 55.2637 15.2702C53.8094 15.2702 50.5372 15.2702 50.5372 15.2702C50.5372 15.2702 46.9014 14.9067 47.265 11.6345C47.6286 8.36229 48.3557 7.99871 49.4464 6.90798C50.5372 5.81725 52.3551 5.45367 52.3551 5.45367H62.1716L61.4445 9.45302H53.8094C53.8094 9.45302 52.7186 9.45302 52.7186 10.5438C52.7186 10.9073 52.8641 11.2709 53.8094 11.2709C55.6273 11.2709 58.1723 11.2709 58.1723 11.2709C58.1723 11.2709 62.6443 12.6161 60.7173 17.8153C59.6266 20.7239 56.718 21.0875 56.718 21.0875H46.1743Z" fill="white"/>
<path d="M62.1716 21.0875L66.171 0H71.6246L70.8975 5.45365H75.624C75.624 5.45365 80.2778 6.18081 79.9869 9.81658C79.6233 14.5431 78.5326 21.0875 78.5326 21.0875H73.0789L74.2787 11.998C74.2787 11.998 74.5332 10.5801 74.1697 10.1802C73.4425 9.453 70.1703 9.81658 69.8067 9.81658C69.8067 8.72585 67.9889 21.0875 67.9889 21.0875H62.1716Z" fill="white"/>
</svg>
