<svg width="44" height="44" viewBox="0 0 44 44" fill="none" xmlns="http://www.w3.org/2000/svg">
<path fill-rule="evenodd" clip-rule="evenodd" d="M22 43C33.598 43 43 33.598 43 22C43 10.402 33.598 1 22 1C10.402 1 1 10.402 1 22C1 33.598 10.402 43 22 43Z" fill="white" stroke="#54617A"/>
<path d="M7.74268 25.9844L8.0226 24.3049L12.2215 24.1649C12.2215 24.1649 13.8311 23.871 14.041 21.9255C14.181 20.6658 13.9011 20.106 13.9011 20.106C13.9011 20.106 13.3412 19.5461 11.6616 19.5461C9.98209 19.5461 8.86238 19.5461 8.86238 19.5461L9.14231 17.8666H13.7611C13.7611 17.8666 16.0005 18.0065 16.1405 20.246C16.2664 22.3594 15.9025 24.2349 13.9011 25.5646C13.0613 26.1244 7.74268 25.9844 7.74268 25.9844Z" fill="#54617A"/>
<path d="M6.20306 22.7654H10.262C10.262 22.7654 11.1018 22.6254 11.3817 21.0858C10.8219 21.0858 7.04284 21.0858 7.04284 21.0858C7.04284 21.0858 6.34303 21.2258 6.20306 22.6254" fill="#54617A"/>
<path d="M17.8201 20.8058C17.8201 20.8058 16.5604 21.9256 16.7004 23.885C16.8403 25.8445 18.3799 25.9845 18.3799 25.9845H22.7188L23.6985 19.9661C23.6845 19.9661 23.4606 19.9661 21.0392 19.9661C18.24 19.9661 17.8201 20.8058 17.8201 20.8058ZM21.0392 24.4449C21.0392 24.4449 20.4794 24.4449 19.6396 24.4449C18.7998 24.4449 18.7998 23.7451 18.7998 23.7451C18.7998 23.7451 18.6599 23.0453 18.9398 22.3454C19.2197 21.6456 20.0595 21.5057 20.0595 21.5057H21.4591L21.0392 24.4449Z" fill="#54617A"/>
<path d="M23.9784 25.9845L24.2583 24.4449H27.4775C27.4775 24.4449 27.8974 24.4449 27.8974 24.165C27.8974 23.885 27.7574 23.7451 27.4775 23.7451C26.9176 23.7451 25.658 23.7451 25.658 23.7451C25.658 23.7451 24.2583 23.6051 24.3983 22.3454C24.5382 21.0858 24.8182 20.9458 25.2381 20.5259C25.658 20.106 26.3578 19.9661 26.3578 19.9661H30.1368L29.8569 21.5057H26.9176C26.9176 21.5057 26.4977 21.5057 26.4977 21.9256C26.4977 22.0655 26.5537 22.2055 26.9176 22.2055C27.6174 22.2055 28.5972 22.2055 28.5972 22.2055C28.5972 22.2055 30.3187 22.7233 29.5769 24.7248C29.157 25.8445 28.0373 25.9845 28.0373 25.9845H23.9784Z" fill="#54617A"/>
<path d="M30.1368 25.9845L31.6764 17.8666H33.7758L33.4959 19.966H35.3154C35.3154 19.966 37.107 20.246 36.995 21.6456C36.855 23.4651 36.4351 25.9845 36.4351 25.9845H34.3357L34.7976 22.4854C34.7976 22.4854 34.8955 21.9395 34.7556 21.7856C34.4756 21.5056 33.216 21.6456 33.076 21.6456C33.076 21.2257 32.3762 25.9845 32.3762 25.9845H30.1368Z" fill="#54617A"/>
</svg>
