<svg width="44" height="44" viewBox="0 0 44 44" fill="none" xmlns="http://www.w3.org/2000/svg">
<path fill-rule="evenodd" clip-rule="evenodd" d="M22.1718 42.7266C33.7697 42.7266 43.1718 33.3245 43.1718 21.7266C43.1718 10.1286 33.7697 0.726562 22.1718 0.726562C10.5738 0.726562 1.17175 10.1286 1.17175 21.7266C1.17175 33.3245 10.5738 42.7266 22.1718 42.7266Z" fill="white" stroke="#54617A"/>
<path d="M27.7599 13.6518L14.1129 13.8585L12.9897 17.4886L27.5293 17.2592L25.3351 24.2691L10.805 24.5787L9.75269 28.1191L26.0772 27.8445C29.6191 27.5132 30.3635 24.8224 30.6191 24.223C30.6191 24.223 32.6044 18.214 32.8749 17.0433C33.0276 15.5607 33.0494 12.9541 27.7599 13.6518Z" fill="#54617A"/>
<path d="M9.10714 22.5794L10.1875 19.2799L18.8809 19.1621L17.8006 22.4616L9.10714 22.5794Z" fill="#54617A"/>
</svg>
