<svg width="57" height="44" viewBox="0 0 57 44" fill="none" xmlns="http://www.w3.org/2000/svg">
<path d="M23.1213 35.4118H18.1272C12.7631 35.4118 8.5086 31.2564 8.5086 26.0169C8.5086 20.7774 12.7631 16.6219 18.1272 16.6219H32L22.5665 8.49162L12.9479 0.180683L0.184925 0L11.2832 9.57567C4.62422 12.1051 0 18.4286 0 25.6555C0 35.2311 7.95369 43 17.7571 43H31.8151L23.1213 35.4118Z" fill="white"/>
<path d="M33.8785 7.76473H38.8729C44.2371 7.76473 48.4913 12.0168 48.4913 17.3781C48.4913 22.7395 44.2371 26.9916 38.8729 26.9916H25L34.4335 35.311L44.052 43.8152L56.8151 44L45.7168 34.2017C52.3757 31.6135 57 25.1429 57 17.7479C57 7.94959 49.0463 0 39.2427 0H25.1849L33.8785 7.76473Z" fill="white"/>
</svg>
