<svg width="44" height="44" viewBox="0 0 44 44" fill="none" xmlns="http://www.w3.org/2000/svg">
<path fill-rule="evenodd" clip-rule="evenodd" d="M22 43C33.598 43 43 33.598 43 22C43 10.402 33.598 1 22 1C10.402 1 1 10.402 1 22C1 33.598 10.402 43 22 43Z" fill="white" stroke="#54617A"/>
<path d="M19.9332 27.6818H18.0037C15.9312 27.6818 14.2874 26.0763 14.2874 24.052C14.2874 22.0276 15.9312 20.4221 18.0037 20.4221H23.3636L19.7189 17.2809L16.0026 14.0698L11.0714 14L15.3594 17.6997C12.7866 18.677 11 21.1201 11 23.9124C11 27.612 14.073 30.6136 17.8607 30.6136H23.2922L19.9332 27.6818Z" fill="#54617A"/>
<path d="M23.703 17H25.6327C27.7052 17 29.3489 18.6429 29.3489 20.7143C29.3489 22.7857 27.7052 24.4286 25.6327 24.4286H20.2727L23.9175 27.6429L27.6337 30.9286L32.5649 31L28.2769 27.2143C30.8497 26.2143 32.6363 23.7143 32.6363 20.8572C32.6363 17.0714 29.5633 14 25.7756 14H20.3442L23.703 17Z" fill="#54617A"/>
</svg>
