<?xml version="1.0" encoding="UTF-8"?>
<svg width="200px" height="312px" viewBox="0 0 200 312" version="1.1" xmlns="http://www.w3.org/2000/svg" xmlns:xlink="http://www.w3.org/1999/xlink">
    <!-- Generator: Sketch 52.5 (67469) - http://www.bohemiancoding.com/sketch -->
    <title>ontology copy 5</title>
    <desc>Created with Sketch.</desc>
    <g id="ontology-copy-5" stroke="none" stroke-width="1" fill="none" fill-rule="evenodd">
        <g id="Group-9" transform="translate(19.000000, 66.000000)" fill="#FFFFFF">
            <path d="M115.580975,152.469 L115.580975,179.11978 C106.060431,179.200199 96.9279716,177.493764 88.0979908,174.12759 C79.2763114,170.765048 71.377113,165.896859 64.4901535,159.421333 C57.5689511,152.913119 52.2436722,145.28942 48.6025179,136.266434 C32.4124039,150.644791 16.363412,164.898629 0.175892186,179.274392 C0.104812371,178.845319 0.0238747722,178.58746 0.0233559415,178.329601 C0.0176488031,167.041919 0.0275065876,155.754237 8.55718511e-06,144.466555 C-0.00206676586,143.684158 0.373566706,143.267537 0.884615007,142.814079 C9.23519612,135.40777 17.5779948,127.993678 25.9218311,120.579586 C31.4432281,115.674041 36.9625497,110.766421 42.4813525,105.858801 C42.6655375,105.695369 42.8377893,105.520005 43.056217,105.310916 C42.5015869,103.215877 41.6802778,101.233944 40.6887923,99.3210147 C36.8650095,91.9364965 31.0997621,86.4773592 23.8755626,82.4989649 C18.4760908,79.525027 12.6957973,77.6899226 6.57255665,76.9786056 C4.67986203,76.7591402 2.77160249,76.6719766 0.870087745,76.5220345 C0.631425595,76.5028378 0.394319936,76.4685949 0.0939169251,76.4343521 L0.0939169251,49.8261165 C1.39877629,49.8261165 2.63359351,49.7695639 3.86114709,49.8354554 C12.2438957,50.2852817 20.3827939,51.9206363 28.1943098,55.029989 C41.446804,60.305979 52.3738987,68.5808109 60.518504,80.3655328 C65.9854237,88.2777019 69.399849,97.0200003 70.696407,106.554553 C71.0144503,108.891367 71.2256144,111.265537 71.2090118,113.620509 C71.1363755,123.938497 75.1069874,132.495054 82.4183505,139.579169 C88.9151493,145.87518 96.7645399,149.609724 105.580512,151.401765 C108.635388,152.023325 111.729694,152.315945 114.844754,152.401552 C115.046061,152.407259 115.246848,152.437352 115.580975,152.469 Z M161.663212,102.663789 L161.663212,129.345699 C148.444442,129.330134 136.090563,126.248279 124.600018,119.838644 C113.09754,113.421226 104.040311,104.512902 97.5896883,92.7541219 C92.2249782,97.5133564 86.9448376,102.198398 81.4571646,107.066587 C80.7909859,102.029259 79.8363373,97.3058241 78.3146067,92.7100212 C76.7845747,88.0919086 74.7943399,83.6802907 72.35376,79.3605057 C72.8450928,78.9117171 73.2928437,78.4930207 73.7514901,78.0857385 C79.0575723,73.3742364 84.3563909,68.6539141 89.6858205,63.9688723 C90.291296,63.4370708 90.4765186,62.8948927 90.4142589,62.1311738 C89.9903741,56.9112175 88.4193546,52.059631 85.7338866,47.5769332 C81.2584524,40.1057703 74.8467418,34.8230354 67.0061714,31.2000402 C60.7822775,28.3241613 54.2024658,26.9674189 47.37154,26.7380957 C47.006802,26.7261626 46.6425828,26.700221 46.1995013,26.6768736 L46.1995013,0.0198679126 C47.4099335,0.0198679126 48.5601813,-0.0299398406 49.7047219,0.0281692048 C59.4966149,0.518464275 68.9123556,2.63685028 77.8398765,6.73094382 C90.7743274,12.6616983 101.206458,21.4849342 108.644934,33.6997668 C112.905572,40.6967185 115.613869,48.2711288 116.761004,56.379416 C117.091499,58.7146732 117.331718,61.0893616 117.308889,63.4427779 C117.194227,75.2430648 122.129865,84.6017341 131.038708,92.014788 C137.057144,97.0235802 144.035937,100.072749 151.694398,101.604856 C154.711918,102.208256 157.760048,102.528375 160.835158,102.595823 C161.077971,102.60153 161.319746,102.634735 161.663212,102.663789 Z M127.961003,65.6606238 C127.959966,55.028225 125.900208,45.1247834 121.582498,35.6052766 C134.878574,23.7935754 148.135738,12.0155983 161.427663,0.20804783 C161.866594,0.637639701 161.71302,1.11444517 161.714058,1.53106627 C161.725472,7.5863401 161.72184,13.6416139 161.72184,19.6974066 C161.72184,24.6745501 161.703162,29.6516936 161.740518,34.6283183 C161.746744,35.453778 161.48681,36.0110022 160.879778,36.5490297 C150.263463,45.9528373 139.662194,55.3737663 129.055218,64.7884693 C128.786982,65.0271314 128.493324,65.2382956 127.961003,65.6606238 Z" id="Combined-Shape"></path>
        </g>
    </g>
</svg>