<svg width="45" height="67" viewBox="0 0 45 67" fill="none" xmlns="http://www.w3.org/2000/svg">
<path fill-rule="evenodd" clip-rule="evenodd" d="M22.8325 66.4985C22.7148 66.446 22.5972 66.3984 22.4815 66.3516C22.2281 66.2491 21.9842 66.1505 21.7712 66.0123C15.0441 61.8042 8.3171 57.5793 1.59006 53.3543C0.757343 52.8346 0.528755 52.2646 0.741016 51.3089C3.12487 40.9478 5.52505 30.5699 7.92524 20.2088C8.0232 19.8232 8.20281 19.4208 8.4314 19.0855C12.7089 13.0672 17.0027 7.04887 21.2966 1.03054L21.2977 1.029C22.2773 -0.34578 23.3876 -0.34578 24.3673 1.04576C25.3512 2.42475 26.335 3.80287 27.3187 5.18071C30.6283 9.81659 33.9359 14.4496 37.2336 19.1023C37.4948 19.4711 37.6744 19.9406 37.7887 20.3765C40.1563 30.6035 42.5238 40.8305 44.875 51.0742C45.1689 52.3149 44.9729 52.7843 43.928 53.4549C41.7289 54.833 39.5316 56.2111 37.3342 57.5892L37.2687 57.6303C32.8316 60.4131 28.3944 63.196 23.9428 65.9788C23.7293 66.1103 23.488 66.2132 23.237 66.3201C23.1041 66.3767 22.9681 66.4347 22.8325 66.4985ZM22.8644 19.27C22.8198 19.3158 22.782 19.3477 22.7494 19.3752C22.7103 19.4081 22.6788 19.4347 22.6521 19.4712C20.154 23.8135 17.6558 28.1726 15.1903 32.5316C15.076 32.7328 15.0597 33.0681 15.125 33.3028C15.6139 34.9457 16.1043 36.5886 16.5948 38.232L16.596 38.2358C17.7269 42.0247 18.8586 45.8162 19.9744 49.6157C20.1213 50.1019 20.3499 50.1857 20.7908 50.1857L20.8029 50.1856C22.1377 50.1689 23.4563 50.1524 24.7911 50.2025C25.3625 50.2193 25.5911 50.0181 25.7544 49.4816C26.4123 47.2511 27.0758 45.0265 27.7392 42.8029C28.6563 39.7282 29.573 36.6553 30.4731 33.5711C30.5874 33.1855 30.5221 32.6322 30.3262 32.2801C28.6347 29.2679 26.9174 26.2733 25.1993 23.2772C24.5459 22.1377 23.8923 20.9978 23.2399 19.8568C23.1587 19.7139 23.0693 19.5794 22.9774 19.4413C22.9401 19.3852 22.9021 19.3281 22.8644 19.27ZM21.0585 6.99207C21.0967 6.9573 21.1473 6.91122 21.2159 6.84664C21.2159 7.41315 21.2049 7.96517 21.1941 8.50668C21.1701 9.71169 21.1472 10.8654 21.2486 12.0104C21.4445 14.3911 20.8404 16.4365 19.5668 18.4484C18.2262 20.5779 16.9901 22.7818 15.7514 24.9904C15.225 25.929 14.6979 26.8687 14.1623 27.8036C14.048 28.0215 13.9174 28.2227 13.7051 28.5413C13.502 27.877 13.3145 27.2217 13.1297 26.5753C12.75 25.2479 12.3813 23.9584 11.9091 22.7069C11.3213 21.1812 11.5825 20.0747 12.5622 18.7837C14.6168 16.0507 16.5962 13.2492 18.5722 10.4526L18.5738 10.4503C19.361 9.33615 20.1477 8.2228 20.9383 7.11489C20.9595 7.08221 20.9877 7.05657 21.0585 6.99207ZM24.6289 6.9806C24.5963 6.98898 24.5677 6.99736 24.5391 7.00575C24.5105 7.01413 24.482 7.02251 24.4493 7.03089C24.4493 7.67583 24.4483 8.32181 24.4473 8.96831C24.4442 10.9099 24.4411 12.8565 24.4656 14.7934C24.4656 15.2125 24.5963 15.6819 24.7922 16.034C26.4053 18.8873 28.0354 21.7319 29.6641 24.5741L29.6647 24.5751C30.2942 25.6736 30.9239 26.7724 31.5519 27.8705C31.6144 27.9881 31.6901 28.0921 31.7876 28.2259C31.843 28.3019 31.9054 28.3876 31.9764 28.4908C32.1942 27.7592 32.4108 27.0393 32.6251 26.3271L32.6256 26.3253C33.182 24.4757 33.7229 22.6777 34.2296 20.8625C34.295 20.6445 34.099 20.2757 33.9521 20.0577C33.1259 18.8795 32.2916 17.7095 31.455 16.5362L31.4525 16.5327C31.0995 16.0376 30.746 15.542 30.3926 15.0448C28.4823 12.3791 26.5556 9.67985 24.6289 6.9806ZM9.61654 42.2288L9.62183 42.2195C10.6623 40.4015 11.7102 38.5704 12.7744 36.706C14.146 41.3165 15.4522 45.6923 16.7911 50.1352H5.10037C6.60804 47.4855 8.10466 44.8705 9.61654 42.2288ZM32.8904 36.7231C32.4521 38.1911 32.0205 39.6385 31.5929 41.0724L31.5902 41.0813C30.6806 44.1317 29.7891 47.1214 28.8901 50.1188H40.5644C38.8675 47.1555 37.1991 44.2437 35.5073 41.2909L32.8904 36.7231ZM25.788 60.8315C25.7595 60.8106 25.7309 60.7896 25.7064 60.7645C26.1472 59.306 26.5717 57.8475 26.9962 56.389C27.074 56.1334 27.1485 55.8776 27.2228 55.6227C27.3826 55.0746 27.5416 54.529 27.731 53.9912C27.7964 53.79 28.0576 53.505 28.2372 53.505C31.2742 53.4882 34.3111 53.4882 37.4134 53.6559C35.4866 54.8631 33.5639 56.0702 31.6412 57.2774C29.7187 58.4845 27.7962 59.6915 25.8697 60.8986C25.8452 60.8734 25.8166 60.8525 25.788 60.8315ZM19.9587 60.9994C19.9251 60.8406 19.9026 60.7103 19.8831 60.5978C19.8553 60.4372 19.8339 60.313 19.7955 60.1947C19.635 59.656 19.4735 59.1185 19.312 58.5812C18.8654 57.0955 18.4191 55.6108 17.9994 54.1088C17.8525 53.6058 17.6402 53.4549 17.1504 53.4717C15.6569 53.4968 14.1726 53.4937 12.6837 53.4905C12.1867 53.4895 11.6892 53.4884 11.1907 53.4884H8.30071C8.29255 53.5136 8.28438 53.5429 8.27622 53.5723C8.26805 53.6016 8.25989 53.6309 8.25173 53.6561C12.1051 56.0871 15.9584 58.5013 19.9587 60.9994ZM6.51754 41.0345C6.48443 41.0543 6.44244 41.0795 6.39009 41.1154C6.88805 38.9724 7.37945 36.8462 7.86869 34.7293C8.47024 32.1266 9.0687 29.5372 9.67197 26.9485C9.69646 26.9401 9.72095 26.9359 9.74545 26.9317C9.76994 26.9275 9.79443 26.9233 9.81892 26.9149C9.8679 27.0658 9.9187 27.2167 9.9695 27.3676C10.0711 27.6694 10.1727 27.9712 10.2598 28.273C10.343 28.5489 10.4272 28.8248 10.5114 29.101C10.7904 30.016 11.0702 30.9335 11.3211 31.8608C11.4027 32.1458 11.4027 32.5482 11.2721 32.7997C10.249 34.6213 9.21136 36.4281 8.17374 38.2349C7.65487 39.1384 7.13573 40.0424 6.61868 40.9477C6.60817 40.9801 6.57734 40.9986 6.51754 41.0345ZM36.0093 26.9655C35.944 26.9655 35.8787 26.9655 35.8134 26.9487C35.7212 27.2516 35.6284 27.5544 35.5357 27.8574C35.1354 29.1645 34.7344 30.4738 34.3765 31.794C34.2785 32.1628 34.3275 32.6826 34.5071 33.0346C35.3813 34.6227 36.2785 36.1871 37.1777 37.7549L37.1795 37.758C37.5898 38.4733 38.0004 39.1892 38.4095 39.9085C38.5238 40.1098 38.6381 40.3068 38.7524 40.5038C38.8667 40.7008 38.981 40.8977 39.0952 41.0989C39.1294 41.0872 39.1635 41.0674 39.1922 41.0507C39.2046 41.0435 39.216 41.0369 39.2259 41.0318C38.3927 37.2891 37.5285 33.5464 36.6661 29.8122C36.4469 28.8627 36.2278 27.9138 36.0093 26.9655ZM21.1677 53.5218H24.5149C23.9774 55.3114 23.4562 57.0509 22.9349 58.7903L22.9311 58.803C22.8985 58.803 22.8699 58.8072 22.8413 58.8113C22.8128 58.8155 22.7842 58.8197 22.7515 58.8197C22.5208 58.0496 22.29 57.2762 22.0578 56.4981C21.7643 55.5145 21.4686 54.5234 21.1677 53.5218Z" fill="white"/>
</svg>
