<?xml version="1.0" encoding="UTF-8"?>
<svg width="43px" height="67px" viewBox="0 0 43 67" version="1.1" xmlns="http://www.w3.org/2000/svg" xmlns:xlink="http://www.w3.org/1999/xlink">
    <!-- Generator: Sketch 52.5 (67469) - http://www.bohemiancoding.com/sketch -->
    <title>harmony</title>
    <desc>Created with Sketch.</desc>
    <g id="harmony" stroke="none" stroke-width="1" fill="none" fill-rule="evenodd">
        <g id="Group" transform="translate(3.000000, 15.000000)">
            <path d="M7.5,0 C11.6421356,-7.6089797e-16 15,3.35786438 15,7.5 L15,30.5 C15,34.6421356 11.6421356,38 7.5,38 C3.35786438,38 5.07265313e-16,34.6421356 0,30.5 L0,7.5 C-5.07265313e-16,3.35786438 3.35786438,7.6089797e-16 7.5,0 Z M7.5,5 C5.56700338,5 4,6.56700338 4,8.5 L4,20.8924149 L4,25.3892448 L4,30.1666667 C4,32.0996633 5.56700338,33.6666667 7.5,33.6666667 C9.43299662,33.6666667 11,32.0996633 11,30.1666667 L11,21.5836654 L11,18.0084265 L11,8.5 C11,6.56700338 9.43299662,5 7.5,5 Z M30.5,0 C34.6421356,-7.6089797e-16 38,3.35786438 38,7.5 L38,30.5 C38,34.6421356 34.6421356,38 30.5,38 C26.3578644,38 23,34.6421356 23,30.5 L23,7.5 C23,3.35786438 26.3578644,7.6089797e-16 30.5,0 Z M30.5,5 C28.5670034,5 27,6.56700338 27,8.5 L27,30.1666667 C27,32.0996633 28.5670034,33.6666667 30.5,33.6666667 C32.4329966,33.6666667 34,32.0996633 34,30.1666667 L34,8.5 C34,6.56700338 32.4329966,5 30.5,5 Z" id="Combined-Shape" fill="#FFFFFF"></path>
            <path d="M1.63386025,25.9633631 C3.70758772,23.6762306 5.45577389,22.1203425 6.87841877,21.2956987 C9.01238608,20.058733 7.98758455,19.8940783 13.0910314,19.3221518 C18.1944783,18.7502254 20.8501352,19.7583994 24.4888844,19.3221518 C26.9147172,19.0313201 28.8911813,18.3388688 30.4182768,17.2447981 L35.8471108,13.5848144" id="Path-18" stroke="#FFFFFF" stroke-width="3"></path>
        </g>
    </g>
</svg>