<svg width="72" height="25" viewBox="0 0 72 25" fill="none" xmlns="http://www.w3.org/2000/svg">
<path d="M2.82258 5.64516C4.38145 5.64516 5.64516 4.38145 5.64516 2.82258C5.64516 1.26371 4.38145 0 2.82258 0C1.26371 0 0 1.26371 0 2.82258C0 4.38145 1.26371 5.64516 2.82258 5.64516Z" fill="white"/>
<path d="M49.1935 5.64517C50.5297 5.64517 51.6129 4.56199 51.6129 3.22581C51.6129 1.88964 50.5297 0.806458 49.1935 0.806458C47.8574 0.806458 46.7742 1.88964 46.7742 3.22581C46.7742 4.56199 47.8574 5.64517 49.1935 5.64517Z" fill="white"/>
<path d="M29.8388 25C31.175 25 32.2581 23.9168 32.2581 22.5807C32.2581 21.2445 31.175 20.1613 29.8388 20.1613C28.5026 20.1613 27.4194 21.2445 27.4194 22.5807C27.4194 23.9168 28.5026 25 29.8388 25Z" fill="white"/>
<path d="M4.83865 7.25806H0.806396V22.5806H4.83865V7.25806Z" fill="white"/>
<path d="M47.5807 7.01611C46.8549 7.58063 45.8065 8.629 44.5968 9.91932C45 10.7258 45.1613 11.6129 45.1613 12.5C45.1613 15.8064 42.4194 18.5484 39.113 18.5484C38.2259 18.5484 37.4194 18.3871 36.613 17.9838C35.5646 19.1129 34.5162 20.1613 33.7097 20.9677C35.242 21.9355 37.0968 22.5 39.113 22.5C44.6775 22.5 49.1936 17.9839 49.1936 12.4193C49.1936 10.4839 48.6291 8.62902 47.5807 7.01611Z" fill="white"/>
<path d="M34.2742 16.1291C33.5484 15.1613 33.0645 13.871 33.0645 12.5C33.0645 9.19357 35.8064 6.45163 39.1129 6.45163C40.4032 6.45163 41.6129 6.85488 42.5806 7.58068C43.7903 6.29036 44.758 5.24195 45.4032 4.67743C43.7096 3.30646 41.5322 2.5 39.1129 2.5C33.5484 2.5 29.0322 7.01613 29.0322 12.5806C29.0322 15 29.9193 17.2581 31.2903 18.9516C31.9354 18.3065 32.9838 17.3387 34.2742 16.1291Z" fill="white"/>
<path d="M24.1934 22.5807V18.5484H18.5483C15.4031 18.3065 12.9031 15.7258 12.9031 12.5C12.9031 9.27421 15.4031 6.69357 18.5483 6.45163H24.1934V2.41937H18.5483C13.145 2.66131 8.87085 7.01615 8.87085 12.5C8.87085 17.9839 13.145 22.3387 18.5483 22.5807H24.1934Z" fill="white"/>
<path d="M55.6451 22.5807V21.371V12.9032C55.887 9.75809 58.4676 7.25809 61.6934 7.25809C64.9192 7.25809 67.4999 9.75809 67.7418 12.9032V21.371V22.5807H71.7741V12.9032C71.5321 7.50002 67.1773 3.22583 61.6934 3.22583C56.2096 3.22583 51.8547 7.50002 51.6128 12.9032V22.5807H55.6451Z" fill="white"/>
</svg>
