<svg width="53" height="62" viewBox="0 0 53 62" fill="none" xmlns="http://www.w3.org/2000/svg">
<path fill-rule="evenodd" clip-rule="evenodd" d="M52.8623 15.6638L26.5159 0L0 15.6638V46.0558L26.5159 61.5932L52.8623 46.0558V15.6638ZM26.746 10.811L45.5082 21.4816L40.5968 24.3916L26.746 16.6447L17.2071 22.2627L22.4665 25.5416L25.3623 23.8404L29.9913 26.5366L27.5044 28.3733L30.5649 30.2224L33.0319 28.3733L37.6509 31.3033L35.4886 33.2814L46.8558 39.5864L26.746 51.4884L6.16078 39.3289V33.4485L26.746 45.3716L36.605 39.5864L29.9913 35.7502L27.5044 37.3227L23.4967 34.6349L25.3623 33.2814L22.0069 31.3033L20.2868 32.5325L15.417 29.5993L17.2071 28.3733L7.0414 22.2627L26.746 10.811Z" fill="white"/>
</svg>
