<svg width="44" height="44" viewBox="0 0 44 44" fill="none" xmlns="http://www.w3.org/2000/svg">
<path fill-rule="evenodd" clip-rule="evenodd" d="M22.1718 42.7266C33.7697 42.7266 43.1718 33.3245 43.1718 21.7266C43.1718 10.1286 33.7697 0.726562 22.1718 0.726562C10.5738 0.726562 1.17175 10.1286 1.17175 21.7266C1.17175 33.3245 10.5738 42.7266 22.1718 42.7266Z" fill="white" stroke="#54617A"/>
<mask id="mask0" mask-type="alpha" maskUnits="userSpaceOnUse" x="4" y="3" width="37" height="37">
<path fill-rule="evenodd" clip-rule="evenodd" d="M22.1718 39.7266C32.1129 39.7266 40.1718 31.6677 40.1718 21.7266C40.1718 11.7854 32.1129 3.72656 22.1718 3.72656C12.2306 3.72656 4.17175 11.7854 4.17175 21.7266C4.17175 31.6677 12.2306 39.7266 22.1718 39.7266Z" fill="white"/>
</mask>
<g mask="url(#mask0)">
<path fill-rule="evenodd" clip-rule="evenodd" d="M33.0266 15.4262L22.2029 8.99109L11.3094 15.4262V27.912L22.2029 34.2951L33.0266 27.912V15.4262ZM22.2973 13.4325L30.0053 17.8163L27.9876 19.0118L22.2973 15.8291L18.3785 18.1372L20.5392 19.4842L21.7289 18.7853L23.6306 19.893L22.6089 20.6476L23.8662 21.4072L24.8797 20.6476L26.7774 21.8513L25.889 22.6639L30.559 25.2542L22.2973 30.1438L13.8404 25.1484V22.7326L22.2973 27.6309L26.3477 25.2542L23.6306 23.6782L22.6089 24.3242L20.9624 23.22L21.7289 22.6639L20.3504 21.8513L19.6437 22.3563L17.6431 21.1512L18.3785 20.6476L14.2022 18.1372L22.2973 13.4325Z" fill="#54617A"/>
</g>
</svg>
