<?xml version="1.0" encoding="UTF-8"?>
<svg width="80px" height="120px" viewBox="0 0 43 67" version="1.1" xmlns="http://www.w3.org/2000/svg"
     xmlns:xlink="http://www.w3.org/1999/xlink">
    <!-- Generator: Sketch 52.5 (67469) - http://www.bohemiancoding.com/sketch -->
    <title>iotex</title>
    <desc>Created with Sketch.</desc>
    <g id="iotex" stroke="none" stroke-width="1" fill="none" fill-rule="evenodd">
        <path
                d="M4,38.1550562 L4,29 L5.60867416,29 L5.60867416,38.1550562 L4,38.1550562 Z M11.3408603,38.312 C9.23519742,38.312 7.67883787,36.7033258 7.67883787,34.7153708 C7.67883787,32.7404944 9.24827608,31.1056629 11.3670176,31.1056629 C13.4857592,31.1056629 15.0421188,32.7143371 15.0421188,34.7153708 C15.0421188,36.6771685 13.4726806,38.312 11.3408603,38.312 Z M11.3670176,36.9387416 C12.6487255,36.9387416 13.4596019,35.9316854 13.4596019,34.7153708 C13.4596019,33.4990562 12.5833323,32.492 11.3408603,32.492 C10.0722311,32.492 9.26135473,33.4859775 9.26135473,34.7153708 C9.26135473,35.9186067 10.1376244,36.9387416 11.3670176,36.9387416 Z M19.27026,38.1550562 L19.27026,30.4909663 L16.3667993,30.4909663 L16.3667993,29 L23.7954735,29 L23.7954735,30.4909663 L20.8920128,30.4909663 L20.8920128,38.1550562 L19.27026,38.1550562 Z M27.1735024,38.312 C25.1724687,38.312 23.6291878,36.8602697 23.6291878,34.7022921 C23.6291878,32.7274157 25.0286035,31.1056629 27.0034799,31.1056629 C29.2006934,31.1056629 30.3123788,32.8320449 30.3123788,34.82 C30.3123788,34.9246292 30.2993001,35.1862022 30.2862215,35.2646742 L25.2117046,35.2646742 C25.3817271,36.3894382 26.1795249,37.0172135 27.1996597,37.0172135 C27.9713001,37.0172135 28.5206035,36.7294831 29.0699069,36.1932584 L29.9984911,37.0172135 C29.3445586,37.8019326 28.4421316,38.312 27.1735024,38.312 Z M25.198626,34.218382 L28.7429406,34.218382 C28.6383114,33.1982472 28.0366934,32.4004494 26.9904013,32.4004494 C26.022581,32.4004494 25.3424911,33.1459326 25.198626,34.218382 Z M31.5847448,38.1550562 L34.9198009,33.4990562 L31.7155313,29 L33.6119358,29 L35.8876212,32.2827416 L38.1763852,29 L40.0204751,29 L36.8292841,33.4728989 L40.1512616,38.1550562 L38.2548571,38.1550562 L35.8483852,34.6892135 L33.4288346,38.1550562 L31.5847448,38.1550562 Z" id="IoTeX" fill="#fff"></path>
    </g>
</svg>
