<svg width="62" height="63" viewBox="0 0 62 63" fill="none" xmlns="http://www.w3.org/2000/svg">
<path fill-rule="evenodd" clip-rule="evenodd" d="M24.4342 15.0106L30.9094 0C32.5611 2.31245 35.5026 6.19012 38.3427 9.93418L38.3427 9.93428C40.5634 12.8617 42.722 15.7075 44.1538 17.6595C47.3921 22.0744 46.4103 27.2741 45.3311 29.4325L38.856 43.8544C36.9978 41.4387 33.6144 37.0051 30.4836 32.8201L31.7343 30.006C32.9443 31.4931 34.2085 33.0249 35.3441 34.4008L35.3441 34.4009L35.3442 34.4011C36.5277 35.835 37.5714 37.0997 38.2683 37.9679L42.5063 27.4137C43.3074 25.8782 44.0362 22.1791 41.6324 19.0383C40.541 17.6122 38.8192 15.4559 37.0568 13.2488L37.0567 13.2487L37.0567 13.2486C34.908 10.5577 32.6991 7.79129 31.4988 6.18083L26.9943 17.1538L26.989 17.1673C26.6026 18.1547 26.0693 19.5175 26.2305 21.1877L23.5224 21.5262C23.0166 18.7905 23.8454 16.5806 24.4271 15.0296L24.4342 15.0106Z" fill="white"/>
<path fill-rule="evenodd" clip-rule="evenodd" d="M42.082 32.2762C44.0095 32.9953 45.3771 34.3372 45.9699 35.267L53.0023 44.2056C51.9022 44.3763 50.2855 44.6499 48.4523 44.9602L48.4521 44.9602L48.4519 44.9602C44.5381 45.6226 39.6376 46.4519 36.6707 46.8041C32.3257 47.3199 30.4737 45.0081 29.3481 43.6031L29.339 43.5918L22.0766 34.2134C24.0711 33.9767 27.5707 33.4425 30.9749 32.9229L30.9749 32.9229C31.5844 32.8298 32.1909 32.7373 32.7851 32.6469L31.6409 29.7865C30.6961 29.906 29.7238 30.0298 28.7442 30.1545L28.7441 30.1545C24.0823 30.7479 19.2542 31.3626 16.426 31.6403L26.2045 44.741L26.2174 44.7566C27.8187 46.6982 30.4536 49.893 36.4848 49.3006C40.7789 48.8789 47.1079 47.9692 52.1298 47.2474L52.1299 47.2474C54.1802 46.9527 56.0126 46.6894 57.3997 46.5033L49.129 33.8259C48.3063 32.5833 46.46 30.7943 43.8865 29.7498L42.082 32.2762Z" fill="white"/>
<path fill-rule="evenodd" clip-rule="evenodd" d="M20.5485 44.9612L4.28369 46.6042C5.50086 44.0363 7.45834 39.5803 9.34838 35.2778L9.34849 35.2776C10.8263 31.9135 12.2629 28.6432 13.2721 26.4428C15.5547 21.4661 20.5755 19.795 22.9862 19.6881L38.7368 18.3315C37.3508 21.5451 34.618 27.8099 32.228 33.105L30.1895 31.0665C30.8716 29.3552 31.562 27.5903 32.1848 25.9983L32.1848 25.9982C32.8622 24.2666 33.4596 22.7395 33.8793 21.7083L22.5962 23.1385C20.865 23.1853 17.2784 24.3477 15.7032 27.9756C14.988 29.6228 13.9414 32.1758 12.8702 34.789L12.87 34.7895C11.5638 37.9757 10.221 41.2513 9.3976 43.0833L21.1761 41.6822L21.1905 41.6803C22.204 41.5427 23.5891 41.3547 24.9254 40.486L26.5718 42.6812C24.4589 44.3738 22.1779 44.7165 20.5686 44.9582L20.5485 44.9612Z" fill="white"/>
<path fill-rule="evenodd" clip-rule="evenodd" d="M26.0019 15.9345C25.9714 15.9382 25.9409 15.9421 25.9102 15.9461C24.1299 16.1813 21.4023 16.5988 18.6105 17.0261L18.6102 17.0262L18.6102 17.0262C15.2063 17.5472 11.7069 18.0828 9.71249 18.3204L15.6287 25.9538L13.9869 29.0184C13.943 28.9654 13.8999 28.9132 13.8576 28.8618L13.8446 28.8462L4.06079 15.7496C6.88882 15.4707 11.7167 14.8541 16.3782 14.2587L16.3783 14.2587C20.0231 13.7932 23.5662 13.3407 25.9721 13.0727C26.2517 13.0416 26.5275 13.0212 26.7993 13.0107L26.0019 15.9345Z" fill="white"/>
<path fill-rule="evenodd" clip-rule="evenodd" d="M45.9043 34.3642C45.9176 34.3365 45.9308 34.3087 45.9438 34.2807C46.7023 32.6529 47.8161 30.1282 48.9562 27.5441C50.3461 24.3935 51.775 21.1546 52.6465 19.3449L43.0298 20.2318L41.3277 17.2003C41.3959 17.1918 41.4631 17.1836 41.5291 17.1754L41.5492 17.1729L57.8518 15.9604C56.5672 18.4953 54.4926 22.898 52.4895 27.1491L52.4894 27.1492C50.9232 30.4731 49.4007 33.7042 48.3337 35.8772C48.2097 36.1296 48.0788 36.3732 47.9415 36.6081L45.9043 34.3642Z" fill="white"/>
<path fill-rule="evenodd" clip-rule="evenodd" d="M20.3153 42.351C20.3333 42.3759 20.3515 42.4007 20.3698 42.4256C21.4375 43.8695 23.1234 46.0541 24.849 48.2902L24.849 48.2902C26.9528 51.0164 29.1156 53.819 30.2891 55.4491L34.1041 46.5769L37.5806 46.5298C37.5555 46.5938 37.5307 46.6568 37.5063 46.7187L37.4989 46.7376L30.776 61.6388C29.1628 59.2993 26.286 55.3735 23.5083 51.5829L23.5082 51.5828C21.3364 48.619 19.2251 45.7379 17.8259 43.7624C17.6633 43.5329 17.5119 43.3015 17.3711 43.0687L20.3153 42.351Z" fill="white"/>
<path fill-rule="evenodd" clip-rule="evenodd" d="M53.6725 14.2583C49.2238 8.26329 42.4327 4.1106 34.6526 3.15371C34.1919 2.3757 33.6849 1.51402 33.1795 0.651886C42.8075 1.27114 51.212 6.38488 56.3169 13.9169L53.6725 14.2583ZM57.1307 20.4141C58.4426 23.6533 59.165 27.1943 59.165 30.904C59.165 34.9039 58.3251 38.7075 56.8121 42.1483L58.3825 44.3493C60.3907 40.2975 61.5196 35.7326 61.5196 30.904C61.5196 26.2156 60.4553 21.7758 58.5552 17.813C58.059 18.7146 57.567 19.6122 57.1307 20.4141ZM33.6417 58.7601C41.6779 58.0661 48.7421 53.9728 53.389 47.9253C54.2971 47.9326 55.2892 47.9432 56.2733 47.9552C51.0833 55.5709 42.5137 60.6992 32.7225 61.1821L33.6417 58.7601ZM27.3531 58.6019C19.8661 57.5705 13.3251 53.575 8.9523 47.8377L6.40962 48.3515C11.5014 55.5741 19.6693 60.4725 29.0078 61.1411C28.4509 60.2832 27.8806 59.4075 27.3531 58.6019ZM3.24327 30.904C3.24327 34.579 3.95226 38.0884 5.24092 41.3029C4.85903 42.1465 4.40358 43.1412 3.93372 44.1618C1.98308 40.157 0.888672 35.6583 0.888672 30.904C0.888672 26.2871 1.92077 21.9112 3.76682 17.9945L5.40076 20.115C4.01101 23.4349 3.24327 27.0798 3.24327 30.904ZM9.30386 13.5187C13.7463 7.93004 20.2829 4.08066 27.7269 3.15726L28.7993 0.682551C19.4846 1.41357 11.3531 6.35456 6.30654 13.6037C7.37726 13.5761 8.41666 13.5471 9.30386 13.5187Z" fill="white"/>
</svg>
