<svg width="44" height="44" viewBox="0 0 44 44" fill="none" xmlns="http://www.w3.org/2000/svg">
<path fill-rule="evenodd" clip-rule="evenodd" d="M22 43C33.598 43 43 33.598 43 22C43 10.402 33.598 1 22 1C10.402 1 1 10.402 1 22C1 33.598 10.402 43 22 43Z" fill="white" stroke="#54617A"/>
<path fill-rule="evenodd" clip-rule="evenodd" d="M19.4289 16.3736L21.7469 11C22.3382 11.8278 23.3912 13.216 24.4079 14.5563L24.4079 14.5563C25.2028 15.6043 25.9756 16.623 26.4882 17.3218C27.6474 18.9023 27.296 20.7637 26.9096 21.5364L24.5916 26.6992C23.9264 25.8344 22.7153 24.2473 21.5945 22.7491L22.0422 21.7416C22.4754 22.274 22.9279 22.8223 23.3344 23.3149L23.3345 23.3149C23.7581 23.8283 24.1318 24.281 24.3813 24.5919L25.8984 20.8136C26.1852 20.2639 26.4461 18.9397 25.5856 17.8153C25.1949 17.3048 24.5785 16.5329 23.9476 15.7428L23.9476 15.7428C23.1784 14.7794 22.3876 13.7891 21.9579 13.2126L20.3454 17.1407L20.3435 17.1456C20.2052 17.499 20.0142 17.9869 20.0719 18.5849L19.1024 18.7061C18.9214 17.7267 19.2181 16.9356 19.4263 16.3803L19.4289 16.3736Z" fill="#54617A"/>
<path fill-rule="evenodd" clip-rule="evenodd" d="M25.7466 22.5544C26.4366 22.8118 26.9262 23.2922 27.1384 23.6251L29.6559 26.8249C29.262 26.8861 28.6832 26.984 28.0269 27.0951C26.6258 27.3322 24.8715 27.6291 23.8094 27.7552C22.254 27.9398 21.591 27.1122 21.188 26.6093L21.1848 26.6052L18.5849 23.2479C19.2989 23.1632 20.5517 22.9719 21.7703 22.7859L21.7704 22.7859C21.9886 22.7526 22.2057 22.7195 22.4184 22.6871L22.0088 21.6632C21.6706 21.706 21.3225 21.7503 20.9718 21.7949C19.303 22.0073 17.5746 22.2274 16.5621 22.3268L20.0627 27.0166L20.0673 27.0222C20.6405 27.7173 21.5838 28.861 23.7429 28.6489C25.2801 28.4979 27.5458 28.1723 29.3435 27.9139L29.3435 27.9139C30.0775 27.8084 30.7335 27.7141 31.2301 27.6475L28.2693 23.1092C27.9748 22.6644 27.3138 22.0239 26.3925 21.65L25.7466 22.5544Z" fill="#54617A"/>
<path fill-rule="evenodd" clip-rule="evenodd" d="M18.0379 27.0954L12.2153 27.6836C12.6511 26.7643 13.3518 25.1691 14.0284 23.6288L14.0285 23.6288C14.5575 22.4245 15.0718 21.2538 15.433 20.4661C16.2502 18.6845 18.0475 18.0863 18.9106 18.048L24.549 17.5624C24.0528 18.7128 23.0745 20.9555 22.2189 22.8511L21.4892 22.1213C21.7333 21.5087 21.9805 20.877 22.2034 20.307L22.2035 20.3069L22.2035 20.3068C22.446 19.687 22.6598 19.1403 22.8101 18.7712L18.7709 19.2832C18.1512 19.2999 16.8672 19.7161 16.3033 21.0148C16.0473 21.6045 15.6726 22.5185 15.2891 23.454L15.2891 23.454L15.2891 23.454C14.8215 24.5947 14.3408 25.7673 14.046 26.4231L18.2625 25.9216L18.2677 25.9209C18.6305 25.8716 19.1263 25.8043 19.6047 25.4934L20.1941 26.2792C19.4377 26.8851 18.6212 27.0078 18.0451 27.0943L18.0379 27.0954Z" fill="#54617A"/>
<path fill-rule="evenodd" clip-rule="evenodd" d="M19.9902 16.7043C19.9793 16.7057 19.9684 16.707 19.9575 16.7085C19.3201 16.7927 18.3436 16.9421 17.3442 17.0951C16.1256 17.2816 14.8729 17.4734 14.1589 17.5584L16.2768 20.291L15.689 21.3882C15.6733 21.3692 15.6579 21.3505 15.6427 21.3321L15.6381 21.3265L12.1356 16.6381C13.148 16.5383 14.8763 16.3175 16.5451 16.1044L16.5451 16.1044C17.8499 15.9377 19.1183 15.7757 19.9795 15.6798C20.0796 15.6687 20.1784 15.6614 20.2757 15.6576L19.9902 16.7043Z" fill="#54617A"/>
<path fill-rule="evenodd" clip-rule="evenodd" d="M27.115 23.3018C27.1197 23.2919 27.1244 23.2819 27.1291 23.2719C27.4006 22.6892 27.7993 21.7854 28.2075 20.8604L28.2075 20.8603C28.7051 19.7325 29.2166 18.573 29.5286 17.9251L26.086 18.2426L25.4766 17.1574C25.501 17.1544 25.5251 17.1514 25.5487 17.1485L25.5559 17.1476L31.392 16.7135C30.9321 17.621 30.1894 19.1971 29.4724 20.7189L29.4723 20.719C28.9117 21.9089 28.3666 23.0655 27.9846 23.8434C27.9403 23.9338 27.8934 24.021 27.8443 24.1051L27.115 23.3018Z" fill="#54617A"/>
<path fill-rule="evenodd" clip-rule="evenodd" d="M17.9545 26.161C17.961 26.17 17.9675 26.1789 17.9741 26.1878C18.3563 26.7047 18.9599 27.4868 19.5776 28.2872C20.3307 29.2632 21.105 30.2665 21.5251 30.85L22.8908 27.6738L24.1353 27.657C24.1263 27.6799 24.1175 27.7024 24.1087 27.7245L24.1061 27.7313L21.6994 33.0657C21.1219 32.2282 20.092 30.8228 19.0976 29.4658L19.0976 29.4658C18.3201 28.4048 17.5643 27.3734 17.0634 26.6662C17.0052 26.5841 16.951 26.5012 16.9006 26.4179L17.9545 26.161Z" fill="#54617A"/>
<path fill-rule="evenodd" clip-rule="evenodd" d="M29.8958 16.1043C28.3033 13.9582 25.8721 12.4716 23.087 12.129C22.9221 11.8505 22.7406 11.542 22.5597 11.2334C26.0063 11.4551 29.015 13.2857 30.8425 15.9821L29.8958 16.1043ZM31.1338 18.308C31.6034 19.4676 31.862 20.7352 31.862 22.0632C31.862 23.4951 31.5614 24.8568 31.0197 26.0885L31.5819 26.8764C32.3008 25.426 32.7049 23.7918 32.7049 22.0632C32.7049 20.3848 32.3239 18.7954 31.6437 17.3768C31.4661 17.6996 31.29 18.0209 31.1338 18.308ZM22.7251 32.0352C25.6019 31.7868 28.1307 30.3215 29.7943 28.1566C30.1194 28.1592 30.4745 28.163 30.8268 28.1673C28.9689 30.8936 25.9011 32.7294 22.396 32.9023L22.7251 32.0352ZM20.4738 31.9786C17.7936 31.6093 15.4521 30.179 13.8867 28.1252L12.9765 28.3092C14.7992 30.8947 17.7232 32.6482 21.0661 32.8876C20.8667 32.5805 20.6626 32.267 20.4738 31.9786ZM11.8429 22.0632C11.8429 23.3788 12.0967 24.6351 12.558 25.7858C12.4213 26.0878 12.2583 26.4439 12.0901 26.8093C11.3918 25.3756 11 23.7652 11 22.0632C11 20.4104 11.3695 18.844 12.0303 17.4419L12.6152 18.201C12.1177 19.3894 11.8429 20.6942 11.8429 22.0632ZM14.0124 15.8396C15.6028 13.8389 17.9428 12.4608 20.6077 12.1303L20.9916 11.2444C17.6571 11.506 14.7461 13.2749 12.9395 15.87C13.3228 15.8601 13.6948 15.8498 14.0124 15.8396Z" fill="#54617A"/>
</svg>
