<?xml version="1.0" encoding="UTF-8"?>
<svg width="200px" height="312px" viewBox="0 0 200 312" version="1.1" xmlns="http://www.w3.org/2000/svg" xmlns:xlink="http://www.w3.org/1999/xlink">
    <!-- Generator: Sketch 52.5 (67469) - http://www.bohemiancoding.com/sketch -->
    <title>ontology copy 6</title>
    <desc>Created with Sketch.</desc>
    <g id="ontology-copy-6" stroke="none" stroke-width="1" fill="none" fill-rule="evenodd">
        <g id="Group-3" transform="translate(20.000000, 105.000000)" fill="#FFFFFF">
            <path d="M11.4286753,93.4700508 C7.76607148,95.716886 4.12379412,96.0798675 0,95.0251064 C2.31556547,93.1566063 4.3935314,91.4804603 6.47122265,89.8043143 C6.43249255,89.6710569 6.39348777,89.5380892 6.35448299,89.4048319 L2.78691901,89.4048319 C2.76439513,89.2753405 2.74214592,89.1455594 2.71989671,89.0163576 C18.6352204,80.3329017 34.5508188,71.6497354 50.4664173,62.9662794 C50.4438934,62.8393952 50.4213695,62.7119317 50.3991203,62.5850475 L40.8132835,62.5850475 C40.7797724,62.4523695 40.7468106,62.3199812 40.7135741,62.1875929 C42.077368,61.2090203 43.4216595,60.1980024 44.8085267,59.2570894 C51.1154898,54.9798175 57.4161352,50.6909579 63.754412,46.4652507 C71.3666618,41.3904623 79.0382428,36.4147479 86.63978,31.3231575 C93.0577145,27.0238691 99.6404578,23.0516407 106.535514,19.6666137 C107.030765,19.4235638 107.548814,19.2233881 108.069061,19.0460979 C113.650041,17.1445731 117.401642,12.5825359 121.660304,8.73574318 C125.885181,4.91878852 130.353426,1.45119993 135.967642,0.248117611 C139.314088,-0.469154682 142.506986,0.415848086 145.297201,2.29477704 C148.059124,4.15458646 150.593336,6.40026288 153.169025,8.55439728 C155.132449,10.1966495 157.004403,11.9602819 159.056,13.7943089 C158.627771,13.9991197 158.367099,14.131508 158.101207,14.2494118 C155.485689,15.408751 152.861107,16.5460737 150.255478,17.728588 C147.239474,19.0976627 145.176616,21.5243953 143.445573,24.4027545 C140.694088,28.9781175 139.240473,34.1238799 137.473172,39.1242179 C135.207598,45.5350563 132.520389,51.68865 127.127841,55.8262915 C123.628123,58.5111378 119.81829,60.7692709 116.042792,63.0245071 C112.541701,65.1160685 108.892556,66.9301069 105.329662,68.9081098 C104.076016,69.603945 102.888567,70.4315892 101.664311,71.1862315 C94.7346453,75.4571303 95.607858,84.3807392 98.9271098,88.863691 C102.400183,93.5537712 106.463548,97.5259996 112.035188,99.3968173 C113.055081,99.7395205 113.97389,100.449551 114.897645,101.060507 C115.236876,101.284727 115.454424,101.712599 115.805467,102.143657 C112.474953,101.703908 109.373249,100.973889 106.271545,100.974469 C103.164347,100.975048 100.05715,101.705356 96.9686304,102.11295 C97.0326312,100.928987 97.3323088,100.603955 100.347213,98.6954779 C99.4001115,97.5057214 98.5919983,96.2258712 97.539968,95.2333935 C96.1140961,93.8880734 94.5278101,92.7232301 92.9626746,91.5520137 C89.3591274,88.8555797 87.1603016,85.2217091 86.3944894,80.6530091 C86.2392943,79.7274497 85.7618978,79.8105907 85.1419415,79.772931 C81.8735058,79.5753625 78.6067181,79.3389755 75.3399304,79.1159142 C75.3149344,78.9884507 75.2899384,78.8609871 75.265217,78.7335235 C76.9981829,78.1778982 78.7311488,77.6219832 80.46384,77.0663579 C80.4696084,76.9084769 80.475102,76.7508856 80.4808703,76.5932942 C79.5376139,76.3818206 78.6012244,76.0362205 77.6500022,75.9811794 C72.5804795,75.6871441 67.5922626,76.4858193 62.7147423,77.7792849 C55.4029941,79.7181796 48.0794346,81.6819877 40.9074993,84.1156729 C31.5164118,87.302552 22.2678839,90.9578596 12.9575528,94.410674 C12.2389859,94.6771888 11.3652238,95.3388406 11.4286753,93.4700508" id="Fill-1"></path>
        </g>
    </g>
</svg>