<svg width="42" height="42" viewBox="0 0 42 42" fill="none" xmlns="http://www.w3.org/2000/svg">
<mask id="mask0" mask-type="alpha" maskUnits="userSpaceOnUse" x="0" y="0" width="42" height="42">
<path d="M26.7579 15.2425C31.6299 20.1195 31.563 27.9385 26.7873 32.7407C26.7783 32.7505 26.7677 32.7611 26.7579 32.7709L21.2782 38.2506C16.4452 43.0836 8.5821 43.083 3.74979 38.2506C-1.08326 33.4184 -1.08326 25.5544 3.74979 20.7221L6.77552 17.6964C7.5779 16.894 8.95972 17.4273 9.00115 18.5613C9.05399 20.0064 9.31313 21.4582 9.7913 22.8603C9.95324 23.335 9.83753 23.8602 9.48282 24.2149L8.41567 25.282C6.13035 27.5673 6.05867 31.2885 8.32149 33.5961C10.6066 35.9265 14.3627 35.9404 16.6654 33.6377L22.145 28.1588C24.4438 25.8601 24.4342 22.1445 22.145 19.8553C21.8433 19.5541 21.5393 19.3201 21.3018 19.1566C20.9612 18.9227 20.7512 18.5416 20.7353 18.1287C20.703 17.267 21.0083 16.3791 21.6892 15.6982L23.406 13.9813C23.8562 13.5311 24.5625 13.4758 25.0845 13.8402C25.6824 14.2576 26.2423 14.7269 26.7579 15.2425ZM38.2502 3.74966C33.4179 -1.08273 25.5548 -1.08338 20.7217 3.74966L15.242 9.22934C15.2322 9.23912 15.2216 9.24972 15.2127 9.25951C10.437 14.0617 10.3701 21.8808 15.242 26.7578C15.7576 27.2733 16.3176 27.7426 16.9154 28.16C17.4374 28.5243 18.1437 28.469 18.5939 28.0188L20.3107 26.302C20.9915 25.6211 21.2968 24.7332 21.2645 23.8715C21.2487 23.4586 21.0387 23.0775 20.6981 22.8436C20.4606 22.6801 20.1566 22.446 19.8548 22.1448C17.5657 19.8557 17.5561 16.1401 19.8548 13.8413L25.3345 8.36245C27.6372 6.05977 31.3931 6.07363 33.6784 8.40404C35.9412 10.7117 35.8696 14.4328 33.5842 16.7181L32.5171 17.7853C32.1623 18.14 32.0466 18.6651 32.2086 19.1399C32.6867 20.5419 32.9459 21.9938 32.9987 23.4389C33.0402 24.5728 34.422 25.1061 35.2244 24.3037L38.2501 21.278C43.0832 16.4459 43.0832 8.58189 38.2502 3.74966Z" fill="white"/>
</mask>
<g mask="url(#mask0)">
<path d="M26.7579 15.2425C31.6299 20.1195 31.563 27.9385 26.7873 32.7407C26.7783 32.7505 26.7677 32.7611 26.7579 32.7709L21.2782 38.2506C16.4452 43.0836 8.5821 43.083 3.74979 38.2506C-1.08326 33.4184 -1.08326 25.5544 3.74979 20.7221L6.77552 17.6964C7.5779 16.894 8.95972 17.4273 9.00115 18.5613C9.05399 20.0064 9.31313 21.4582 9.7913 22.8603C9.95324 23.335 9.83753 23.8602 9.48282 24.2149L8.41567 25.282C6.13035 27.5673 6.05867 31.2885 8.32149 33.5961C10.6066 35.9265 14.3627 35.9404 16.6654 33.6377L22.145 28.1588C24.4438 25.8601 24.4342 22.1445 22.145 19.8553C21.8433 19.5541 21.5393 19.3201 21.3018 19.1566C20.9612 18.9227 20.7512 18.5416 20.7353 18.1287C20.703 17.267 21.0083 16.3791 21.6892 15.6982L23.406 13.9813C23.8562 13.5311 24.5625 13.4758 25.0845 13.8402C25.6824 14.2576 26.2423 14.7269 26.7579 15.2425ZM38.2502 3.74966C33.4179 -1.08273 25.5548 -1.08338 20.7217 3.74966L15.242 9.22934C15.2322 9.23912 15.2216 9.24972 15.2127 9.25951C10.437 14.0617 10.3701 21.8808 15.242 26.7578C15.7576 27.2733 16.3176 27.7426 16.9154 28.16C17.4374 28.5243 18.1437 28.469 18.5939 28.0188L20.3107 26.302C20.9915 25.6211 21.2968 24.7332 21.2645 23.8715C21.2487 23.4586 21.0387 23.0775 20.6981 22.8436C20.4606 22.6801 20.1566 22.446 19.8548 22.1448C17.5657 19.8557 17.5561 16.1401 19.8548 13.8413L25.3345 8.36245C27.6372 6.05977 31.3931 6.07363 33.6784 8.40404C35.9412 10.7117 35.8696 14.4328 33.5842 16.7181L32.5171 17.7853C32.1623 18.14 32.0466 18.6651 32.2086 19.1399C32.6867 20.5419 32.9459 21.9938 32.9987 23.4389C33.0402 24.5728 34.422 25.1061 35.2244 24.3037L38.2501 21.278C43.0832 16.4459 43.0832 8.58189 38.2502 3.74966Z" fill="#919AA3"/>
</g>
</svg>
