<svg width="266" height="51" viewBox="0 0 266 51" fill="none" xmlns="http://www.w3.org/2000/svg">
<path fill-rule="evenodd" clip-rule="evenodd" d="M44.7755 2.42908C43.9076 0.925958 42.3038 0 40.5682 0H16.7615C15.0258 0 13.422 0.92596 12.5542 2.42908L0.650868 23.0463C-0.216957 24.5494 -0.216955 26.4013 0.650869 27.9044L12.5542 48.5216C13.422 50.0247 15.0258 50.9507 16.7615 50.9507H40.5682C42.3038 50.9507 43.9076 50.0247 44.7755 48.5216L56.6788 27.9044C57.5466 26.4013 57.5466 24.5494 56.6788 23.0463L44.7755 2.42908ZM13.0114 23.7875L14.6958 23.8074L27.2874 23.8144C27.5601 23.8152 27.7274 23.7223 27.8477 23.5003C27.8992 23.4051 29.3196 20.9338 31.1299 17.7842C34.3752 12.1381 38.8735 4.31199 38.985 4.08629C39.2678 3.51391 39.2604 3.15046 38.5105 3.0811C38.2027 3.05269 37.8926 3.03644 37.5836 3.03628C36.7527 3.0359 35.9219 3.0353 35.091 3.03471H35.0908C31.7554 3.03232 28.42 3.02993 25.0847 3.04108C23.1392 3.04758 21.193 3.06887 19.2487 3.13421C17.3024 3.19962 15.7242 4.06299 14.5234 5.57321C13.9765 6.26086 4.76973 22.3655 4.52232 23.0341C4.31796 23.5863 4.42246 23.6867 4.9998 23.6934C7.88992 23.7268 10.78 23.761 13.0114 23.7875ZM52.4651 29.1518C51.9263 30.1549 43.2308 44.9008 42.7593 45.5093C42.5769 45.7448 42.4248 45.681 42.289 45.4463C42.0762 45.0784 41.2066 43.5823 40.0351 41.567C36.8217 36.0386 31.3372 26.6028 30.9095 25.8302C30.8331 25.692 30.8389 25.4374 30.9161 25.2967C31.3849 24.4427 41.6236 6.56337 42.1045 5.72988C42.2973 5.39585 42.5734 5.3823 42.8528 5.66214C43.6641 6.47442 51.8593 20.7188 52.6384 22.359C53.1175 23.3678 53.2652 24.52 53.3087 25.7467C53.2264 26.8718 53.0482 28.0666 52.4651 29.1518ZM14.494 45.4147C16.045 47.3047 18.1106 48.0954 20.4629 48.0854L35.4779 47.9496C35.5606 47.9495 35.6432 47.9499 35.7259 47.9504C35.9013 47.9512 36.0766 47.9521 36.252 47.9486C36.4234 47.9451 36.5948 47.9422 36.7663 47.9392C37.4071 47.9281 38.0479 47.917 38.6874 47.8818C38.8408 47.8733 39.0947 47.7211 39.1116 47.607C39.1495 47.3518 39.1325 47.0467 39.0207 46.8195C38.8996 46.5736 36.7084 42.8593 34.295 38.7684C31.3186 33.7231 28.0043 28.1049 27.8184 27.7137C27.7768 27.6263 27.6553 27.5261 27.566 27.5212C27.2649 27.5047 6.46647 27.3191 5.00912 27.34C4.78269 27.3432 4.50587 27.375 4.44696 27.7206C4.35039 28.2862 4.58083 28.7522 4.81047 29.2167C4.9043 29.4064 4.99799 29.5959 5.06919 29.7918C5.20861 30.1754 13.9426 44.7427 14.494 45.4147Z" fill="#1C273B"/>
<path fill-rule="evenodd" clip-rule="evenodd" d="M14.0032 2.76267L22.3806 18.1192L25.2997 16.3904L17.0257 1.01123L14.0032 2.76267Z" fill="url(#paint0_linear)"/>
<path fill-rule="evenodd" clip-rule="evenodd" d="M54.8013 23.7695L37.3087 23.6516L37.4056 27.0428L54.8678 27.2621L54.8013 23.7695Z" fill="url(#paint1_linear)"/>
<path fill-rule="evenodd" clip-rule="evenodd" d="M16.3314 49.284L25.1798 34.194L22.1945 32.5822L13.2734 47.5953L16.3314 49.284Z" fill="url(#paint2_linear)"/>
<path fill-rule="evenodd" clip-rule="evenodd" d="M70.8997 38.759V12.9349H90.3785V17.989H76.5441V23.2276H88.7184V28.2818H76.5441V33.7048H90.5629V38.759H70.8997ZM102.841 38.9065L95.0572 18.9851H100.997L105.424 32.2292L109.888 18.9851H115.716L107.932 38.9065H102.841ZM129.397 39.2017C123.457 39.2017 119.067 35.0329 119.067 28.9089C119.067 23.2645 123.088 18.6162 128.843 18.6162C135.447 18.6162 138.472 23.7441 138.472 29.3516C138.472 29.7943 138.435 30.3108 138.398 30.8273H124.638C125.191 33.3728 126.962 34.7009 129.471 34.7009C131.352 34.7009 132.717 34.1106 134.266 32.6719L137.476 35.5125C135.631 37.7998 132.975 39.2017 129.397 39.2017ZM124.564 27.3226H133.012C132.68 24.814 131.204 23.1169 128.843 23.1169C126.519 23.1169 125.007 24.7771 124.564 27.3226ZM144.811 38.759V18.9851H150.418V22.9694C151.562 20.2394 153.407 18.4686 156.727 18.6162V24.4819H156.432C152.706 24.4819 150.418 26.7323 150.418 31.4544V38.759H144.811ZM169.337 39.1279C166.57 39.1279 163.472 38.2056 160.852 36.1397L163.25 32.4505C165.39 34 167.64 34.8116 169.485 34.8116C171.108 34.8116 171.846 34.2213 171.846 33.2621C171.846 32.0447 169.928 31.6389 167.751 30.9749C164.984 30.1632 161.848 28.872 161.848 24.9615C161.848 20.9403 165.095 18.69 169.079 18.69C171.588 18.69 174.318 19.5385 176.457 20.9772L174.318 24.8509C172.362 23.7072 170.407 23.0063 168.968 23.0063C167.603 23.0063 166.902 23.5965 166.902 24.445C166.902 25.5518 168.784 26.0683 170.924 26.8061C173.691 27.7284 176.9 29.0565 176.9 32.7457C176.9 37.1357 173.617 39.1279 169.337 39.1279ZM189.4 39.091C185.969 39.091 183.645 37.726 183.645 33.1515V23.781H181.284V18.9851H183.645V13.9309H189.252V18.9851H193.901V23.781H189.252V32.2292C189.252 33.5204 189.806 34.1475 191.06 34.1475C192.093 34.1475 193.015 33.8893 193.827 33.4466V37.9474C192.646 38.6483 191.281 39.091 189.4 39.091ZM205.81 39.1279C202.084 39.1279 199.022 36.9882 199.022 33.0039C199.022 28.6876 202.305 26.6954 206.991 26.6954C208.983 26.6954 210.421 27.0275 211.823 27.507V27.175C211.823 24.8509 210.385 23.5596 207.581 23.5596C205.441 23.5596 203.929 23.9655 202.121 24.6295L200.719 20.3501C202.896 19.3909 205.035 18.7637 208.392 18.7637C211.454 18.7637 213.668 19.5754 215.07 20.9772C216.546 22.4529 217.21 24.6295 217.21 27.2857V38.759H211.786V36.6193C210.422 38.1318 208.54 39.1279 205.81 39.1279ZM207.507 35.2543C210.126 35.2543 211.897 33.8155 211.897 31.7865V30.7904C210.938 30.3477 209.684 30.0526 208.319 30.0526C205.921 30.0526 204.445 31.0117 204.445 32.8563C204.445 34.3689 205.699 35.2543 207.507 35.2543ZM224.212 38.759V11.8281H229.82V26.1789L236.387 18.9851H243.101L235.575 26.7692L243.359 38.759H236.94L231.775 30.6797L229.82 32.7457V38.759H224.212ZM256.671 39.2017C250.731 39.2017 246.341 35.0329 246.341 28.9089C246.341 23.2645 250.362 18.6162 256.117 18.6162C262.721 18.6162 265.746 23.7441 265.746 29.3516C265.746 29.7943 265.709 30.3108 265.672 30.8273H251.912C252.465 33.3728 254.236 34.7009 256.744 34.7009C258.626 34.7009 259.991 34.1106 261.54 32.6719L264.75 35.5125C262.905 37.7998 260.249 39.2017 256.671 39.2017ZM251.838 27.3226H260.286C259.954 24.814 258.478 23.1169 256.117 23.1169C253.793 23.1169 252.28 24.7771 251.838 27.3226Z" fill="#1C273B"/>
<defs>
<linearGradient id="paint0_linear" x1="16.9885" y1="11.621" x2="22.4619" y2="15.8711" gradientUnits="userSpaceOnUse">
<stop stop-color="#1C273B"/>
<stop offset="1" stop-color="#1C273B" stop-opacity="0"/>
</linearGradient>
<linearGradient id="paint1_linear" x1="47.72" y1="21.4841" x2="40.0718" y2="24.8839" gradientUnits="userSpaceOnUse">
<stop stop-color="#1C273B"/>
<stop offset="1" stop-color="#1C273B" stop-opacity="0"/>
</linearGradient>
<linearGradient id="paint2_linear" x1="21.9662" y1="42.2248" x2="22.9409" y2="35.9861" gradientUnits="userSpaceOnUse">
<stop stop-color="#1C273B"/>
<stop offset="1" stop-color="#1C273B" stop-opacity="0"/>
</linearGradient>
</defs>
</svg>
