<svg width="143" height="27" viewBox="0 0 143 27" fill="none" xmlns="http://www.w3.org/2000/svg">
<path fill-rule="evenodd" clip-rule="evenodd" d="M24.2115 1.28723C23.7423 0.490688 22.875 0 21.9365 0H9.06348C8.12496 0 7.25773 0.490689 6.78847 1.28723L0.351945 12.2128C-0.117316 13.0093 -0.117315 13.9907 0.351946 14.7872L6.78847 25.7128C7.25773 26.5093 8.12496 27 9.06348 27H21.9365C22.875 27 23.7423 26.5093 24.2115 25.7128L30.6481 14.7872C31.1173 13.9907 31.1173 13.0093 30.6481 12.2128L24.2115 1.28723ZM7.03566 12.6056L7.94651 12.6161L14.7552 12.6198C14.9026 12.6202 14.9931 12.571 15.0581 12.4534C15.086 12.4029 15.8541 11.0933 16.833 9.42429C18.5878 6.43227 21.0201 2.28503 21.0805 2.16542C21.2334 1.86211 21.2294 1.66951 20.8239 1.63275C20.6574 1.6177 20.4897 1.60908 20.3226 1.609C19.8734 1.60879 19.4241 1.60848 18.9749 1.60816H18.9747C17.1712 1.6069 15.3676 1.60563 13.5641 1.61154C12.5121 1.61499 11.4597 1.62627 10.4084 1.66089C9.35598 1.69556 8.50256 2.15308 7.85325 2.95338C7.55755 3.31778 2.57915 11.852 2.44537 12.2063C2.33486 12.4989 2.39137 12.5522 2.70355 12.5557C4.26633 12.5734 5.82911 12.5915 7.03566 12.6056ZM28.3696 15.4483C28.0782 15.9798 23.3763 23.794 23.1213 24.1165C23.0227 24.2413 22.9405 24.2075 22.867 24.0831C22.752 23.8882 22.2817 23.0953 21.6483 22.0273C19.9107 19.0977 16.945 14.0975 16.7137 13.688C16.6724 13.6148 16.6756 13.4799 16.7173 13.4054C16.9708 12.9528 22.5072 3.47809 22.7673 3.0364C22.8715 2.85939 23.0208 2.85221 23.1719 3.00051C23.6106 3.43095 28.042 10.9794 28.4633 11.8486C28.7224 12.3832 28.8022 12.9937 28.8258 13.6438C28.7813 14.24 28.6849 14.8732 28.3696 15.4483ZM7.8374 24.0663C8.67604 25.0679 9.79301 25.4869 11.0649 25.4816L19.1841 25.4096C19.2287 25.4096 19.2734 25.4098 19.3181 25.4101C19.413 25.4105 19.5078 25.411 19.6026 25.4091C19.6953 25.4073 19.788 25.4057 19.8807 25.4041C20.2272 25.3983 20.5737 25.3924 20.9195 25.3737C21.0024 25.3692 21.1398 25.2885 21.1489 25.2281C21.1694 25.0929 21.1602 24.9312 21.0998 24.8108C21.0343 24.6805 19.8494 22.7122 18.5444 20.5443C16.935 17.8707 15.1428 14.8935 15.0423 14.6862C15.0198 14.6398 14.9541 14.5867 14.9058 14.5842C14.743 14.5754 3.49663 14.477 2.70859 14.4881C2.58615 14.4898 2.43647 14.5067 2.40461 14.6898C2.3524 14.9895 2.477 15.2365 2.60118 15.4826C2.65191 15.5832 2.70257 15.6836 2.74107 15.7874C2.81646 15.9907 7.5392 23.7102 7.8374 24.0663Z" fill="#1C273B"/>
<path fill-rule="evenodd" clip-rule="evenodd" d="M8 0.92138L12.4496 9L14 8.09053L9.60533 0L8 0.92138Z" fill="url(#paint0_linear)"/>
<path fill-rule="evenodd" clip-rule="evenodd" d="M29.4889 12.3243L20.0761 12.2609L20.1282 14.0857L29.5247 14.2037L29.4889 12.3243Z" fill="url(#paint1_linear)"/>
<path fill-rule="evenodd" clip-rule="evenodd" d="M8.78807 26.0541L13.5495 17.9341L11.9431 17.0668L7.14257 25.1455L8.78807 26.0541Z" fill="url(#paint2_linear)"/>
<path fill-rule="evenodd" clip-rule="evenodd" d="M38 20.7574V6.60647H48.4968V9.37601H41.0417V12.2466H47.6022V15.0162H41.0417V17.9879H48.5962V20.7574H38ZM55.2129 20.8383L51.0181 9.92183H54.2189L56.6045 17.1792L59.0101 9.92183H62.1512L57.9564 20.8383H55.2129ZM69.5233 21C66.3225 21 63.9568 18.7156 63.9568 15.3598C63.9568 12.2668 66.1237 9.71968 69.2251 9.71968C72.7837 9.71968 74.4138 12.5296 74.4138 15.6024C74.4138 15.845 74.394 16.128 74.3741 16.4111H66.9587C67.2569 17.8059 68.2112 18.5337 69.563 18.5337C70.5769 18.5337 71.3125 18.2102 72.1475 17.4218L73.8771 18.9784C72.8831 20.2318 71.4517 21 69.5233 21ZM66.9189 14.4906H71.4716C71.2926 13.1159 70.4974 12.186 69.2251 12.186C67.9726 12.186 67.1575 13.0957 66.9189 14.4906ZM77.8298 20.7574V9.92183H80.8516V12.1051C81.4679 10.6092 82.4619 9.63881 84.2511 9.71968V12.934H84.0921C82.0842 12.934 80.8516 14.1671 80.8516 16.7547V20.7574H77.8298ZM91.0467 20.9596C89.5557 20.9596 87.8857 20.4542 86.4742 19.3221L87.7664 17.3005C88.9195 18.1496 90.1322 18.5943 91.1262 18.5943C92.001 18.5943 92.3986 18.2709 92.3986 17.7453C92.3986 17.0782 91.3648 16.8558 90.1919 16.4919C88.7008 16.0472 87.011 15.3396 87.011 13.1968C87.011 10.9933 88.7605 9.76011 90.9076 9.76011C92.2594 9.76011 93.7306 10.2251 94.8836 11.0135L93.7306 13.1361C92.6769 12.5094 91.6232 12.1253 90.8479 12.1253C90.1123 12.1253 89.7346 12.4488 89.7346 12.9137C89.7346 13.5202 90.7485 13.8032 91.9016 14.2075C93.3926 14.7129 95.1222 15.4407 95.1222 17.4623C95.1222 19.8679 93.3528 20.9596 91.0467 20.9596ZM101.858 20.9394C100.009 20.9394 98.7568 20.1914 98.7568 17.6846V12.5499H97.4844V9.92183H98.7568V7.15229H101.779V9.92183H104.284V12.5499H101.779V17.1792C101.779 17.8868 102.077 18.2305 102.753 18.2305C103.309 18.2305 103.806 18.0889 104.244 17.8464V20.3127C103.608 20.6968 102.872 20.9394 101.858 20.9394ZM110.701 20.9596C108.693 20.9596 107.043 19.7871 107.043 17.6038C107.043 15.2385 108.813 14.1469 111.338 14.1469C112.411 14.1469 113.186 14.3288 113.942 14.5916V14.4097C113.942 13.1361 113.167 12.4286 111.656 12.4286C110.503 12.4286 109.687 12.6509 108.713 13.0148L107.958 10.6698C109.131 10.1442 110.284 9.80054 112.093 9.80054C113.743 9.80054 114.936 10.2453 115.691 11.0135C116.487 11.8221 116.844 13.0148 116.844 14.4704V20.7574H113.922V19.5849C113.186 20.4137 112.173 20.9596 110.701 20.9596ZM111.616 18.8369C113.027 18.8369 113.982 18.0485 113.982 16.9367V16.3908C113.465 16.1482 112.789 15.9865 112.053 15.9865C110.761 15.9865 109.966 16.5121 109.966 17.5229C109.966 18.3518 110.642 18.8369 111.616 18.8369ZM120.618 20.7574V6H123.64V13.8639L127.179 9.92183H130.797L126.741 14.1873L130.936 20.7574H127.477L124.694 16.3302L123.64 17.4623V20.7574H120.618ZM138.109 21C134.909 21 132.543 18.7156 132.543 15.3598C132.543 12.2668 134.71 9.71968 137.811 9.71968C141.37 9.71968 143 12.5296 143 15.6024C143 15.845 142.98 16.128 142.96 16.4111H135.545C135.843 17.8059 136.797 18.5337 138.149 18.5337C139.163 18.5337 139.899 18.2102 140.734 17.4218L142.463 18.9784C141.469 20.2318 140.038 21 138.109 21ZM135.505 14.4906H140.058C139.879 13.1159 139.084 12.186 137.811 12.186C136.559 12.186 135.744 13.0957 135.505 14.4906Z" fill="#1C273B"/>
<defs>
<linearGradient id="paint0_linear" x1="9.58559" y1="5.58151" x2="12.4717" y2="7.84414" gradientUnits="userSpaceOnUse">
<stop stop-color="#1C273B"/>
<stop offset="1" stop-color="#1C273B" stop-opacity="0"/>
</linearGradient>
<linearGradient id="paint1_linear" x1="25.6784" y1="11.0945" x2="21.5629" y2="12.924" gradientUnits="userSpaceOnUse">
<stop stop-color="#1C273B"/>
<stop offset="1" stop-color="#1C273B" stop-opacity="0"/>
</linearGradient>
<linearGradient id="paint2_linear" x1="11.8202" y1="22.2556" x2="12.3447" y2="18.8985" gradientUnits="userSpaceOnUse">
<stop stop-color="#1C273B"/>
<stop offset="1" stop-color="#1C273B" stop-opacity="0"/>
</linearGradient>
</defs>
</svg>
