<svg width="30" height="25" viewBox="0 0 30 25" fill="none" xmlns="http://www.w3.org/2000/svg">
<path fill-rule="evenodd" clip-rule="evenodd" d="M29.5336 4.56947C29.5353 4.57114 29.5371 4.57281 29.539 4.57432C29.582 4.60819 29.5962 4.66802 29.5665 4.71657L20.5842 19.2673L14.1265 8.80628L19.2722 0.469935C19.4568 0.171322 19.7974 0 20.1397 0C20.2224 0 20.3048 0.012701 20.3854 0.0333047C20.4497 0.0496748 20.5131 0.0699964 20.5734 0.100196L29.5115 4.55541L29.5217 4.56049C29.5264 4.56274 29.53 4.56613 29.5336 4.56947ZM11.2923 16.3969V6.90755L19.7531 20.6141L11.2923 16.3969ZM21.0243 21.2481L27.9888 24.7195C28.895 25.1713 29.6297 24.8549 29.6297 24.0133V7.30758L21.0243 21.2481ZM1.09398 0.236524L9.82341 4.58787C9.85597 4.60396 9.87664 4.63726 9.87664 4.67339V24.0127C9.87664 24.6314 9.54142 25 9.06352 25C8.89393 25 8.70622 24.9534 8.50917 24.8552L0.820481 21.0229C0.369188 20.798 0 20.2024 0 19.6995V0.910522C0 0.415749 0.268115 0.120804 0.650326 0.120804C0.786224 0.120804 0.936277 0.158061 1.09398 0.236524Z" fill="white"/>
<mask id="mask0" mask-type="alpha" maskUnits="userSpaceOnUse" x="0" y="0" width="30" height="26">
<path fill-rule="evenodd" clip-rule="evenodd" d="M1.09398 0.236569L9.82341 4.58792C9.85597 4.604 9.87664 4.63731 9.87664 4.67344V24.0128C9.87664 24.6314 9.54142 25 9.06352 25C8.89393 25 8.70622 24.9535 8.50917 24.8553L0.820481 21.023C0.369188 20.798 0 20.2025 0 19.6995V0.910567C0 0.415794 0.268115 0.12085 0.650326 0.12085C0.786224 0.12085 0.936277 0.158106 1.09398 0.236569ZM29.8168 5.12539C29.8185 5.12706 29.8203 5.12873 29.8222 5.13024C29.8652 5.16411 29.8794 5.22394 29.8497 5.27249L20.8674 19.8233L14.4097 9.3622L19.5554 1.02585C19.74 0.727239 20.0806 0.555917 20.4229 0.555917C20.5056 0.555917 20.588 0.568618 20.6687 0.589222C20.7329 0.605592 20.7963 0.625914 20.8566 0.656114L29.7947 5.11133L29.8049 5.11641C29.8096 5.11866 29.8132 5.12204 29.8168 5.12537L29.8168 5.12539ZM11.2923 16.3969V6.90755L19.7531 20.6141L11.2923 16.3969ZM21.0243 21.2481L27.9888 24.7195C28.895 25.1713 29.6297 24.8549 29.6297 24.0133V7.30758L21.0243 21.2481Z" fill="white"/>
</mask>
<g mask="url(#mask0)">
</g>
</svg>
