<?xml version="1.0" encoding="utf-8"?>
<!-- Generator: Adobe Illustrator 23.0.0, SVG Export Plug-In . SVG Version: 6.00 Build 0)  -->
<svg version="1.1" id="Layer_1" xmlns="http://www.w3.org/2000/svg" xmlns:xlink="http://www.w3.org/1999/xlink" x="0px" y="0px"
	 width="66.7px" height="29.4px" viewBox="0 0 66.7 29.4" style="enable-background:new 0 0 66.7 29.4;" xml:space="preserve">
<style type="text/css">
	.st0{fill:#ffffff;}
</style>
<circle class="st0" cx="4.8" cy="24.4" r="4.8"/>
<path class="st0" d="M62,0.6c-2.6,0-4.8,2.1-4.8,4.8c0,3.8-0.6,4.8-4.8,4.8H52c-2.4,0.2-4.3,2.2-4.3,4.7V15c0,3.7-0.7,4.6-4.8,4.6
	c-0.2,0-0.4,0-0.5,0.1C40,20,38.1,22,38.1,24.4c0,2.6,2.1,4.8,4.8,4.8c2.5,0,4.6-2,4.7-4.4v-0.4c0-3.4,1.1-4.7,4.7-4.8h0.1
	c2.5,0,4.6-2,4.7-4.5v-0.3c0-3.5,1.1-4.8,4.8-4.8c2.6,0,4.8-2.1,4.8-4.8C66.7,2.7,64.6,0.6,62,0.6z M33.8,10.2h-0.4
	c-4.2,0-4.8-1-4.8-4.8c0-2.6-2.1-4.8-4.8-4.8c-2.6,0-4.8,2.1-4.8,4.8c0,3.8-0.6,4.7-4.8,4.7h-0.4c-2.4,0.2-4.3,2.2-4.3,4.7
	c0,2.6,2.1,4.8,4.8,4.8c2.5,0,4.6-2,4.7-4.4v-0.3c0-3.5,1.1-4.8,4.8-4.8s4.8,1.3,4.8,4.7c0,2.6,2.1,4.8,4.8,4.8s4.8-2.1,4.8-4.8
	C38.1,12.4,36.2,10.4,33.8,10.2z"/>
</svg>
