<?xml version="1.0" encoding="UTF-8"?>
<svg width="43px" height="67px" viewBox="0 0 43 67" version="1.1" xmlns="http://www.w3.org/2000/svg" xmlns:xlink="http://www.w3.org/1999/xlink">
    <!-- Generator: Sketch 52.5 (67469) - http://www.bohemiancoding.com/sketch -->
    <title>Artboard</title>
    <desc>Created with Sketch.</desc>
    <g id="Artboard" stroke="none" stroke-width="1" fill="none" fill-rule="evenodd">
        <path d="M22.9664871,40.8870812 C23.8333636,35.9524689 25.4998724,32.5305921 27.9660136,30.6214509 C30.4321547,28.7123098 33.9936244,28.0869937 38.6504225,28.7455028 C39.1010962,31.6768532 37.9118049,34.5786839 35.0825486,37.450995 C32.2532923,40.3233061 28.2146051,41.4686682 22.9664871,40.8870812 Z M9.14603184,23.9288858 C13.2483039,21.0525622 16.8463359,19.8113296 19.9401277,20.2051881 C23.0339195,20.5990466 25.9944241,22.6752207 28.8216414,26.4337104 C27.0675381,28.8251626 24.1746779,30.0361109 20.1430609,30.0665552 C16.1114439,30.0969995 12.4457676,28.0511098 9.14603184,23.9288858 Z M26.579229,11 C29.629941,12.6885071 31.504047,14.560444 32.201547,16.6158109 C32.899047,18.6711777 32.5035729,21.1564177 31.0151247,24.0715309 C28.9840927,23.703908 27.344066,22.263826 26.0950444,19.7512849 C24.8460228,17.2387438 25.0074176,14.3216488 26.579229,11 Z M23.0578127,43.9646417 C26.4089466,43.0014174 29.057799,42.9998836 31.0043698,43.9600405 C32.9509406,44.9201973 34.4286283,46.9571698 35.4374327,50.0709579 C33.7413276,51.2471657 31.5633618,51.388548 28.9035353,50.4951048 C26.2437088,49.6016616 24.2951346,47.4248406 23.0578127,43.9646417 Z M2,36.9323482 C3.58101018,33.8245666 5.38640145,31.8862725 7.41617381,31.1174662 C9.44594617,30.3486598 11.9434741,30.6571594 14.9087575,32.0429649 C14.6122406,34.0855894 13.230272,35.7748753 10.7628516,37.1108224 C8.29543131,38.4467696 5.37448076,38.3872782 2,36.9323482 Z M15.6992023,12.3221378 C18.1787505,12.40715 19.9716014,12.988535 21.0777549,14.066293 C22.1839083,15.144051 22.7359948,16.8474076 22.7340143,19.1763628 C21.3276159,19.5993829 19.8226707,19.2161726 18.2191788,18.0267317 C16.6156869,16.8372909 15.7756947,14.9357596 15.6992023,12.3221378 Z M3.4724104,47.6646859 C3.42753653,45.1840866 3.91429427,43.3632654 4.93268361,42.2022224 C5.95107296,41.0411794 7.62320117,40.4007027 9.94906826,40.2807924 C10.4451139,41.6631243 10.1411915,43.1860627 9.03730099,44.8496076 C7.93341052,46.5131525 6.07844699,47.4515119 3.4724104,47.6646859 Z M32.3855723,41.5057406 C34.2569772,39.8768667 35.964689,39.0793435 37.5087076,39.1131709 C39.0527262,39.1469984 40.6181831,40.0162324 42.2050783,41.7208731 C41.4650026,42.9894119 40.1030066,43.7355197 38.1190901,43.9591966 C36.1351737,44.1828735 34.2240011,43.3650548 32.3855723,41.5057406 Z M14.7129573,54.420557 C11.8366336,50.3182849 10.5954011,46.720253 10.9892595,43.6264612 C11.383118,40.5326693 13.4592921,37.5721648 17.2177819,34.7449475 C19.609234,36.4990508 20.8201823,39.3919109 20.8506266,43.4235279 C20.881071,47.4551449 18.8351812,51.1208213 14.7129573,54.420557 Z" id="Combined-Shape-Copy-2" fill="#FFFFFF"></path>
    </g>
</svg>