<?xml version="1.0" encoding="UTF-8"?>
<svg width="43px" height="67px" viewBox="0 0 43 67" version="1.1" xmlns="http://www.w3.org/2000/svg" xmlns:xlink="http://www.w3.org/1999/xlink">
    <!-- Generator: Sketch 52.5 (67469) - http://www.bohemiancoding.com/sketch -->
    <title>pivex</title>
    <desc>Created with Sketch.</desc>
    <g id="pivex" stroke="none" stroke-width="1" fill="none" fill-rule="evenodd">
        <path d="M4.51988115,16.4434582 L4.51988115,17.3872615 C4.51988115,24.9567943 4.53686475,32.526327 4.50471721,40.0955566 C4.49865164,41.5012533 4.83559426,42.7735074 5.73026639,43.8055648 C6.75686475,44.989868 7.83865984,46.1635566 9.06087295,47.1343516 C12.695668,50.0215648 16.8190451,52.0759746 21.091332,53.8368107 C21.3576107,53.9469008 21.770373,53.9071713 22.0372582,53.7767615 C24.7139959,52.4705402 27.4231844,51.2183025 30.0262254,49.7753025 C32.5546598,48.3735484 34.8990041,46.6776139 36.7844877,44.4333516 C37.9148074,43.0880074 38.499832,41.5861713 38.4877008,39.7743844 C38.4376598,32.3267697 38.4667746,24.8782451 38.4667746,17.430327 L38.4667746,16.4680238 C38.166832,16.401909 37.9348238,16.3385238 37.6985697,16.3003107 C33.2024631,15.5745648 28.7084795,14.8318352 24.2069139,14.141573 C23.0217008,13.959909 21.7897828,13.7545893 20.6170041,13.8883352 C17.9721107,14.1904008 15.3505697,14.6971795 12.719627,15.1211631 C10.0174139,15.5566713 7.3155041,15.9927861 4.51988115,16.4434582 Z M3.02380738,15.0498926 C5.60046311,14.5070238 8.13284016,13.9687041 10.6673402,13.4406959 C14.0582992,12.7343598 17.4477418,12.0189254 20.8468893,11.3526221 C21.3685287,11.2504172 21.9520369,11.321991 22.4827746,11.430868 C28.0115451,12.5651303 33.5333402,13.7348762 39.063627,14.8612533 C39.7272008,14.9965156 39.9458648,15.2221549 39.942832,15.9333434 C39.9118975,23.96295 39.9097746,31.9928598 39.9340369,40.023073 C39.9391926,41.7126385 39.474873,43.2187205 38.545627,44.6050074 C36.9352172,47.0075811 34.7361434,48.7944992 32.3990779,50.423409 C29.1664303,52.6758598 25.703291,54.5216139 22.0885123,56.0798598 C21.7709795,56.2166385 21.2984713,56.2866959 21.0091434,56.1505238 C16.3480533,53.9614582 11.8264713,51.5273434 7.81045492,48.2613352 C6.27859426,47.0151631 4.91323361,45.6070402 3.93788934,43.863491 C3.3480123,42.8086877 2.99984836,41.6877697 2.99984836,40.4691959 C3.0007582,32.1724008 3.00045492,23.8756057 3.00166803,15.5788107 C3.00166803,15.4350566 3.01319262,15.2909992 3.02380738,15.0498926 Z M23.0030189,27.2331131 L14.0286992,27.2331131 L14.0286992,28.9563426 C14.0887484,28.9997115 14.1084615,29.0260967 14.1281746,29.0260967 C16.9589779,29.047023 19.7900844,29.0703754 22.6208877,29.0706787 C22.7482648,29.0706787 22.9754205,28.8699082 22.985732,28.7485967 C23.0275844,28.2512197 23.0030189,27.7486869 23.0030189,27.2331131 Z M18.273691,35.4043508 C18.61215,35.3888836 18.8484041,35.3682607 19.0849615,35.3679574 C20.8312402,35.3646213 22.5778221,35.3813016 24.3237975,35.3621951 C28.1071992,35.3206459 30.8770434,33.0751705 31.4478139,29.3936705 C32.2193549,24.4150475 29.0749615,21.0908098 24.9024533,20.9261295 C21.899691,20.8075475 18.8893467,20.8836705 15.8823385,20.8769984 C15.7934779,20.8769984 15.7043139,20.9240066 15.6090844,20.9506951 L15.6090844,23.0199656 C15.9581582,23.0199656 16.2468795,23.0202689 16.5352975,23.0199656 C19.2029369,23.0166295 21.8726992,22.9435393 24.5370025,23.0320967 C26.5313631,23.0985148 28.0977975,24.0289738 28.7916992,25.9975557 C29.8452893,28.9866705 28.7625844,33.2859492 23.7918467,33.2213508 C21.3910926,33.1904164 18.9894287,33.2268098 16.5883713,33.2089164 C16.0873549,33.2049738 15.9199451,33.3626787 15.9238877,33.8761295 C15.9505762,37.2228098 15.9469369,40.5704 15.9563385,43.9170803 C15.9572484,44.1503016 15.9833303,44.3838262 15.998191,44.6282689 L18.273691,44.6282689 L18.273691,35.4043508 Z M6.04155164,18.0443754 C7.87729754,17.754441 9.66755164,17.4726951 11.4575025,17.1894328 C14.6385926,16.6856869 17.8099779,16.1012689 21.0059287,15.7197443 C22.1453467,15.5835721 23.350273,15.8962525 24.5139533,16.0764 C28.3907648,16.6768918 32.2621172,17.3092279 36.1352893,17.9324656 C36.3691172,17.9700721 36.5990025,18.0331541 36.8789287,18.095023 L36.8789287,18.9896951 C36.8789287,25.8037607 36.8570926,32.6181295 36.8968221,39.4321951 C36.9050107,40.8754984 36.5392566,42.1747443 35.5760434,43.1691951 C34.2683057,44.5190885 32.8868713,45.8350148 31.3704779,46.936523 C28.4787156,49.0367279 25.274273,50.6089246 21.9633795,51.9494164 C21.7004369,52.0558672 21.3255844,52.0959 21.074773,51.9921787 C17.074527,50.3393098 13.2237975,48.4016623 9.84436311,45.6597197 C8.87417459,44.8724082 8.01165,43.9310311 7.20037951,42.9747934 C6.36333033,41.9885311 6.0194123,40.8084738 6.02608443,39.4752607 C6.05974836,32.6372361 6.04155164,25.7986049 6.04155164,18.960277 L6.04155164,18.0443754 Z" id="Combined-Shape" fill="#FFFFFF"></path>
    </g>
</svg>