<svg width="61" height="66" viewBox="0 0 61 66" fill="none" xmlns="http://www.w3.org/2000/svg">
<path fill-rule="evenodd" clip-rule="evenodd" d="M30.1632 37.255C32.5132 37.255 34.4182 35.35 34.4182 33C34.4182 30.65 32.5132 28.745 30.1632 28.745C27.8132 28.745 25.9082 30.65 25.9082 33C25.9082 35.35 27.8132 37.255 30.1632 37.255Z" fill="white"/>
<path fill-rule="evenodd" clip-rule="evenodd" d="M30.1632 22.6934C32.5132 22.6934 34.4182 20.7884 34.4182 18.4384C34.4182 16.0884 32.5132 14.1834 30.1632 14.1834C27.8132 14.1834 25.9082 16.0884 25.9082 18.4384C25.9082 20.7884 27.8132 22.6934 30.1632 22.6934Z" fill="white"/>
<path fill-rule="evenodd" clip-rule="evenodd" d="M30.1632 8.51003C32.5132 8.51003 34.4182 6.60499 34.4182 4.25501C34.4182 1.90503 32.5132 0 30.1632 0C27.8132 0 25.9082 1.90503 25.9082 4.25501C25.9082 6.60499 27.8132 8.51003 30.1632 8.51003Z" fill="white"/>
<path fill-rule="evenodd" clip-rule="evenodd" d="M30.1632 51.6275C32.5132 51.6275 34.4182 49.7225 34.4182 47.3725C34.4182 45.0225 32.5132 43.1175 30.1632 43.1175C27.8132 43.1175 25.9082 45.0225 25.9082 47.3725C25.9082 49.7225 27.8132 51.6275 30.1632 51.6275Z" fill="white"/>
<path fill-rule="evenodd" clip-rule="evenodd" d="M30.1632 66C32.5132 66 34.4182 64.095 34.4182 61.745C34.4182 59.395 32.5132 57.49 30.1632 57.49C27.8132 57.49 25.9082 59.395 25.9082 61.745C25.9082 64.095 27.8132 66 30.1632 66Z" fill="white"/>
<path fill-rule="evenodd" clip-rule="evenodd" d="M43.4013 44.063C45.7512 44.063 47.6563 42.158 47.6563 39.808C47.6563 37.458 45.7512 35.553 43.4013 35.553C41.0513 35.553 39.1462 37.458 39.1462 39.808C39.1462 42.158 41.0513 44.063 43.4013 44.063Z" fill="white"/>
<path fill-rule="evenodd" clip-rule="evenodd" d="M43.4013 58.4355C45.7512 58.4355 47.6563 56.5305 47.6563 54.1805C47.6563 51.8305 45.7512 49.9255 43.4013 49.9255C41.0513 49.9255 39.1462 51.8305 39.1462 54.1805C39.1462 56.5305 41.0513 58.4355 43.4013 58.4355Z" fill="white"/>
<path fill-rule="evenodd" clip-rule="evenodd" d="M43.212 15.5072C45.562 15.5072 47.4671 13.6021 47.4671 11.2521C47.4671 8.90217 45.562 6.99713 43.212 6.99713C40.8621 6.99713 38.957 8.90217 38.957 11.2521C38.957 13.6021 40.8621 15.5072 43.212 15.5072Z" fill="white"/>
<path fill-rule="evenodd" clip-rule="evenodd" d="M43.212 29.8797C45.562 29.8797 47.4671 27.9746 47.4671 25.6246C47.4671 23.2747 45.562 21.3696 43.212 21.3696C40.8621 21.3696 38.957 23.2747 38.957 25.6246C38.957 27.9746 40.8621 29.8797 43.212 29.8797Z" fill="white"/>
<path fill-rule="evenodd" clip-rule="evenodd" d="M17.4928 15.5072C19.8428 15.5072 21.7478 13.6021 21.7478 11.2521C21.7478 8.90217 19.8428 6.99713 17.4928 6.99713C15.1428 6.99713 13.2378 8.90217 13.2378 11.2521C13.2378 13.6021 15.1428 15.5072 17.4928 15.5072Z" fill="white"/>
<path fill-rule="evenodd" clip-rule="evenodd" d="M17.4928 29.8797C19.8428 29.8797 21.7478 27.9746 21.7478 25.6246C21.7478 23.2747 19.8428 21.3696 17.4928 21.3696C15.1428 21.3696 13.2378 23.2747 13.2378 25.6246C13.2378 27.9746 15.1428 29.8797 17.4928 29.8797Z" fill="white"/>
<path fill-rule="evenodd" clip-rule="evenodd" d="M4.25501 22.8825C6.60499 22.8825 8.51003 20.9775 8.51003 18.6275C8.51003 16.2775 6.60499 14.3725 4.25501 14.3725C1.90503 14.3725 0 16.2775 0 18.6275C0 20.9775 1.90503 22.8825 4.25501 22.8825Z" fill="white"/>
<path fill-rule="evenodd" clip-rule="evenodd" d="M4.25501 37.255C6.60499 37.255 8.51003 35.35 8.51003 33C8.51003 30.65 6.60499 28.745 4.25501 28.745C1.90503 28.745 0 30.65 0 33C0 35.35 1.90503 37.255 4.25501 37.255Z" fill="white"/>
<path fill-rule="evenodd" clip-rule="evenodd" d="M17.4928 44.063C19.8428 44.063 21.7478 42.158 21.7478 39.808C21.7478 37.458 19.8428 35.553 17.4928 35.553C15.1428 35.553 13.2378 37.458 13.2378 39.808C13.2378 42.158 15.1428 44.063 17.4928 44.063Z" fill="white"/>
<path fill-rule="evenodd" clip-rule="evenodd" d="M17.4928 58.4355C19.8428 58.4355 21.7478 56.5305 21.7478 54.1805C21.7478 51.8305 19.8428 49.9255 17.4928 49.9255C15.1428 49.9255 13.2378 51.8305 13.2378 54.1805C13.2378 56.5305 15.1428 58.4355 17.4928 58.4355Z" fill="white"/>
<path fill-rule="evenodd" clip-rule="evenodd" d="M4.25501 51.4384C6.60499 51.4384 8.51003 49.5333 8.51003 47.1834C8.51003 44.8334 6.60499 42.9283 4.25501 42.9283C1.90503 42.9283 0 44.8334 0 47.1834C0 49.5333 1.90503 51.4384 4.25501 51.4384Z" fill="white"/>
<path fill-rule="evenodd" clip-rule="evenodd" d="M55.8825 37.0659C58.2324 37.0659 60.1375 35.1608 60.1375 32.8109C60.1375 30.4609 58.2324 28.5558 55.8825 28.5558C53.5325 28.5558 51.6274 30.4609 51.6274 32.8109C51.6274 35.1608 53.5325 37.0659 55.8825 37.0659Z" fill="white"/>
<path fill-rule="evenodd" clip-rule="evenodd" d="M55.8825 22.8825C58.2324 22.8825 60.1375 20.9775 60.1375 18.6275C60.1375 16.2775 58.2324 14.3725 55.8825 14.3725C53.5325 14.3725 51.6274 16.2775 51.6274 18.6275C51.6274 20.9775 53.5325 22.8825 55.8825 22.8825Z" fill="white"/>
<path fill-rule="evenodd" clip-rule="evenodd" d="M55.8825 51.4384C58.2324 51.4384 60.1375 49.5333 60.1375 47.1834C60.1375 44.8334 58.2324 42.9283 55.8825 42.9283C53.5325 42.9283 51.6274 44.8334 51.6274 47.1834C51.6274 49.5333 53.5325 51.4384 55.8825 51.4384Z" fill="white"/>
</svg>
