<svg width="39" height="48" viewBox="0 0 39 48" fill="none" xmlns="http://www.w3.org/2000/svg">
<path d="M39 24.7742V18.5621C39 16.8395 37.8913 15.3493 36.2416 14.8545L31.2581 13.3594V12.1833C32.6602 11.2027 33.5807 9.57913 33.5807 7.74269V5.41935C33.5807 2.43107 31.1496 0 28.1613 0C25.173 0 22.742 2.43107 22.742 5.41935V7.74194C22.742 9.57913 23.6624 11.2027 25.0645 12.1826V13.3586L20.6727 14.6764C19.0245 13.2025 16.9245 12.3871 14.695 12.3871C12.4744 12.3871 10.4429 13.2006 8.87301 14.5411C8.08505 15.2139 7.86179 15.5451 7.66371 15.7942C6.65589 17.0617 5.98452 18.6045 5.78077 20.2923C5.50003 21.6774 5.21928 24.183 5.50003 25.5C5.71928 26.683 6.50003 29 9.50003 29.5C9.71373 30.764 10.5847 31.9238 11.5 32.5C11.1046 34.152 3.49998 34.0806 2 36.5C0.499984 38.0806 1.06454 42.9595 1.06454 44.9032V48H28.9355V44.9032C28.9355 44.4768 29.2833 44.129 29.7097 44.129H39V37.1428C39 35.4201 37.8913 33.9299 36.2416 33.4351L31.2581 31.94V30.764C32.6602 29.7834 33.5807 28.1598 33.5807 26.3233V24.0008C33.5807 21.0125 31.1496 18.5814 28.1613 18.5814C26.6454 18.5814 25.2751 19.2085 24.2903 20.2148V19.4811C24.2903 17.952 23.4594 16.5756 22.1628 15.8479L25.5114 14.8427C25.962 15.4272 26.8337 16.2581 28.1613 16.2581C29.4889 16.2581 30.3607 15.4272 30.8113 14.842L35.797 16.3378C36.7867 16.6342 37.4516 17.5286 37.4516 18.5621V24.7742H39ZM23.1196 28.2981C23.5139 29.2995 24.1943 30.1557 25.0645 30.764V31.94L20.0818 33.4351C19.9177 33.4839 19.7582 33.5474 19.6025 33.6177L18.871 33.4491V31.9238C19.6985 31.2588 20.3506 30.3856 20.7509 29.3846C21.6427 29.3063 22.4789 28.9268 23.1196 28.2981ZM15 33.2903C15.8215 33.2903 16.6051 33.1263 17.3226 32.8344V33.6774L15 35.4194L12.6774 33.6774V32.8344C13.3949 33.1263 14.1786 33.2903 15 33.2903ZM11.7267 34.8999L13.6142 36.316L11.6727 37.4811L11.1816 35.0262L11.7267 34.8999ZM14.1446 41.0323H15.8555L16.4577 46.4516H13.5424L14.1446 41.0323ZM15.9901 39.4839H14.0092L13.5647 38.1506L15 37.2898L16.4346 38.1506L15.9901 39.4839ZM16.3859 36.316L18.2733 34.8999L18.8184 35.0255L18.3274 37.4803L16.3859 36.316ZM22.1383 27.1108C21.8702 27.4049 21.5296 27.6109 21.1603 27.7364C21.1819 27.5258 21.1936 27.3126 21.1936 27.0968V23.3921C22.0267 23.7082 22.6467 24.4412 22.7302 25.317C22.7937 25.9835 22.5839 26.6197 22.1383 27.1108ZM19.6452 27.0968C19.6452 29.6586 17.5619 31.7419 15 31.7419C12.4382 31.7419 10.3549 29.6586 10.3549 27.0968V23.2258H12.9833C14.6704 23.2258 16.3121 22.8047 17.78 22.0003L18.3924 23.2258H19.6452V27.0968ZM8.83975 27.7364C8.47042 27.6109 8.12981 27.4049 7.86179 27.1108C7.4161 26.6205 7.2063 25.9835 7.2698 25.3178C7.35335 24.4419 7.97331 23.7082 8.80648 23.3929V27.0968C8.80648 27.3126 8.8182 27.5258 8.83975 27.7364ZM2.61293 41.0323V40.0823C2.61293 38.2693 3.84717 36.7186 5.61368 36.3104L9.67215 35.3736L10.5847 39.9383L12.2045 38.9667L12.6627 40.3416L11.9845 46.4516H8.03228V40.2581H6.48389V46.4516H2.61293V44.9032C2.61293 42.5806 2.61293 43.5 2.61293 41.0323ZM35.7963 34.9185C36.7867 35.2148 37.4516 36.1092 37.4516 37.1428V42.5806H34.3549V37.1613H32.8065V42.5806H29.7097C28.4293 42.5806 27.3871 43.6229 27.3871 44.9032V46.4516H23.5162V40.2581H21.9678V46.4516H18.0155L17.3366 40.3416L17.7948 38.9667L19.4146 39.9383L20.3271 35.3736L24.3864 36.3104C26.1529 36.7186 27.3871 38.2693 27.3871 40.0823V41.0323H28.9355V40.0823C28.9355 37.5446 27.2083 35.3729 24.7349 34.8017L22.5756 34.3038L25.5114 33.4226C25.962 34.0078 26.8337 34.8387 28.1613 34.8387C29.4889 34.8387 30.3607 34.0078 30.8113 33.4226L35.7963 34.9185ZM29.7097 32.3033C29.5177 32.5997 28.9843 33.2903 28.1613 33.2903C27.3368 33.2903 26.8027 32.5966 26.6129 32.3033V31.5136C27.1036 31.6607 27.6234 31.7419 28.1613 31.7419C28.6992 31.7419 29.219 31.6607 29.7097 31.5136V32.3033ZM28.1613 30.1935C26.027 30.1935 24.2903 28.4569 24.2903 26.3226V25.5484H24.744C25.4184 25.5484 26.0625 25.3548 26.6129 24.9934C27.1633 25.3548 27.8075 25.5484 28.4819 25.5484H32.0323V26.3226C32.0323 28.4569 30.2956 30.1935 28.1613 30.1935ZM28.1613 20.129C30.2956 20.129 32.0323 21.8657 32.0323 24H28.4819C27.9901 24 27.5077 23.8004 27.1603 23.4526L26.6129 22.9052L26.0656 23.4526C25.7181 23.8004 25.2358 24 24.744 24H24.2903C24.2903 21.8657 26.027 20.129 28.1613 20.129ZM22.742 22.5174C22.057 21.9987 21.206 21.6774 20.2863 21.6774H19.3496L18.3973 19.7729L17.6677 20.2591C16.2751 21.1875 14.6556 21.6774 12.9833 21.6774H9.71373C8.794 21.6774 7.94307 21.9987 7.25809 22.5174V21.3724C7.25809 17.2723 10.5949 13.9355 14.695 13.9355C16.6815 13.9355 18.5497 14.7089 19.954 16.1133L20.7755 16.9347L20.949 16.9929C22.0211 17.3506 22.742 18.35 22.742 19.4803V22.5174ZM28.1613 1.54839C30.2956 1.54839 32.0323 3.28503 32.0323 5.41935H31.5787C31.0868 5.41935 30.6045 5.21976 30.2571 4.87198L29.7097 4.3246L29.1623 4.87198C28.8149 5.21976 28.3326 5.41935 27.8408 5.41935H24.2903C24.2903 3.28503 26.027 1.54839 28.1613 1.54839ZM24.2903 7.74194V6.96774H27.8408C28.5151 6.96774 29.1593 6.77419 29.7097 6.4128C30.2601 6.77419 30.9043 6.96774 31.5787 6.96774H32.0323V7.74194C32.0323 9.87626 30.2956 11.6129 28.1613 11.6129C26.027 11.6129 24.2903 9.87626 24.2903 7.74194ZM28.1613 14.7097C27.3368 14.7097 26.8027 14.016 26.6129 13.7227V12.933C27.1036 13.08 27.6234 13.1613 28.1613 13.1613C28.6992 13.1613 29.219 13.08 29.7097 12.933V13.7219C29.5177 14.019 28.9843 14.7097 28.1613 14.7097Z" fill="#7B8AA4"/>
<path d="M8.80647 0H10.3549V1.54839H8.80647V0Z" fill="#7B8AA4"/>
<path d="M8.80647 3.0968H10.3549V11.6129H8.80647V3.0968Z" fill="#7B8AA4"/>
<path d="M19.6452 0H21.1936V1.54839H19.6452V0Z" fill="#7B8AA4"/>
<path d="M19.6452 3.0968H21.1936V11.6129H19.6452V3.0968Z" fill="#7B8AA4"/>
<path d="M11.9032 3.0968H13.4516V8.51616H11.9032V3.0968Z" fill="#7B8AA4"/>
<path d="M11.9032 10.0645H13.4516V11.6128H11.9032V10.0645Z" fill="#7B8AA4"/>
<path d="M16.5484 3.0968H18.0968V8.51616H16.5484V3.0968Z" fill="#7B8AA4"/>
<path d="M16.5484 10.0645H18.0968V11.6128H16.5484V10.0645Z" fill="#7B8AA4"/>
</svg>
