<svg width="44" height="44" viewBox="0 0 44 44" fill="none" xmlns="http://www.w3.org/2000/svg">
<path fill-rule="evenodd" clip-rule="evenodd" d="M22 43C33.598 43 43 33.598 43 22C43 10.402 33.598 1 22 1C10.402 1 1 10.402 1 22C1 33.598 10.402 43 22 43Z" fill="white" stroke="#54617A"/>
<path fill-rule="evenodd" clip-rule="evenodd" d="M18.1514 11.6666H24.7373L30.1882 15.5277L32.3455 22.113L30.2257 28.2492L33.2434 30.4882L32.9786 30.8451L29.9093 28.5679L24.7406 32.4444H18.1514L12.6974 28.5812L10.6559 21.6626L12.701 15.5273L18.1514 11.6666ZM29.8514 27.9715L31.8765 22.1092L29.8116 15.8055L24.5958 12.1111H18.6666L21.7415 16.211L24.8645 21.6763L27.1677 26.7213L29.7803 27.9187L29.8514 27.9715ZM18.1741 12.1952L21.3694 16.4556L24.4686 21.8792L26.8321 27.0564L29.5332 28.2944L24.7191 31.905L21.7437 27.5483L18.42 21.7871L16.1666 16.8296L13.341 15.6186L18.1741 12.1952ZM13.0232 15.966L15.8332 17.1703L18.0243 21.9906L21.3672 27.785L24.2457 32H18.2928L13.0801 28.3076L11.1217 21.6707L13.0232 15.966Z" fill="#54617A"/>
<path fill-rule="evenodd" clip-rule="evenodd" d="M13.2214 21.8896L12.6676 15.6865L13.1103 15.647L13.6675 21.8883L13.1104 28.5741L12.6675 28.5372L13.2214 21.8896Z" fill="#54617A"/>
<path fill-rule="evenodd" clip-rule="evenodd" d="M24.8302 11.2075L27.1212 16.8204L30.4693 15.435L30.0092 21.8774L32.2232 21.8889L32.2209 22.3334L29.9563 22.3216L30.2218 28.3236L29.7778 28.3432L29.5366 22.8914L27.1994 27.0984L24.9815 32.2156L24.5737 32.0388L26.6379 27.2762L21.6909 27.9829C21.6764 28.0068 21.6626 28.0291 21.6496 28.0498C21.613 28.1085 21.5809 28.1578 21.5553 28.1938C21.5431 28.211 21.5288 28.2301 21.514 28.2468C21.5071 28.2546 21.4949 28.2678 21.4787 28.2809C21.4721 28.2863 21.4616 28.2942 21.4478 28.3023C21.4331 28.317 21.411 28.3409 21.3808 28.3754C21.3171 28.4479 21.2279 28.555 21.1181 28.6904C20.899 28.9605 20.6038 29.3355 20.2788 29.7536C19.629 30.5892 18.8635 31.5924 18.3567 32.2614L18.2743 32.1989L18.0192 32.3129L15.7763 27.2932L12.979 28.5364L12.7985 28.1303L15.5841 26.8923L13.2034 22.2343L10.8876 22.2223L10.8899 21.7778L13.1947 21.7898L15.7996 17.0142L18.0176 11.8019L18.4265 11.9759L16.3618 16.8282L21.428 16.0176L24.8302 11.2075ZM21.1264 16.5159L16.1427 17.3133L13.6995 21.7925L18.0303 21.815L21.1264 16.5159ZM17.8168 22.2583L13.7038 22.2369L15.8778 26.4904L17.8168 22.2583ZM16.2548 27.2746L18.2294 31.6939C18.7219 31.0456 19.3677 30.2014 19.9279 29.4808C20.2534 29.0621 20.5509 28.6842 20.773 28.4104C20.8837 28.2739 20.9773 28.1614 21.0467 28.0822C21.081 28.0431 21.1122 28.0091 21.138 27.9836C21.1485 27.9732 21.1611 27.9612 21.1748 27.9499L16.2548 27.2746ZM21.9806 27.4926L26.8592 26.7957L29.3465 22.3184L24.8698 22.2951C24.3168 23.3077 23.535 24.7302 22.8661 25.9278C22.5277 26.5337 22.2177 27.0829 21.9806 27.4926ZM24.3647 22.2925C23.8221 23.2849 23.101 24.5959 22.4781 25.7111C22.1227 26.3474 21.7998 26.919 21.5604 27.3312C21.5172 27.4056 21.4769 27.4746 21.4396 27.5376L16.2154 26.8206L18.3045 22.2609L24.3647 22.2925ZM24.6021 21.8492L18.5435 21.8177L21.6721 16.4631L26.7268 17.1748L24.6021 21.8492ZM25.0891 21.8518L29.4507 21.8745L27.0219 17.5997L25.0891 21.8518ZM26.595 16.7075L24.725 12.1259L21.9473 16.053L26.595 16.7075ZM27.3174 17.2202L29.9748 16.1206L29.6083 21.2521L27.3174 17.2202Z" fill="#54617A"/>
<circle cx="24.6666" cy="32.1111" r="0.888889" fill="#54617A"/>
<circle cx="21.5555" cy="27.6667" r="0.888889" fill="#54617A"/>
<circle cx="27.1111" cy="27" r="0.888889" fill="#54617A"/>
<circle cx="32.2221" cy="22.1111" r="0.888889" fill="#54617A"/>
<circle cx="33.3333" cy="31" r="1.33333" fill="#54617A"/>
<path d="M30.6666 21.8889C30.6666 22.3798 30.2686 22.7778 29.7777 22.7778C29.2868 22.7778 28.8888 22.3798 28.8888 21.8889C28.8888 21.398 29.2868 21 29.7777 21C30.2686 21 30.6666 21.398 30.6666 21.8889Z" fill="#54617A"/>
<path d="M27.9999 17C27.9999 17.4909 27.602 17.8889 27.1111 17.8889C26.6201 17.8889 26.2222 17.4909 26.2222 17C26.2222 16.5091 26.6201 16.1111 27.1111 16.1111C27.602 16.1111 27.9999 16.5091 27.9999 17Z" fill="#54617A"/>
<path d="M30.889 15.6667C30.889 16.1576 30.491 16.5556 30.0001 16.5556C29.5092 16.5556 29.1112 16.1576 29.1112 15.6667C29.1112 15.1758 29.5092 14.7778 30.0001 14.7778C30.491 14.7778 30.889 15.1758 30.889 15.6667Z" fill="#54617A"/>
<path d="M25.5555 21.8889C25.5555 22.3798 25.1575 22.7778 24.6666 22.7778C24.1757 22.7778 23.7777 22.3798 23.7777 21.8889C23.7777 21.398 24.1757 21 24.6666 21C25.1575 21 25.5555 21.398 25.5555 21.8889Z" fill="#54617A"/>
<path d="M19.1112 21.8889C19.1112 22.3798 18.7132 22.7778 18.2223 22.7778C17.7313 22.7778 17.3334 22.3798 17.3334 21.8889C17.3334 21.398 17.7313 21 18.2223 21C18.7132 21 19.1112 21.398 19.1112 21.8889Z" fill="#54617A"/>
<path d="M14.2222 21.8889C14.2222 22.3798 13.8243 22.7778 13.3333 22.7778C12.8424 22.7778 12.4445 22.3798 12.4445 21.8889C12.4445 21.398 12.8424 21 13.3333 21C13.8243 21 14.2222 21.398 14.2222 21.8889Z" fill="#54617A"/>
<path d="M11.7778 21.8889C11.7778 22.3798 11.3798 22.7778 10.8889 22.7778C10.398 22.7778 10 22.3798 10 21.8889C10 21.398 10.398 21 10.8889 21C11.3798 21 11.7778 21.398 11.7778 21.8889Z" fill="#54617A"/>
<path d="M13.7778 28.3333C13.7778 28.8243 13.3798 29.2222 12.8889 29.2222C12.398 29.2222 12 28.8243 12 28.3333C12 27.8424 12.398 27.4445 12.8889 27.4445C13.3798 27.4445 13.7778 27.8424 13.7778 28.3333Z" fill="#54617A"/>
<path d="M16.6667 27C16.6667 27.4909 16.2687 27.8889 15.7778 27.8889C15.2869 27.8889 14.8889 27.4909 14.8889 27C14.8889 26.5091 15.2869 26.1111 15.7778 26.1111C16.2687 26.1111 16.6667 26.5091 16.6667 27Z" fill="#54617A"/>
<path d="M16.8889 17C16.8889 17.4909 16.4909 17.8889 16 17.8889C15.5091 17.8889 15.1111 17.4909 15.1111 17C15.1111 16.5091 15.5091 16.1111 16 16.1111C16.4909 16.1111 16.8889 16.5091 16.8889 17Z" fill="#54617A"/>
<path d="M22.4444 16.3333C22.4444 16.8243 22.0464 17.2222 21.5555 17.2222C21.0646 17.2222 20.6666 16.8243 20.6666 16.3333C20.6666 15.8424 21.0646 15.4445 21.5555 15.4445C22.0464 15.4445 22.4444 15.8424 22.4444 16.3333Z" fill="#54617A"/>
<path d="M13.7778 15.6667C13.7778 16.1576 13.3798 16.5556 12.8889 16.5556C12.398 16.5556 12 16.1576 12 15.6667C12 15.1758 12.398 14.7778 12.8889 14.7778C13.3798 14.7778 13.7778 15.1758 13.7778 15.6667Z" fill="#54617A"/>
<path d="M19.1112 11.8889C19.1112 12.3798 18.7132 12.7778 18.2223 12.7778C17.7313 12.7778 17.3334 12.3798 17.3334 11.8889C17.3334 11.398 17.7313 11 18.2223 11C18.7132 11 19.1112 11.398 19.1112 11.8889Z" fill="#54617A"/>
<path d="M25.5555 11.8889C25.5555 12.3798 25.1575 12.7778 24.6666 12.7778C24.1757 12.7778 23.7777 12.3798 23.7777 11.8889C23.7777 11.398 24.1757 11 24.6666 11C25.1575 11 25.5555 11.398 25.5555 11.8889Z" fill="#54617A"/>
</svg>
