<svg width="68" height="61" viewBox="0 0 68 61" fill="none" xmlns="http://www.w3.org/2000/svg">
<path fill-rule="evenodd" clip-rule="evenodd" d="M22.4712 1.83784H40.627L55.6539 12.4819L61.6009 30.6358L55.7571 47.5519L64.0763 53.7242L63.3462 54.7082L54.885 48.4305L40.6362 59.1171H22.4712L7.43608 48.4672L1.80798 29.3942L7.44577 12.4809L22.4712 1.83784ZM54.7253 46.7864L60.3082 30.6254L54.6155 13.2478L40.237 3.06306H23.8914L32.3684 14.3656L40.9777 29.432L47.327 43.3399L54.5293 46.641L54.7253 46.7864ZM22.5338 3.29495L31.3424 15.0398L39.8863 29.9915L46.4019 44.2637L53.8482 47.6766L40.5767 57.6302L32.3744 45.6196L23.2117 29.7376L16.9996 16.071L9.21009 12.7326L22.5338 3.29495ZM8.33416 13.6902L16.0806 17.0101L22.1208 30.2985L31.3364 46.2722L39.2718 57.8919H22.8612L8.49097 47.713L3.09203 29.4166L8.33416 13.6902Z" fill="white"/>
<path fill-rule="evenodd" clip-rule="evenodd" d="M8.8809 30.0199L7.35407 12.9194L8.57444 12.8104L10.1107 30.0162L8.57475 48.4473L7.35376 48.3456L8.8809 30.0199Z" fill="white"/>
<path fill-rule="evenodd" clip-rule="evenodd" d="M40.8834 0.57193L47.1991 16.0454L56.4291 12.2261L55.1605 29.9862L61.2641 30.018L61.2577 31.2432L55.0147 31.2107L55.7468 47.7567L54.5228 47.8108L53.8578 32.7817L47.4146 44.3793L41.3005 58.486L40.1763 57.9987L45.8668 44.8694L32.2291 46.8177C32.1889 46.8833 32.151 46.9448 32.1152 47.002C32.0142 47.1639 31.9258 47.2999 31.8553 47.3989C31.8215 47.4464 31.7822 47.4991 31.7414 47.5451C31.7224 47.5665 31.6887 47.603 31.6441 47.6391C31.6259 47.6538 31.597 47.6758 31.5588 47.6981C31.5185 47.7386 31.4575 47.8046 31.374 47.8996C31.1986 48.0995 30.9528 48.3948 30.65 48.768C30.046 49.5126 29.2322 50.5465 28.3362 51.6989C26.545 54.0026 24.4345 56.7682 23.0375 58.6123L22.8103 58.4401L22.107 58.7544L15.924 44.9162L8.21241 48.3436L7.7148 47.2239L15.394 43.8109L8.83094 30.9701L2.4469 30.9369L2.45328 29.7117L8.80711 29.7448L15.9881 16.5796L22.1026 2.21053L23.23 2.69028L17.5379 16.0668L31.5042 13.8322L40.8834 0.57193ZM30.6729 15.206L16.934 17.4042L10.1988 29.752L22.1377 29.8142L30.6729 15.206ZM21.5491 31.0364L10.2106 30.9773L16.2038 42.7031L21.5491 31.0364ZM17.243 44.8649L22.6865 57.0479C24.0443 55.2607 25.8244 52.9333 27.3689 50.9468C28.2663 49.7927 29.0863 48.7507 29.6985 47.9961C30.0039 47.6197 30.2617 47.3095 30.4532 47.0913C30.5478 46.9836 30.6337 46.8897 30.7047 46.8194C30.7336 46.7908 30.7686 46.7576 30.8062 46.7265L17.243 44.8649ZM33.0276 45.4659L46.4767 43.5446L53.3338 31.2019L40.9924 31.1376C39.4679 33.9293 37.3128 37.8507 35.4687 41.1523C34.5358 42.8225 33.6812 44.3365 33.0276 45.4659ZM39.6001 31.1304C38.1043 33.8662 36.1162 37.4804 34.399 40.5548C33.4193 42.309 32.5292 43.8847 31.8694 45.0209C31.7503 45.226 31.639 45.4162 31.5364 45.5901L17.1344 43.6133L22.8936 31.0434L39.6001 31.1304ZM40.2544 29.9086L23.5524 29.8216L32.1771 15.0603L46.1118 17.0224L40.2544 29.9086ZM41.5971 29.9156L53.6209 29.9782L46.9252 18.1937L41.5971 29.9156ZM45.7486 15.7339L40.5934 3.10366L32.9359 13.9298L45.7486 15.7339ZM47.74 17.1475L55.0657 14.1162L54.0553 28.2625L47.74 17.1475Z" fill="white"/>
<circle cx="40.4324" cy="58.1982" r="2.45045" fill="white"/>
<circle cx="31.8558" cy="45.9459" r="2.45045" fill="white"/>
<circle cx="47.1712" cy="44.1081" r="2.45045" fill="white"/>
<circle cx="61.2612" cy="30.6306" r="2.45045" fill="white"/>
<circle cx="64.3244" cy="55.1351" r="3.67568" fill="white"/>
<path d="M56.9729 30.018C56.9729 31.3714 55.8758 32.4685 54.5225 32.4685C53.1691 32.4685 52.072 31.3714 52.072 30.018C52.072 28.6647 53.1691 27.5676 54.5225 27.5676C55.8758 27.5676 56.9729 28.6647 56.9729 30.018Z" fill="white"/>
<path d="M49.6216 16.5405C49.6216 17.8939 48.5245 18.991 47.1712 18.991C45.8178 18.991 44.7207 17.8939 44.7207 16.5405C44.7207 15.1872 45.8178 14.0901 47.1712 14.0901C48.5245 14.0901 49.6216 15.1872 49.6216 16.5405Z" fill="white"/>
<path d="M57.5856 12.8649C57.5856 14.2182 56.4885 15.3153 55.1351 15.3153C53.7818 15.3153 52.6847 14.2182 52.6847 12.8649C52.6847 11.5115 53.7818 10.4144 55.1351 10.4144C56.4885 10.4144 57.5856 11.5115 57.5856 12.8649Z" fill="white"/>
<path d="M42.8828 30.018C42.8828 31.3714 41.7857 32.4685 40.4324 32.4685C39.079 32.4685 37.9819 31.3714 37.9819 30.018C37.9819 28.6647 39.079 27.5676 40.4324 27.5676C41.7857 27.5676 42.8828 28.6647 42.8828 30.018Z" fill="white"/>
<path d="M25.1171 30.018C25.1171 31.3714 24.02 32.4685 22.6666 32.4685C21.3133 32.4685 20.2162 31.3714 20.2162 30.018C20.2162 28.6647 21.3133 27.5676 22.6666 27.5676C24.02 27.5676 25.1171 28.6647 25.1171 30.018Z" fill="white"/>
<path d="M11.6397 30.018C11.6397 31.3714 10.5426 32.4685 9.18922 32.4685C7.83587 32.4685 6.73877 31.3714 6.73877 30.018C6.73877 28.6647 7.83587 27.5676 9.18922 27.5676C10.5426 27.5676 11.6397 28.6647 11.6397 30.018Z" fill="white"/>
<path d="M4.9009 30.018C4.9009 31.3714 3.8038 32.4685 2.45045 32.4685C1.0971 32.4685 0 31.3714 0 30.018C0 28.6647 1.0971 27.5676 2.45045 27.5676C3.8038 27.5676 4.9009 28.6647 4.9009 30.018Z" fill="white"/>
<path d="M10.4145 47.7838C10.4145 49.1371 9.31735 50.2342 7.964 50.2342C6.61065 50.2342 5.51355 49.1371 5.51355 47.7838C5.51355 46.4304 6.61065 45.3333 7.964 45.3333C9.31735 45.3333 10.4145 46.4304 10.4145 47.7838Z" fill="white"/>
<path d="M18.3783 44.1081C18.3783 45.4615 17.2812 46.5586 15.9279 46.5586C14.5745 46.5586 13.4774 45.4615 13.4774 44.1081C13.4774 42.7548 14.5745 41.6577 15.9279 41.6577C17.2812 41.6577 18.3783 42.7548 18.3783 44.1081Z" fill="white"/>
<path d="M18.991 16.5405C18.991 17.8939 17.8939 18.991 16.5405 18.991C15.1872 18.991 14.0901 17.8939 14.0901 16.5405C14.0901 15.1872 15.1872 14.0901 16.5405 14.0901C17.8939 14.0901 18.991 15.1872 18.991 16.5405Z" fill="white"/>
<path d="M34.3063 14.7027C34.3063 16.056 33.2092 17.1532 31.8558 17.1532C30.5025 17.1532 29.4054 16.056 29.4054 14.7027C29.4054 13.3494 30.5025 12.2523 31.8558 12.2523C33.2092 12.2523 34.3063 13.3494 34.3063 14.7027Z" fill="white"/>
<path d="M10.4145 12.8649C10.4145 14.2182 9.31735 15.3153 7.964 15.3153C6.61065 15.3153 5.51355 14.2182 5.51355 12.8649C5.51355 11.5115 6.61065 10.4144 7.964 10.4144C9.31735 10.4144 10.4145 11.5115 10.4145 12.8649Z" fill="white"/>
<path d="M25.1171 2.45045C25.1171 3.8038 24.02 4.9009 22.6666 4.9009C21.3133 4.9009 20.2162 3.8038 20.2162 2.45045C20.2162 1.0971 21.3133 0 22.6666 0C24.02 0 25.1171 1.0971 25.1171 2.45045Z" fill="white"/>
<path d="M42.8828 2.45045C42.8828 3.8038 41.7857 4.9009 40.4324 4.9009C39.079 4.9009 37.9819 3.8038 37.9819 2.45045C37.9819 1.0971 39.079 0 40.4324 0C41.7857 0 42.8828 1.0971 42.8828 2.45045Z" fill="white"/>
</svg>
