<svg width="30" height="25" viewBox="0 0 30 25" fill="none" xmlns="http://www.w3.org/2000/svg">
<path fill-rule="evenodd" clip-rule="evenodd" d="M26.3944 8.65878C28.3828 8.65878 30 10.2612 30 12.2315C30 13.4968 29.3316 14.6106 28.3266 15.2451C28.3594 15.5042 28.3772 15.7653 28.3772 16.0282C28.3772 18.4908 26.9325 20.7816 24.3094 22.4779C21.795 24.1045 18.4669 25 14.9391 25C11.4113 25 8.08313 24.1045 5.56875 22.4779C2.94562 20.7816 1.50094 18.4908 1.50094 16.0282C1.50094 15.7393 1.52156 15.4541 1.56094 15.1707C0.61875 14.526 0 13.4494 0 12.2315C0 10.2612 1.61719 8.65878 3.60563 8.65878C4.44094 8.65878 5.21062 8.94304 5.82281 9.41773C8.1825 7.96856 11.2116 7.14087 14.4338 7.06283L16.3706 0.996768C16.5 0.591744 16.9219 0.353931 17.3391 0.451471L22.3209 1.61359C22.8244 0.655841 23.835 0 24.9975 0C26.6597 0 28.0125 1.34048 28.0125 2.98751C28.0125 4.63548 26.6597 5.97596 24.9975 5.97596C23.4084 5.97596 22.1034 4.7516 21.9909 3.20489L17.7038 2.20441L16.1437 7.09163C19.1344 7.26627 21.9244 8.09119 24.1228 9.46046C24.7434 8.95976 25.5337 8.65878 26.3944 8.65878ZM24.9975 1.62384C25.7569 1.62384 26.3747 2.23602 26.3747 2.98754C26.3747 3.74 25.7569 4.35218 24.9975 4.35218C24.2381 4.35218 23.6203 3.74 23.6203 2.98754C23.6203 2.23602 24.2381 1.62384 24.9975 1.62384ZM10.5675 12.3996C9.44716 12.3996 8.50685 13.3313 8.50685 14.4414C8.50685 15.5525 9.44716 16.4536 10.5675 16.4536C11.6887 16.4536 12.5981 15.5525 12.5981 14.4414C12.5981 13.3313 11.6887 12.3996 10.5675 12.3996ZM19.4625 16.4536C18.3413 16.4536 17.3991 15.5525 17.3991 14.4414C17.3991 13.3304 18.3413 12.3996 19.4625 12.3996C20.5837 12.3996 21.4931 13.3304 21.4931 14.4414C21.4931 15.5525 20.5837 16.4536 19.4625 16.4536ZM19.9388 20.3589C18.8944 21.3928 17.2838 21.8954 15.015 21.8954C15.0128 21.8954 15.0104 21.8952 15.0078 21.895L15.0078 21.895C15.0049 21.8947 15.002 21.8945 14.9991 21.8945L14.9949 21.8946L14.9918 21.8949C14.989 21.8951 14.9861 21.8954 14.9831 21.8954C12.7144 21.8954 11.1047 21.3928 10.0613 20.3589C9.74063 20.0412 9.74063 19.5275 10.0613 19.2107C10.3809 18.8939 10.8994 18.8939 11.22 19.2107C11.94 19.9241 13.1709 20.2716 14.9831 20.2716C14.9888 20.2716 14.9944 20.2725 14.9991 20.2725C15.0047 20.2725 15.0103 20.2716 15.015 20.2716C16.8272 20.2716 18.0591 19.9241 18.78 19.2107C19.1006 18.893 19.6191 18.8939 19.9388 19.2107C20.2584 19.5284 20.2584 20.0421 19.9388 20.3589Z" fill="white"/>
</svg>
