<svg width="42" height="54" viewBox="0 0 42 54" fill="none" xmlns="http://www.w3.org/2000/svg">
<rect width="42" height="42" rx="21" fill="#F9FAFB"/>
<path fill-rule="evenodd" clip-rule="evenodd" d="M21.2677 53.1366L25.7292 49.5366C25.9138 49.3828 25.9754 49.1058 25.7908 48.8905L25.2061 48.1828C25.0523 47.9674 24.7446 47.9366 24.56 48.1212L20.96 51.0443L17.3292 48.1212C17.1446 47.9674 16.8369 47.9981 16.6831 48.1828L16.0984 48.8905C15.9446 49.1058 15.9754 49.352 16.16 49.5366L20.6523 53.1366C20.8984 53.2597 21.1138 53.2597 21.2677 53.1366Z" fill="#1F8EFA"/>
<rect x="14.5" y="10.5" width="13" height="21" rx="6.5" stroke="#1F8EFA"/>
<rect x="19.5" y="17.5" width="3" height="5" rx="1.5" stroke="#1F8EFA"/>
<path d="M20.5 10.5H21.5V18H20.5V10.5Z" fill="#1F8EFA"/>
</svg>
