<?xml version="1.0" encoding="UTF-8"?>
<svg width="43px" height="67px" viewBox="0 0 43 67" version="1.1" xmlns="http://www.w3.org/2000/svg" xmlns:xlink="http://www.w3.org/1999/xlink">
    <!-- Generator: Sketch 52.5 (67469) - http://www.bohemiancoding.com/sketch -->
    <title>solana</title>
    <desc>Created with Sketch.</desc>
    <g id="solana" stroke="none" stroke-width="1" fill="none" fill-rule="evenodd">
        <path d="M10.5126904,15 L17.4619289,15 L17.4619289,21.9492386 L10.5126904,21.9492386 L10.5126904,15 Z M9.94923858,15 L9.94923858,21.9492386 L3,21.9492386 L9.94923858,15 Z M18.0253807,15 L24.9746193,15 L24.9746193,21.9492386 L18.0253807,21.9492386 L18.0253807,15 Z M25.5380711,15 L32.4873096,15 L32.4873096,21.9492386 L25.5380711,21.9492386 L25.5380711,15 Z M33.0507614,15 L40,15 L33.0507614,21.9492386 L33.0507614,15 Z M10.5126904,30.4010152 L17.4619289,30.4010152 L17.4619289,37.3502538 L10.5126904,37.3502538 L10.5126904,30.4010152 Z M3,30.4010152 L9.94923858,30.4010152 L9.94923858,37.3502538 L3,30.4010152 Z M18.0253807,30.4010152 L24.9746193,30.4010152 L24.9746193,37.3502538 L18.0253807,37.3502538 L18.0253807,30.4010152 Z M25.5380711,30.4010152 L32.4873096,30.4010152 L32.4873096,37.3502538 L25.5380711,37.3502538 L25.5380711,30.4010152 Z M3,22.7005076 L9.94923858,22.7005076 L9.94923858,29.6497462 L3,29.6497462 L3,22.7005076 Z M32.8629442,37.9137056 L39.8121827,37.9137056 L39.8121827,44.8629442 L32.8629442,44.8629442 L32.8629442,37.9137056 Z M32.8629442,30.4010152 L39.8121827,37.3502538 L32.8629442,37.3502538 L32.8629442,30.4010152 Z M10.5126904,45.4263959 L17.4619289,45.4263959 L17.4619289,52.3756345 L10.5126904,52.3756345 L10.5126904,45.4263959 Z M9.94923858,45.4263959 L9.94923858,52.3756345 L3,52.3756345 L9.94923858,45.4263959 Z M18.0253807,45.4263959 L24.9746193,45.4263959 L24.9746193,52.3756345 L18.0253807,52.3756345 L18.0253807,45.4263959 Z M25.5380711,45.4263959 L32.4873096,45.4263959 L32.4873096,52.3756345 L25.5380711,52.3756345 L25.5380711,45.4263959 Z M33.0507614,45.4263959 L40,45.4263959 L33.0507614,52.3756345 L33.0507614,45.4263959 Z" id="Combined-Shape-Copy-3" fill="#FFFFFF"></path>
    </g>
</svg>