<svg width="31" height="31" viewBox="0 0 31 31" fill="none" xmlns="http://www.w3.org/2000/svg">
<path fill-rule="evenodd" clip-rule="evenodd" d="M6.75316 2.99241C6.88722 3.05224 6.91061 3.08351 6.94705 3.11424C7.5649 3.71606 8.20178 4.29775 8.8577 4.85878C8.8577 4.85878 8.62791 5.0728 9.29063 4.68908C10.3327 4.09461 11.4534 3.65079 12.6192 3.36987L12.6676 3.35845C12.7388 2.47217 12.7799 1.58318 12.7916 0.693644C12.7916 0.693644 12.8789 0.213659 13.3961 0.142681C13.6055 0.113854 13.8154 0.0896512 14.0259 0.0695271C15.2399 -0.046594 16.4666 -0.016136 17.6754 0.152471C17.6754 0.152471 18.1711 0.225352 18.2103 0.693644C18.2214 1.55843 18.2606 2.41833 18.3277 3.27795C18.3277 3.27795 18.0139 3.26653 18.7536 3.46423C19.9137 3.78132 21.0218 4.26185 22.0403 4.88488L22.0824 4.91126C22.7598 4.33473 23.4174 3.73509 24.0545 3.11424C24.0545 3.11424 24.4241 2.77975 25.2598 3.45662C26.2075 4.22487 27.0652 5.10625 27.8054 6.07302C27.9694 6.28704 28.1369 6.64954 27.8862 6.94596C27.2825 7.56573 26.7024 8.20127 26.1419 8.85666C26.1419 8.85666 25.9279 8.62687 26.3114 9.28933C26.9061 10.3317 27.3493 11.4505 27.6308 12.6182L27.642 12.6664C28.5285 12.7379 29.4175 12.7789 30.307 12.7906C30.307 12.7906 30.7752 12.7553 30.8764 13.535C31.0428 14.8626 31.0426 16.2104 30.8672 17.5347C30.8315 17.8037 30.6939 18.1768 30.307 18.2094C30.1789 18.2111 30.0511 18.2132 29.923 18.2157C29.1882 18.2328 28.4545 18.2698 27.7225 18.3269C27.7225 18.3269 27.7336 18.0131 27.5364 18.7528C27.2199 19.9097 26.7424 21.0148 26.1156 22.0395L26.0895 22.0817C26.6657 22.7588 27.2653 23.4164 27.8862 24.0538C27.8862 24.0538 28.2209 24.4234 27.5438 25.2591C26.7454 26.2444 25.8344 27.1241 24.8154 27.8899C24.2568 28.3101 23.6616 27.4929 23.0073 26.9003C22.6293 26.5577 22.0824 26.0888 22.0824 26.0888C22.025 26.1244 21.9671 26.1595 21.9095 26.1943C20.81 26.8486 19.6233 27.3311 18.3827 27.6299L18.3343 27.6414C18.2627 28.5279 18.222 29.4169 18.2103 30.3064C18.2103 30.3064 18.123 30.7864 17.6057 30.8574C17.3963 30.886 17.1864 30.9104 16.9759 30.9305C15.762 31.0467 14.5353 31.0159 13.3265 30.8476C13.3265 30.8476 12.8307 30.7745 12.7916 30.3064C12.79 30.1783 12.7878 30.0505 12.7851 29.9224C12.7682 29.1876 12.7312 28.4539 12.6741 27.7219C12.6741 27.7219 12.9879 27.7333 12.248 27.5358C11.0887 27.2185 9.98435 26.7407 8.96158 26.1149L8.91943 26.0888C8.24203 26.6651 7.58448 27.2647 6.94705 27.8856C6.94705 27.8856 6.54594 28.163 6.13014 27.8475C4.99289 26.9846 3.97447 25.9577 3.11106 24.8147C3.11106 24.8147 2.81247 24.4125 3.11541 24.0538C3.71939 23.4341 4.29944 22.7985 4.85991 22.1431C4.85991 22.1431 5.07393 22.3729 4.69049 21.7105C4.09657 20.6695 3.65222 19.5474 3.37104 18.3819L3.35989 18.3334C2.47336 18.2619 1.58439 18.2209 0.694604 18.2094C0.694604 18.2094 0.196682 18.1847 0.0846427 17.1151C-0.0475202 15.8525 -0.0252211 14.5877 0.153715 13.3253C0.25107 12.6381 1.248 12.7901 2.13208 12.7466C2.64169 12.7216 3.35989 12.6664 3.35989 12.6664C3.37512 12.6005 3.39116 12.535 3.40748 12.4695C3.72157 11.2318 4.22003 10.0489 4.88629 8.96054L4.91239 8.91839C4.33615 8.24097 3.73653 7.58341 3.11541 6.94596C3.11541 6.94596 2.83804 6.54457 3.15349 6.12904C4.00194 5.01079 5.00866 4.00731 6.13014 3.15231C6.13014 3.15231 6.34225 2.87574 6.75316 2.99241ZM15.5431 8.9733C18.5276 9.00186 21.3403 11.2936 21.9106 14.2654C22.4683 17.1717 20.7749 20.3559 18.0406 21.513C14.9997 22.8001 11.071 21.3414 9.61859 18.3291C7.76233 14.4789 10.6264 9.07991 15.3748 8.97439C15.4308 8.97358 15.4871 8.97303 15.5431 8.9733ZM15.4656 10.0611C12.3908 10.0905 9.67544 13.117 10.1149 16.261C10.4749 18.8355 12.9186 20.9553 15.5363 20.9387C18.7139 20.9186 21.4918 17.6381 20.8291 14.4041C20.332 11.9775 18.0262 10.053 15.4656 10.0611Z" fill="white"/>
</svg>
