<svg width="48" height="49" viewBox="0 0 48 49" fill="none" xmlns="http://www.w3.org/2000/svg">
<path d="M38.9885 41.9031L37.1921 36.5131C36.5643 34.6314 34.9627 33.2424 33.0103 32.887L27.8244 31.9434V31.5414C28.7269 31.0176 29.5122 30.3169 30.1376 29.4874H31.7043C32.9878 29.4874 34.0323 28.4429 34.0323 27.1595V17.8477C34.0323 12.2854 29.5068 7.75989 23.9445 7.75989C18.3823 7.75989 13.8567 12.2854 13.8567 17.8477V23.2795C13.8567 24.7756 14.9206 26.0273 16.3313 26.3191C16.7667 28.5492 18.1603 30.4364 20.0646 31.5414V31.9434L14.8779 32.887C12.9263 33.2424 11.3239 34.6314 10.6969 36.5131L10.3865 37.4451L7.74355 34.8021C7.44091 34.4995 7.44091 34.0067 7.74355 33.7041L10.8087 30.6397L5.05554 24.8866L1.59156 28.3506C0.565709 29.3764 0.000793457 30.7406 0.000793457 32.1917C0.000793457 33.6428 0.565709 35.0062 1.59156 36.032L12.079 46.5194C13.1048 47.5453 14.469 48.111 15.9201 48.111C17.3712 48.111 18.7346 47.5453 19.7364 46.5427L23.5162 43.0795L22.3375 41.9031H38.9885ZM32.4803 27.1595C32.4803 27.5878 32.1319 27.9354 31.7043 27.9354H31.0517C31.2768 27.4225 31.4475 26.8817 31.5577 26.3191C31.8898 26.25 32.1955 26.1181 32.4803 25.952V27.1595ZM31.7043 24.6158V21.9433C32.166 22.2126 32.4803 22.7076 32.4803 23.2795C32.4803 23.8514 32.166 24.3465 31.7043 24.6158ZM16.1847 24.6158C15.723 24.3465 15.4087 23.8514 15.4087 23.2795C15.4087 22.7076 15.723 22.2126 16.1847 21.9433V24.6158ZM16.1847 19.3996V20.2858C15.9084 20.358 15.6493 20.4666 15.4087 20.6071V17.8477C15.4087 13.1413 19.2382 9.31185 23.9445 9.31185C28.6508 9.31185 32.4803 13.1413 32.4803 17.8477V20.6071C32.2398 20.4666 31.9806 20.3572 31.7043 20.2858V19.3996H30.9284C28.6338 19.3996 26.4765 18.5057 24.8532 16.8831L23.9445 15.9744L23.0358 16.8831C21.4125 18.5057 19.2552 19.3996 16.9607 19.3996H16.1847ZM17.7367 24.8315V20.9221C20.0669 20.7467 22.2397 19.7853 23.9445 18.1643C25.6493 19.7853 27.8221 20.7475 30.1524 20.9221V24.8315C30.1524 25.9629 29.8435 27.0213 29.3128 27.9354H23.9445V29.4874H28.037C26.9429 30.4504 25.5128 31.0394 23.9445 31.0394C20.5217 31.0394 17.7367 28.2544 17.7367 24.8315ZM26.2725 32.2336V32.2701L23.9445 34.598L21.6166 32.2701V32.2336C22.3522 32.4648 23.1336 32.5913 23.9445 32.5913C24.7554 32.5913 25.5368 32.4648 26.2725 32.2336ZM12.1682 37.0036C12.6159 35.6596 13.7605 34.6671 15.155 34.4126L20.5791 33.4271L23.9445 36.7925L27.3092 33.4278L32.7325 34.4133C34.127 34.6679 35.2715 35.6596 35.7193 37.0043L36.8359 40.3512H20.7855L17.763 37.3287L14.4046 40.3667C14.112 40.6608 13.6007 40.6608 13.3073 40.3667L11.6126 38.6719L12.1682 37.0036ZM5.05477 27.0811L8.61342 30.6397L7.77071 31.4825L4.21205 27.9238L5.05477 27.0811ZM18.6616 45.4238C17.9291 46.1547 16.9545 46.559 15.9185 46.559C14.8826 46.559 13.908 46.1547 13.1747 45.4222L2.68725 34.9356C1.95472 34.203 1.55121 33.2284 1.55121 32.1925C1.55121 31.1558 1.95472 30.1811 2.68725 29.4486L3.11404 29.0218L6.67269 32.5805L6.64476 32.6084C5.73763 33.5163 5.73763 34.993 6.64476 35.9009L12.2093 41.4655C12.6493 41.9047 13.2336 42.1476 13.856 42.1476C14.4783 42.1476 15.0626 41.9055 15.4739 41.4926L15.5321 41.4406L19.107 45.0156L18.6616 45.4238ZM20.2524 43.9649L16.6852 40.3977L17.7103 39.4712L21.2713 43.0322L20.2524 43.9649Z" fill="#7B8AA4"/>
<path d="M45.6721 0H34.8083C33.5248 0 32.4803 1.04447 32.4803 2.32795V8.53581C32.4803 9.81928 33.5248 10.8638 34.8083 10.8638H36.8809L36.0786 15.5437L43.5668 10.8638H45.6721C46.9555 10.8638 48 9.81928 48 8.53581V2.32795C48 1.04447 46.9555 0 45.6721 0ZM46.448 8.53581C46.448 8.96338 46.0996 9.31179 45.6721 9.31179H43.1214L38.1931 12.3917L38.7216 9.31179H34.8083C34.3807 9.31179 34.0323 8.96338 34.0323 8.53581V2.32795C34.0323 1.90038 34.3807 1.55197 34.8083 1.55197H45.6721C46.0996 1.55197 46.448 1.90038 46.448 2.32795V8.53581Z" fill="#7B8AA4"/>
<path d="M44.8961 3.10388H35.5843V4.65585H44.8961V3.10388Z" fill="#7B8AA4"/>
<path d="M41.7921 6.20789H35.5843V7.75985H41.7921V6.20789Z" fill="#7B8AA4"/>
<path d="M44.896 6.20789H43.3441V7.75985H44.896V6.20789Z" fill="#7B8AA4"/>
<path d="M23.9445 2.32788C13.8055 2.32788 5.07182 9.34121 2.8013 19.124L1.33081 16.6727L0 17.4712L2.72758 22.0161L7.27251 19.2885L6.47402 17.9577L4.37111 19.2195C6.57025 10.2701 14.618 3.87985 23.9445 3.87985C25.983 3.87985 27.9944 4.18248 29.9227 4.77999L30.382 3.29786C28.3047 2.65379 26.139 2.32788 23.9445 2.32788Z" fill="#7B8AA4"/>
<path d="M47.6229 17.1818L43.078 14.4542L40.3512 18.9999L41.682 19.7984L43.0399 17.5349C43.7546 19.6261 44.1201 21.8136 44.1201 24.0555C44.1201 28.6702 42.5216 33.1818 39.6202 36.7583L40.8253 37.736C43.9509 33.8841 45.6721 29.0248 45.6721 24.0555C45.6721 21.6817 45.2895 19.3639 44.5438 17.1446L46.8244 18.5126L47.6229 17.1818Z" fill="#7B8AA4"/>
</svg>
