<svg width="40" height="37" viewBox="0 0 40 37" fill="none" xmlns="http://www.w3.org/2000/svg">
<path fill-rule="evenodd" clip-rule="evenodd" d="M23.1444 34.2369C22.9986 35.7869 21.6893 37 20.0957 37C18.4045 37 17.0335 35.6338 17.0335 33.9485C17.0335 32.2631 18.4045 30.8969 20.0957 30.8969C21.421 30.8969 22.5496 31.7359 22.976 32.9099C28.6315 31.8485 33.2351 27.8179 35.0939 22.5052H35.0239C34.1783 22.5052 33.4928 21.822 33.4928 20.9794V13.5412C33.4928 12.6986 34.1783 12.0155 35.0239 12.0155H35.0939C32.9182 5.79695 26.982 1.33505 20 1.33505C13.018 1.33505 7.0818 5.79695 4.90608 12.0155H4.97608C5.82168 12.0155 6.50718 12.6986 6.50718 13.5412V20.9794C6.50718 21.822 5.82168 22.5052 4.97608 22.5052H3.25359C2.40799 22.5052 1.72249 21.822 1.72249 20.9794V20.4072H1.14833C0.514123 20.4072 0 19.8949 0 19.2629V15.2577C0 14.6257 0.514123 14.1134 1.14833 14.1134H1.72249V13.5412C1.72249 12.6986 2.40799 12.0155 3.25359 12.0155H3.49355C5.72123 5.04727 12.2691 0 20 0C27.7309 0 34.2788 5.04727 36.5064 12.0155H36.7464C37.592 12.0155 38.2775 12.6986 38.2775 13.5412V14.1134H38.8517C39.4859 14.1134 40 14.6257 40 15.2577V19.2629C40 19.8949 39.4859 20.4072 38.8517 20.4072H38.2775V20.9794C38.2775 21.822 37.592 22.5052 36.7464 22.5052H36.5064C34.5882 28.5055 29.4664 33.0815 23.1444 34.2369ZM1.72249 15.4485H1.33971V19.0722H1.72249V15.4485ZM38.2775 19.0722H38.6603V15.4485H38.2775V19.0722ZM23.445 27.3135C27.7239 25.912 30.8134 21.898 30.8134 17.1649C30.8134 11.2663 26.0149 6.48454 20.0957 6.48454C14.1765 6.48454 9.37799 11.2663 9.37799 17.1649C9.37799 21.898 12.4675 25.912 16.7464 27.3135C17.2116 27.4659 17.6908 27.9776 18.1816 28.5017C18.8027 29.1649 19.4424 29.8479 20.0957 29.8479C20.749 29.8479 21.3887 29.1649 22.0098 28.5017L22.0098 28.5017C22.5006 27.9776 22.9798 27.4659 23.445 27.3135ZM20.0957 35.6649C21.047 35.6649 21.8182 34.8964 21.8182 33.9485C21.8182 33.0005 21.047 32.232 20.0957 32.232C19.1444 32.232 18.3732 33.0005 18.3732 33.9485C18.3732 34.8964 19.1444 35.6649 20.0957 35.6649ZM36.7464 13.3505H35.0239C34.9182 13.3505 34.8325 13.4359 34.8325 13.5412V20.9794C34.8325 21.0847 34.9182 21.1701 35.0239 21.1701H36.7464C36.8521 21.1701 36.9378 21.0847 36.9378 20.9794V13.5412C36.9378 13.4359 36.8521 13.3505 36.7464 13.3505ZM3.25359 13.3505H4.97608C5.08178 13.3505 5.16746 13.4359 5.16746 13.5412V20.9794C5.16746 21.0847 5.08178 21.1701 4.97608 21.1701H3.25359C3.14789 21.1701 3.0622 21.0847 3.0622 20.9794V13.5412C3.0622 13.4359 3.14789 13.3505 3.25359 13.3505ZM16.5 14C16.2239 14 16 14.2239 16 14.5C16 14.7761 16.2239 15 16.5 15H23.5C23.7761 15 24 14.7761 24 14.5C24 14.2239 23.7761 14 23.5 14H16.5ZM14 17.5C14 17.2239 14.2239 17 14.5 17H25.5C25.7761 17 26 17.2239 26 17.5C26 17.7761 25.7761 18 25.5 18H14.5C14.2239 18 14 17.7761 14 17.5ZM16.5 20C16.2239 20 16 20.2239 16 20.5C16 20.7761 16.2239 21 16.5 21H23.5C23.7761 21 24 20.7761 24 20.5C24 20.2239 23.7761 20 23.5 20H16.5Z" fill="white"/>
</svg>
