<svg width="44" height="44" viewBox="0 0 44 44" fill="none" xmlns="http://www.w3.org/2000/svg">
<path fill-rule="evenodd" clip-rule="evenodd" d="M22.1718 42.7266C33.7697 42.7266 43.1718 33.3245 43.1718 21.7266C43.1718 10.1286 33.7697 0.726562 22.1718 0.726562C10.5738 0.726562 1.17175 10.1286 1.17175 21.7266C1.17175 33.3245 10.5738 42.7266 22.1718 42.7266Z" fill="white" stroke="#54617A"/>
<path fill-rule="evenodd" clip-rule="evenodd" d="M18.5905 15.8076C19.7984 15.8076 20.9534 15.8103 22.1084 15.807C23.6804 15.8024 25.2525 15.7977 26.8245 15.7814C27.0922 15.7787 27.2986 15.8311 27.4763 16.0525C27.6437 16.2612 27.8597 16.4308 28.0682 16.6309C26.3191 18.3761 24.5975 20.0939 22.8838 21.804C23.353 21.7806 23.8107 21.6789 24.2401 21.7499C26.3706 22.1024 27.84 23.6662 28.1967 25.8613C28.4079 27.1612 28.293 28.4145 27.773 29.6283C27.3078 30.7139 26.5468 31.4978 25.4517 31.952C23.9311 32.5828 22.3849 32.6636 20.8158 32.1644C19.4454 31.7284 18.5269 30.1635 18.581 29.0328C18.6181 28.2582 19.1389 27.6984 19.9165 27.6568C20.7531 27.6121 21.3435 28.0926 21.4325 28.8907C21.5152 29.6331 21.2868 30.074 20.577 30.4644C20.7289 30.5932 20.8524 30.7286 21.0026 30.8203C22.2001 31.5518 24.0483 31.3266 25.0218 30.3248C25.4632 29.8706 25.7006 29.2976 25.8268 28.6892C26.0802 27.4671 26.0985 26.2393 25.73 25.0371C25.3543 23.8115 24.5334 23.0651 23.2449 22.8688C22.6798 22.7827 22.1754 22.9556 21.6848 23.2036C21.2703 23.4133 20.8567 23.6252 20.4235 23.8459C20.3638 23.5401 20.3926 23.3141 20.568 23.0822C21.9881 21.2044 23.3961 19.3175 24.8073 17.4329C24.8929 17.3184 24.9737 17.2004 25.0823 17.0484H18.6072C18.6011 17.1642 18.5913 17.2655 18.5912 17.3666C18.5904 19.4008 18.5861 21.4351 18.5959 23.4694C18.5973 23.7681 18.6279 24.0781 18.7122 24.3629C18.9924 25.309 19.7895 25.666 20.7038 25.282C21.2418 25.0561 21.6166 24.636 21.9733 24.1983C22.1032 24.039 22.1847 23.8195 22.4608 23.9341C22.7037 24.0349 22.8904 24.3072 22.7775 24.5689C22.5952 24.9915 22.3899 25.4302 22.0904 25.7702C21.5433 26.3913 20.813 26.6972 19.9728 26.6569C19.486 26.6336 18.9924 26.609 18.5169 26.5114C17.13 26.2264 16.3467 25.2934 16.3282 23.8657C16.3005 21.7275 16.3148 19.5887 16.3114 17.4502C16.3112 17.3263 16.3114 17.2024 16.3114 17.0324H12.9843V15.8277H16.3113C16.3113 15.4441 16.3114 15.1029 16.3114 14.7618C16.3114 14.5322 16.285 14.299 16.3163 14.0739C16.4125 13.3822 16.2347 12.8261 15.6637 12.3782C15.5232 12.268 15.5397 11.957 15.4676 11.6739C16.1108 11.6739 16.6695 11.6955 17.2256 11.6666C17.6295 11.6457 17.9761 11.753 18.321 11.9454C18.5163 12.0543 18.6001 12.1701 18.5968 12.4039C18.5824 13.4156 18.5905 14.4276 18.5905 15.4394V15.8076Z" fill="#54617A"/>
</svg>
