<svg width="45" height="61" viewBox="0 0 45 61" fill="none" xmlns="http://www.w3.org/2000/svg">
<path fill-rule="evenodd" clip-rule="evenodd" d="M16.4756 12.1372C20.0253 12.1372 23.4196 12.1451 26.8139 12.1354C31.4337 12.1218 36.0536 12.1081 40.6733 12.0604C41.4601 12.0524 42.0666 12.2058 42.5889 12.8545C43.0809 13.4657 43.7156 13.9626 44.3283 14.5486C39.1882 19.6608 34.1288 24.6925 29.0926 29.7015C30.4714 29.6331 31.8166 29.3351 33.0783 29.5433C39.3394 30.5756 43.6578 35.1562 44.7059 41.5862C45.3267 45.3936 44.989 49.065 43.4608 52.6203C42.0937 55.8003 39.8574 58.0965 36.6389 59.427C32.1702 61.2745 27.6265 61.5112 23.0153 60.0491C18.9878 58.772 16.2885 54.188 16.4475 50.8761C16.5566 48.607 18.0872 46.9674 20.3724 46.8455C22.8309 46.7146 24.5659 48.122 24.8274 50.4596C25.0704 52.6345 24.3994 53.9258 22.3134 55.0695C22.7597 55.4466 23.1229 55.8434 23.564 56.112C27.0832 58.2546 32.5147 57.5948 35.3756 54.6606C36.6729 53.3301 37.3706 51.6517 37.7414 49.8694C38.4861 46.2899 38.5399 42.6935 37.4569 39.1719C36.3529 35.5818 33.9403 33.3956 30.1536 32.8206C28.493 32.5685 27.0107 33.0749 25.5691 33.8014C24.3507 34.4154 23.1354 35.0361 21.8623 35.6828C21.687 34.7869 21.7716 34.125 22.287 33.4457C26.4603 27.9453 30.5981 22.4181 34.7452 16.8978C34.9969 16.5626 35.2343 16.217 35.5533 15.7718H16.5245C16.5067 16.111 16.4778 16.4075 16.4776 16.7036C16.4753 22.6624 16.4626 28.6211 16.4912 34.5797C16.4955 35.4547 16.5854 36.3629 16.8333 37.197C17.6567 39.9684 19.999 41.014 22.6861 39.8892C24.267 39.2277 25.3686 37.9972 26.4169 36.7149C26.7986 36.2483 27.038 35.6053 27.8493 35.941C28.5632 36.2364 29.1119 37.0338 28.7802 37.8004C28.2444 39.0383 27.6411 40.3234 26.761 41.3194C25.1532 43.1387 23.007 44.0346 20.5378 43.9167C19.1071 43.8483 17.6567 43.7764 16.2594 43.4904C12.1834 42.6556 9.88145 39.9228 9.8271 35.7408C9.74559 29.4774 9.78781 23.2126 9.77772 16.9486C9.77717 16.5857 9.77772 16.2228 9.77772 15.7248H0V12.1959H9.77753C9.77753 11.0725 9.77772 10.073 9.77772 9.0737C9.77772 8.40133 9.70006 7.71832 9.79204 7.05878C10.0748 5.03267 9.55245 3.4039 7.87439 2.09179C7.46148 1.76908 7.50995 0.857976 7.29808 0.0288302C9.18819 0.0288302 10.8301 0.0920888 12.4644 0.00756068C13.6514 -0.0536809 14.67 0.260595 15.6836 0.824054C16.2573 1.1431 16.5037 1.48231 16.494 2.16715C16.4516 5.13059 16.4756 8.09475 16.4756 11.0586V12.1372Z" fill="white"/>
</svg>
