<?xml version="1.0" encoding="UTF-8"?>
<svg width="200px" height="312px" viewBox="0 0 200 312" version="1.1" xmlns="http://www.w3.org/2000/svg" xmlns:xlink="http://www.w3.org/1999/xlink">
    <!-- Generator: Sketch 52.5 (67469) - http://www.bohemiancoding.com/sketch -->
    <title>ontology copy 4</title>
    <desc>Created with Sketch.</desc>
    <g id="ontology-copy-4" stroke="none" stroke-width="1" fill="none" fill-rule="evenodd">
        <path d="M99.9319926,75.9718876 C55.8534919,75.7832424 19.9678452,111.570075 19.6943889,155.988084 C19.4251601,199.714394 55.3314151,235.981823 98.9781985,236.299666 C143.618672,236.624908 179.696927,200.872686 179.993633,156.805547 C180.294303,112.144465 144.590432,76.1629106 99.9319926,75.9718876 Z M14.0001585,156.090333 C13.9557714,108.749645 52.5720172,70.035906 100.315888,70.2647109 C147.28642,70.4900811 185.884435,108.794296 185.738856,156.624828 C185.595655,203.585583 147.050217,242.009485 99.8455963,241.999974 C52.4230034,241.990462 14.0035932,203.542253 14.0001585,156.090333 Z M102.66664,205.407947 L102.910909,205.532337 C104.336296,203.032426 105.748451,200.525136 107.189188,198.034185 C113.67171,186.825698 120.170906,175.626962 126.647341,164.415049 C132.398115,154.45968 138.123483,144.489817 143.867906,134.531022 C145.04426,132.490983 145.467166,130.267785 144.800521,128.06409 C143.556416,123.950806 140.616455,121.933959 136.315152,121.93106 C125.600928,121.924735 114.886968,121.927634 104.172744,121.927107 L102.66664,121.92689 L102.66664,205.407947 Z M96.6911805,122.031467 C96.2918286,121.989829 95.9948949,121.932114 95.6976966,121.932114 C84.543365,121.930269 73.3882395,121.887049 62.2341726,121.954251 C55.61324,121.994045 51.7890944,128.816224 55.0815647,134.567917 C56.0176203,136.203163 57.0264537,137.797034 57.9733598,139.426483 C62.2526979,146.788122 66.5188036,154.157403 70.7952306,161.521151 C78.3328996,174.500342 85.8724211,187.478216 93.4172355,200.45319 C94.4146891,202.169343 95.4478701,203.865202 96.4641136,205.570286 C96.5400672,205.541297 96.6154916,205.512308 96.6911805,205.483055 L96.6911805,122.031467 Z M99.498818,116.003852 C111.84406,116.003325 124.189037,115.993837 136.534544,116.006751 C144.224649,116.014657 150.366042,121.707317 150.962291,129.312201 C151.183536,132.132836 150.416325,134.739743 149.052336,137.122907 C140.922652,151.327544 132.725218,165.493706 124.559807,179.678051 C119.545281,188.388209 114.548485,197.10838 109.541898,205.822754 C108.317642,207.953714 107.101325,210.08968 105.851928,212.205881 C102.881268,217.239172 96.467554,217.281074 93.4931891,212.233025 C89.2596349,205.048219 85.115002,197.811497 80.9211449,190.602973 C75.9320242,182.027746 70.9214671,173.465433 65.9400212,164.885726 C62.1489564,158.357391 58.383033,151.814824 54.6189622,145.271203 C52.8061319,142.119039 50.8826792,139.019582 49.2574835,135.773334 C46.4175591,130.100703 48.5791939,122.410433 53.8184057,118.75096 C56.4693723,116.898823 59.3934543,116.003325 62.615264,116.003588 C74.9096938,116.004906 87.2043882,116.004115 99.498818,116.003852 Z" id="Combined-Shape" fill="#FFFFFF"></path>
    </g>
</svg>