<svg width="48" height="48" viewBox="0 0 48 48" fill="none" xmlns="http://www.w3.org/2000/svg">
<path d="M34.8387 44.9032C36.1191 44.9032 37.1613 43.861 37.1613 42.5806C37.1613 41.3003 36.1191 40.2581 34.8387 40.2581C33.5583 40.2581 32.5161 41.3003 32.5161 42.5806C32.5161 43.861 33.5583 44.9032 34.8387 44.9032ZM34.8387 41.8064C35.2659 41.8064 35.6129 42.1542 35.6129 42.5806C35.6129 43.007 35.2659 43.3548 34.8387 43.3548C34.4115 43.3548 34.0645 43.007 34.0645 42.5806C34.0645 42.1542 34.4115 41.8064 34.8387 41.8064Z" fill="#7B8AA4"/>
<path d="M21.6774 40.2581H10.8387V44.9032H21.6774V40.2581ZM17.0323 41.8064V43.3548H15.4839V41.8064H17.0323ZM12.3871 41.8064H13.9355V43.3548H12.3871V41.8064ZM20.129 43.3548H18.5807V41.8064H20.129V43.3548Z" fill="#7B8AA4"/>
<path d="M10.8387 17.0322H21.6774V12.3871H10.8387V17.0322ZM15.4839 15.4839V13.9355H17.0323V15.4839H15.4839ZM20.129 15.4839H18.5807V13.9355H20.129V15.4839ZM12.3871 13.9355H13.9355V15.4839H12.3871V13.9355Z" fill="#7B8AA4"/>
<path d="M34.8387 26.3226C33.5583 26.3226 32.5161 27.3648 32.5161 28.6452C32.5161 29.9256 33.5583 30.9678 34.8387 30.9678C36.1191 30.9678 37.1613 29.9256 37.1613 28.6452C37.1613 27.3648 36.1191 26.3226 34.8387 26.3226ZM34.8387 29.4194C34.4115 29.4194 34.0645 29.0716 34.0645 28.6452C34.0645 28.2188 34.4115 27.871 34.8387 27.871C35.2659 27.871 35.6129 28.2188 35.6129 28.6452C35.6129 29.0716 35.2659 29.4194 34.8387 29.4194Z" fill="#7B8AA4"/>
<path d="M10.8387 30.9678H21.6774V26.3226H10.8387V30.9678ZM15.4839 29.4194V27.871H17.0323V29.4194H15.4839ZM20.129 29.4194H18.5807V27.871H20.129V29.4194ZM12.3871 27.871H13.9355V29.4194H12.3871V27.871Z" fill="#7B8AA4"/>
<path d="M35.6129 5.41943C31.7706 5.41943 28.6451 8.54569 28.6451 12.3872C28.6451 16.2287 31.7706 19.3549 35.6129 19.3549C39.4551 19.3549 42.5806 16.2287 42.5806 12.3872C42.5806 8.54569 39.4551 5.41943 35.6129 5.41943ZM35.6129 17.8065C32.6254 17.8065 30.1935 15.3755 30.1935 12.3872C30.1935 9.39889 32.6254 6.96782 35.6129 6.96782C38.6004 6.96782 41.0322 9.39889 41.0322 12.3872C41.0322 15.3755 38.6004 17.8065 35.6129 17.8065Z" fill="#7B8AA4"/>
<path d="M35.6129 8.51611C33.4786 8.51611 31.7419 10.2528 31.7419 12.3871C31.7419 14.5214 33.4786 16.258 35.6129 16.258C37.7472 16.258 39.4839 14.5214 39.4839 12.3871C39.4839 10.2528 37.7472 8.51611 35.6129 8.51611ZM35.6129 14.7097C34.3325 14.7097 33.2903 13.6674 33.2903 12.3871C33.2903 11.1067 34.3325 10.0645 35.6129 10.0645C36.8933 10.0645 37.9355 11.1067 37.9355 12.3871C37.9355 13.6674 36.8933 14.7097 35.6129 14.7097Z" fill="#7B8AA4"/>
<path d="M48 15.3066V9.46837L44.9543 8.66469C44.921 8.58115 44.8862 8.49761 44.8499 8.41406L46.4354 5.69191L42.3073 1.56389L39.5852 3.14932C39.5024 3.11379 39.4181 3.07901 39.3345 3.04498L38.5324 0H32.6942L31.8913 3.04498C31.8077 3.07825 31.7234 3.11303 31.6406 3.14932L28.9185 1.56389L24.7904 5.69191L26.3759 8.41406C26.3396 8.49761 26.3048 8.58115 26.2715 8.66469L23.8994 9.29032H10.0645C8.78415 9.29032 7.74194 10.3325 7.74194 11.6129V17.8065C7.74194 19.0868 8.78415 20.129 10.0645 20.129H10.8387V23.2258H10.0645C8.78415 23.2258 7.74194 24.268 7.74194 25.5484V26.3226H3.09677V13.793C3.99572 13.4724 4.64516 12.6207 4.64516 11.6129C4.64516 10.3325 3.60295 9.29032 2.32258 9.29032C1.04221 9.29032 0 10.3325 0 11.6129C0 12.6207 0.649446 13.4724 1.54839 13.793V27.871H7.74194V29.4194H1.54839V43.4974C0.649446 43.8179 0 44.6696 0 45.6774C0 46.9578 1.04221 48 2.32258 48C3.60295 48 4.64516 46.9578 4.64516 45.6774C4.64516 44.6696 3.99572 43.8179 3.09677 43.4974V30.9677H7.74194V31.7419C7.74194 33.0223 8.78415 34.0645 10.0645 34.0645H10.8387V37.1613H10.0645C8.78415 37.1613 7.74194 38.2035 7.74194 39.4839V45.6774C7.74194 46.9578 8.78415 48 10.0645 48H37.9355C39.2159 48 40.2581 46.9578 40.2581 45.6774V39.4839C40.2581 38.2035 39.2159 37.1613 37.9355 37.1613H37.1613V34.0645H37.9355C39.2159 34.0645 40.2581 33.0223 40.2581 31.7419V25.5484C40.2581 24.6071 39.6929 23.7978 38.8855 23.4341L39.3353 21.7292C39.4188 21.6959 39.5031 21.6612 39.5859 21.6249L42.3081 23.2103L46.4361 19.0823L44.8507 16.3601C44.887 16.2766 44.9217 16.193 44.955 16.1095L48 15.3066ZM2.32258 10.8387C2.74975 10.8387 3.09677 11.1865 3.09677 11.6129C3.09677 12.0393 2.74975 12.3871 2.32258 12.3871C1.89541 12.3871 1.54839 12.0393 1.54839 11.6129C1.54839 11.1865 1.89541 10.8387 2.32258 10.8387ZM2.32258 46.4516C1.89541 46.4516 1.54839 46.1038 1.54839 45.6774C1.54839 45.251 1.89541 44.9032 2.32258 44.9032C2.74975 44.9032 3.09677 45.251 3.09677 45.6774C3.09677 46.1038 2.74975 46.4516 2.32258 46.4516ZM9.29032 17.8065V11.6129C9.29032 11.1865 9.63735 10.8387 10.0645 10.8387H23.2258V15.3066L26.2715 16.1103C26.3048 16.1938 26.3396 16.2773 26.3759 16.3609L25.0823 18.5806H10.0645C9.63735 18.5806 9.29032 18.2329 9.29032 17.8065ZM12.3871 20.129H25.8372L28.9185 23.2103L31.6406 21.6249C31.7234 21.6604 31.8077 21.6952 31.8913 21.7292L32.2855 23.2258H12.3871V20.129ZM38.7097 39.4839V45.6774C38.7097 46.1038 38.3627 46.4516 37.9355 46.4516H10.0645C9.63735 46.4516 9.29032 46.1038 9.29032 45.6774V39.4839C9.29032 39.0575 9.63735 38.7097 10.0645 38.7097H37.9355C38.3627 38.7097 38.7097 39.0575 38.7097 39.4839ZM35.6129 37.1613H12.3871V34.0645H35.6129V37.1613ZM38.7097 31.7419C38.7097 32.1683 38.3627 32.5161 37.9355 32.5161H10.0645C9.63735 32.5161 9.29032 32.1683 9.29032 31.7419V25.5484C9.29032 25.122 9.63735 24.7742 10.0645 24.7742H37.9355C38.3627 24.7742 38.7097 25.122 38.7097 25.5484V31.7419ZM44.4976 18.8309L42.0575 21.2718L39.6649 19.878L39.2941 20.0561C39.0132 20.1918 38.7229 20.3124 38.4326 20.4141L38.0447 20.5501L37.3393 23.2258H33.8865L33.1811 20.5509L32.7932 20.4148C32.5029 20.3124 32.2126 20.1918 31.9317 20.0572L31.5609 19.8788L29.1683 21.2726L26.7282 18.8317L28.1212 16.4399L27.9439 16.0698C27.8075 15.7867 27.6876 15.4963 27.5852 15.2075L27.4491 14.8204L24.7742 14.1128V10.6607L27.4491 9.95451L27.5852 9.56741C27.6876 9.27785 27.8075 8.98752 27.9439 8.70514L28.1212 8.33506L26.7282 5.9433L29.1683 3.50239L31.5609 4.89617L31.9317 4.71812C32.2126 4.58241 32.5029 4.46182 32.7932 4.36013L33.1811 4.22404L33.8872 1.54839H37.3393L38.0447 4.22329L38.4326 4.35938C38.7229 4.46182 39.0132 4.58241 39.2941 4.71699L39.6649 4.89541L42.0575 3.50164L44.4976 5.94254L43.1046 8.3343L43.2819 8.70438C43.4183 8.98752 43.5382 9.27785 43.6406 9.56666L43.7767 9.95375L46.4516 10.6614V14.1135L43.7767 14.8197L43.6406 15.2068C43.5382 15.4963 43.4183 15.7867 43.2819 16.0691L43.1046 16.4391L44.4976 18.8309Z" fill="#7B8AA4"/>
</svg>
