<svg width="48" height="48" viewBox="0 0 48 48" fill="none" xmlns="http://www.w3.org/2000/svg">
<path d="M42.5807 31.7419H39.8509C40.3424 31.0932 40.6452 30.2941 40.6452 29.4194C40.6452 28.5654 39.9507 27.871 39.0968 27.871H37.9355V25.9393C43.7007 24.5413 48 19.3503 48 13.1613C48 5.90398 42.096 0 34.8387 0C27.5814 0 21.6774 5.90398 21.6774 13.1613C21.6774 19.3503 25.9767 24.5413 31.7419 25.9393V27.871H30.9243C30.3274 27.871 29.7282 28.0127 29.1933 28.2789L24.3081 30.7224C23.9868 30.8834 23.6277 30.9677 23.2693 30.9677H19.3548V29.4194H9.29033V30.9677H14.7097V36.3871H16.2581V30.9677H17.8065V43.3548H16.2581V37.9355H14.7097V43.3548H9.29033V44.9032H19.3548V43.3548H23.2693C23.6277 43.3548 23.9868 43.4391 24.3081 43.5994L27.6457 45.2688C28.1798 45.5357 28.779 45.6774 29.3759 45.6774H31.7419V48H37.9355V45.6774H42.5807C43.861 45.6774 44.9032 44.6352 44.9032 43.3548C44.9032 42.7579 44.6704 42.2185 44.2995 41.8065C44.6711 41.3944 44.9032 40.855 44.9032 40.2581C44.9032 39.6612 44.6704 39.1217 44.2995 38.7097C44.6711 38.2976 44.9032 37.7582 44.9032 37.1613C44.9032 36.5644 44.6704 36.025 44.2995 35.6129C44.6711 35.2009 44.9032 34.6614 44.9032 34.0645C44.9032 32.7841 43.861 31.7419 42.5807 31.7419ZM43.3548 34.0645C43.3548 34.4917 43.0071 34.8387 42.5807 34.8387H37.1613C36.7349 34.8387 36.3871 34.4917 36.3871 34.0645C36.3871 33.6374 36.7349 33.2903 37.1613 33.2903H42.5807C43.0071 33.2903 43.3548 33.6374 43.3548 34.0645ZM43.3548 37.1613C43.3548 37.5885 43.0071 37.9355 42.5807 37.9355H37.1613C36.7349 37.9355 36.3871 37.5885 36.3871 37.1613C36.3871 36.7341 36.7349 36.3871 37.1613 36.3871H42.5807C43.0071 36.3871 43.3548 36.7341 43.3548 37.1613ZM43.3548 40.2581C43.3548 40.6852 43.0071 41.0323 42.5807 41.0323H37.1613C36.7349 41.0323 36.3871 40.6852 36.3871 40.2581C36.3871 39.8309 36.7349 39.4839 37.1613 39.4839H42.5807C43.0071 39.4839 43.3548 39.8309 43.3548 40.2581ZM23.2258 13.1613C23.2258 6.75794 28.4354 1.54839 34.8387 1.54839C41.2421 1.54839 46.4516 6.75794 46.4516 13.1613C46.4516 19.5646 41.2421 24.7742 34.8387 24.7742C28.4354 24.7742 23.2258 19.5646 23.2258 13.1613ZM33.2903 26.2235C33.7992 26.2833 34.3136 26.3226 34.8387 26.3226C35.3638 26.3226 35.8783 26.2833 36.3871 26.2235V27.871H33.2903V26.2235ZM29.3759 44.129C29.0175 44.129 28.6584 44.0447 28.3371 43.8845L24.9995 42.2151C24.4654 41.9482 23.8662 41.8065 23.2693 41.8065H19.3548V32.5161H23.2693C23.8662 32.5161 24.4654 32.3744 25.0003 32.1082L29.8855 29.6647C30.2068 29.5037 30.5659 29.4194 30.9243 29.4194H39.0968C39.0968 30.6997 38.0546 31.7419 36.7742 31.7419H32.1018L29.7925 35.2073C29.202 36.0938 28.3866 36.8128 27.4344 37.2883C26.5872 37.7117 25.6399 37.9355 24.6937 37.9355H23.2258V39.4839H24.6937C25.8788 39.4839 27.0665 39.2038 28.1265 38.6734C29.3196 38.0772 30.3406 37.1753 31.0808 36.0658L31.7419 35.0735V44.129H29.3759ZM33.2903 46.4516V33.2903H34.9812C34.8943 33.5334 34.8387 33.792 34.8387 34.0645C34.8387 34.6614 35.0716 35.2009 35.4424 35.6129C35.0708 36.025 34.8387 36.5644 34.8387 37.1613C34.8387 37.7582 35.0716 38.2976 35.4424 38.7097C35.0708 39.1217 34.8387 39.6612 34.8387 40.2581C34.8387 40.855 35.0716 41.3944 35.4424 41.8065C35.0708 42.2185 34.8387 42.7579 34.8387 43.3548C34.8387 44.3627 35.4882 45.2143 36.3871 45.5349V46.4516H33.2903ZM42.5807 44.129H37.1613C36.7349 44.129 36.3871 43.782 36.3871 43.3548C36.3871 42.9277 36.7349 42.5806 37.1613 42.5806H42.5807C43.0071 42.5806 43.3548 42.9277 43.3548 43.3548C43.3548 43.782 43.0071 44.129 42.5807 44.129Z" fill="#7B8AA4"/>
<path d="M38.2141 7.06531L37.4633 8.41863C39.1875 9.37466 40.2581 11.1926 40.2581 13.1613H41.8065C41.8065 10.6297 40.4301 8.29389 38.2141 7.06531Z" fill="#7B8AA4"/>
<path d="M34.8387 7.74187C35.2969 7.74187 35.7532 7.79933 36.1943 7.91311L36.5791 6.41274C36.0125 6.26795 35.4269 6.19348 34.8387 6.19348V7.74187Z" fill="#7B8AA4"/>
<path d="M34.8387 4.64519C39.5342 4.64519 43.3549 8.46588 43.3549 13.1613C43.3549 15.1698 42.6389 17.1204 41.3389 18.6567L42.5202 19.6577C44.0572 17.842 44.9032 15.5349 44.9032 13.1613C44.9032 7.61192 40.3881 3.0968 34.8387 3.0968C32.4651 3.0968 30.158 3.94395 28.3424 5.48062L29.3426 6.66119C30.8785 5.36117 32.8303 4.64519 34.8387 4.64519Z" fill="#7B8AA4"/>
<path d="M41.335 20.842L40.3348 19.6614C38.7989 20.9614 36.8471 21.6774 34.8387 21.6774C30.1432 21.6774 26.3226 17.8567 26.3226 13.1613C26.3226 11.1528 27.0385 9.20222 28.3386 7.66593L27.1572 6.66492C25.6202 8.48057 24.7742 10.7876 24.7742 13.1613C24.7742 18.7107 29.2893 23.2258 34.8387 23.2258C37.2123 23.2258 39.5194 22.3786 41.335 20.842Z" fill="#7B8AA4"/>
<path d="M11.7305 16.0298C12.2098 15.8967 12.6687 15.7062 13.1031 15.4608L14.0485 15.9337L15.9329 14.0485L15.46 13.1031C15.7054 12.668 15.8959 12.2098 16.0297 11.7305L17.0322 11.3971V8.73276L16.0305 8.39859C15.8974 7.91926 15.7069 7.4592 15.4608 7.02599L15.9337 6.07979L14.0493 4.19534L13.1038 4.66825C12.6698 4.42291 12.2105 4.23239 11.7312 4.09932L11.397 3.0968H8.73196L8.39855 4.09932C7.91921 4.23239 7.46029 4.42291 7.02594 4.66825L6.07975 4.19534L4.19529 6.07979L4.6682 7.02599C4.42286 7.46034 4.23234 7.91926 4.09852 8.39859L3.09676 8.73201V11.3963L4.09852 11.7305C4.23158 12.2098 4.42211 12.6688 4.6682 13.1031L4.19529 14.0485L6.07975 15.9337L7.02518 15.4608C7.45916 15.7062 7.91845 15.8967 8.39779 16.0298L8.73196 17.0323H11.397L11.7305 16.0298ZM10.5397 14.7059L10.2804 15.4839H9.84865L9.58932 14.7059L9.14855 14.6182C8.55543 14.4999 7.99897 14.2693 7.4928 13.9317L7.11856 13.6822L6.38557 14.0501L6.07975 13.7435L6.44681 13.0097L6.19731 12.6362C5.85974 12.1308 5.62914 11.5736 5.51082 10.9805L5.42236 10.5397L4.64514 10.2804V9.84794L5.42236 9.58937L5.51082 9.14859C5.62914 8.55472 5.86049 7.99826 6.19731 7.49285L6.44681 7.11936L6.07975 6.38486L6.38557 6.07903L7.11856 6.44685L7.4928 6.19736C7.99822 5.85978 8.55543 5.62994 9.14855 5.51086L9.58932 5.42316L9.84865 4.64519H10.2804L10.5397 5.42316L10.9805 5.51086C11.5736 5.62919 12.13 5.85978 12.6362 6.19736L13.0104 6.44685L13.7434 6.07903L14.0493 6.38486L13.6822 7.11936L13.9317 7.49285C14.2693 7.99751 14.4999 8.55472 14.6182 9.14859L14.7066 9.58937L15.4839 9.84869V10.2812L14.7066 10.5397L14.6182 10.9805C14.4999 11.5736 14.2685 12.1301 13.9317 12.6362L13.6822 13.0097L14.0493 13.7435L13.7434 14.0501L13.0104 13.6822L12.6362 13.9317C12.1308 14.2693 11.5736 14.4991 10.9805 14.6182L10.5397 14.7059Z" fill="#7B8AA4"/>
<path d="M10.0645 6.96777C8.35659 6.96777 6.96773 8.35663 6.96773 10.0645C6.96773 11.7725 8.35659 13.1613 10.0645 13.1613C11.7724 13.1613 13.1613 11.7725 13.1613 10.0645C13.1613 8.35663 11.7724 6.96777 10.0645 6.96777ZM10.0645 11.6129C9.21055 11.6129 8.51611 10.9185 8.51611 10.0645C8.51611 9.21059 9.21055 8.51616 10.0645 8.51616C10.9185 8.51616 11.6129 9.21059 11.6129 10.0645C11.6129 10.9185 10.9185 11.6129 10.0645 11.6129Z" fill="#7B8AA4"/>
<path d="M15.4839 24V20.129H20.129V0H0V20.129H10.3223L15.4839 24ZM1.54839 1.54839H18.5806V18.5806H13.9355V20.9032L10.8387 18.5806H1.54839V1.54839Z" fill="#7B8AA4"/>
<path d="M0 26.3226H1.54839V27.871H0V26.3226Z" fill="#7B8AA4"/>
<path d="M3.09676 26.3226H4.64514V27.871H3.09676V26.3226Z" fill="#7B8AA4"/>
<path d="M6.19357 26.3226H7.74196V27.871H6.19357V26.3226Z" fill="#7B8AA4"/>
<path d="M3.09676 29.4193H4.64514V30.9677H3.09676V29.4193Z" fill="#7B8AA4"/>
<path d="M6.19357 29.4193H7.74196V30.9677H6.19357V29.4193Z" fill="#7B8AA4"/>
<path d="M0 46.4515H1.54839V47.9999H0V46.4515Z" fill="#7B8AA4"/>
<path d="M3.09676 46.4515H4.64514V47.9999H3.09676V46.4515Z" fill="#7B8AA4"/>
<path d="M6.19357 46.4515H7.74196V47.9999H6.19357V46.4515Z" fill="#7B8AA4"/>
<path d="M3.09676 43.3549H4.64514V44.9032H3.09676V43.3549Z" fill="#7B8AA4"/>
<path d="M6.19357 43.3549H7.74196V44.9032H6.19357V43.3549Z" fill="#7B8AA4"/>
</svg>
