<svg width="44" height="44" viewBox="0 0 44 44" fill="none" xmlns="http://www.w3.org/2000/svg">
<path fill-rule="evenodd" clip-rule="evenodd" d="M22.1718 42.7266C33.7697 42.7266 43.1718 33.3245 43.1718 21.7266C43.1718 10.1286 33.7697 0.726562 22.1718 0.726562C10.5738 0.726562 1.17175 10.1286 1.17175 21.7266C1.17175 33.3245 10.5738 42.7266 22.1718 42.7266Z" fill="white" stroke="#54617A"/>
<path d="M17.141 20.9793C17.2263 21.0646 17.9935 21.7466 18.9313 20.7236C20.0396 19.53 20.8069 18.9333 20.8921 18.7628C20.9774 18.6775 21.3184 18.3365 21.8299 18.2513C22.2561 18.2513 22.6824 18.3365 23.1086 18.7628C24.1316 19.7005 25.4956 20.9793 25.4956 21.0646C25.4956 21.0646 25.6662 21.3203 26.0072 21.3203C26.3482 21.3203 26.6892 21.1498 27.0302 20.8088C27.8827 19.9563 29.5025 18.3365 30.355 17.3988L23.2791 10.4934C22.4266 9.72615 21.1478 9.72615 20.3805 10.4934L13.5604 17.484L17.141 20.9793Z" fill="#54617A"/>
<path d="M33.5092 20.3825L31.0369 17.9955L30.2698 18.848C30.2698 18.848 29.0762 20.0415 27.7974 21.3203C27.2859 21.8318 26.6892 22.0875 26.1777 22.0875C25.5809 22.0875 25.2399 21.6613 25.1547 21.576C24.9842 21.4055 23.7054 20.212 22.7676 19.3595C22.5119 19.1037 22.2561 19.0185 22.0003 19.0185C21.7446 19.0185 21.4888 19.2743 21.4888 19.2743C21.4888 19.2743 20.7215 19.871 19.528 21.1498C19.0165 21.6613 18.5051 21.917 17.9936 21.917C17.2263 21.917 16.7148 21.4055 16.7148 21.4055L13.3047 17.9955L10.7472 20.6383C9.97994 21.4908 9.97994 22.7696 10.7472 23.5368L20.8921 33.426C21.7446 34.1932 23.0233 34.1932 23.7906 33.426L33.6798 23.2811C34.3618 22.5138 34.3618 21.1498 33.5092 20.3825Z" fill="#54617A"/>
</svg>
