<svg width="62" height="63" viewBox="0 0 62 63" fill="none" xmlns="http://www.w3.org/2000/svg">
<path d="M18.0038 28.5752C18.2241 28.7954 20.2061 30.5573 22.6287 27.9145C25.4917 24.8312 27.4739 23.2896 27.6941 22.8491C27.9143 22.6289 28.7952 21.748 30.1166 21.5277C31.2178 21.5277 32.3189 21.7479 33.4201 22.8491C36.0629 25.2717 39.5864 28.5751 39.5864 28.7954C39.5864 28.7954 40.0271 29.4561 40.9081 29.4561C41.789 29.4561 42.6698 29.0156 43.5507 28.1347C45.7531 25.9324 49.9375 21.748 52.1399 19.3254L33.8605 1.48657C31.6581 -0.495523 28.3546 -0.495523 26.3725 1.48657L8.75391 19.5456L18.0038 28.5752Z" fill="white"/>
<path d="M60.2885 27.0333L53.9017 20.8668L51.9198 23.0691C51.9198 23.0691 48.8365 26.1524 45.5331 29.4559C44.2117 30.7773 42.67 31.438 41.3486 31.438C39.807 31.438 38.9261 30.3368 38.7059 30.1166C38.2654 29.6761 34.9618 26.5928 32.5393 24.3905C31.8786 23.7298 31.2178 23.5096 30.5571 23.5096C29.8964 23.5096 29.2358 24.1703 29.2358 24.1703C29.2358 24.1703 27.2536 25.7119 24.1703 29.0154C22.849 30.3368 21.5277 30.9975 20.2063 30.9975C18.2242 30.9975 16.9028 29.6761 16.9028 29.6761L8.09354 20.8668L1.48657 27.694C-0.495523 29.8963 -0.495523 33.1998 1.48657 35.1819L27.6943 60.7289C29.8966 62.711 33.1999 62.711 35.182 60.7289L60.7291 34.5212C62.491 32.5391 62.4908 29.0154 60.2885 27.0333Z" fill="white"/>
</svg>
